<mxfile host="app.diagrams.net" modified="2020-06-21T19:26:16.227Z" agent="5.0 (X11)" etag="XpF_8U0N07mPDEh9x6Ui" version="13.3.0" type="github">
  <diagram id="tARuF57Je85FTG0o2m_u" name="Page-1">
    <mxGraphModel dx="1625" dy="461" grid="1" gridSize="10" guides="1" tooltips="1" connect="1" arrows="1" fold="1" page="1" pageScale="1" pageWidth="850" pageHeight="1100" math="0" shadow="0">
      <root>
        <mxCell id="0" />
        <mxCell id="1" parent="0" />
        <mxCell id="FrmI1B2-mLSVceSW3Au9-4" style="edgeStyle=orthogonalEdgeStyle;rounded=0;orthogonalLoop=1;jettySize=auto;html=1;entryX=0;entryY=0.5;entryDx=0;entryDy=0;" parent="1" source="55TDIFbMitZlCRsvxrh8-1" target="55TDIFbMitZlCRsvxrh8-5" edge="1">
          <mxGeometry relative="1" as="geometry" />
        </mxCell>
        <mxCell id="FrmI1B2-mLSVceSW3Au9-29" style="edgeStyle=orthogonalEdgeStyle;rounded=0;orthogonalLoop=1;jettySize=auto;html=1;exitX=0;exitY=0.5;exitDx=0;exitDy=0;entryX=0.381;entryY=0.005;entryDx=0;entryDy=0;entryPerimeter=0;" parent="1" source="55TDIFbMitZlCRsvxrh8-1" target="FrmI1B2-mLSVceSW3Au9-22" edge="1">
          <mxGeometry relative="1" as="geometry" />
        </mxCell>
        <mxCell id="55TDIFbMitZlCRsvxrh8-1" value="" style="shape=image;imageAspect=0;aspect=fixed;verticalLabelPosition=bottom;verticalAlign=top;image=data:image/png,iVBORw0KGgoAAAANSUhEUgAAAIAAAACACAYAAADDPmHLAAAACXBIWXMAAAsTAAALEwEAmpwYAAAAD3RFWHRGaWxlADx1bnRpdGxlZD6Vs9eWAAAAGHRFWHREYXRlADIwMTkvMDgvMTMgMTc6NTY6MDCXwKpUAAAAEHRFWHRUaW1lADAwOjAwOjAyOjEyxtiOsgAAAAl0RVh0RnJhbWUAMDYw4AyCMgAAAA10RVh0Q2FtZXJhAENhbWVyYWj/7+kAAAALdEVYdFNjZW5lAFNjZW5l5SFdlgAAABN0RVh0UmVuZGVyVGltZQAwMDowMC4yNeJryEwAACAASURBVHgB7Z0JdJ3Fleev9PT09LRbsjZbXmR5ARuMCYFmDWCzGIcQsmAyCZnMme6ke5IcmHOSdIdDJp3uZqCT6TmdDJAmTYc4CcwkDoamG0wMBhvbobETdmzwho0XZFn7vkvz+5dUj8+PZ1vGEnbMV+eUqr766quv6v5v3XvrVn1PZmEIKRBSIKRASIGQAiEFQgqEFAgpEFIgpEBIgZACIQVCCoQUCCkQUiCkQEiBkAIhBUIKhBQIKRBSIKRASIGQAiEFQgqEFAgpEFIgpEBIgZACIQVCCoQUCCkQUiCkQEiBkAIhBUIKhBQIKRBSIKRASIGQAiEFQgqEFAgpMEYUyFi2bNmUMWorbCYFBdJSlJ0URZs2bYoNDAz8bWdn55daW1vvj8Vi9yxZsmT/SdG5U6gTJzMDfCs9Pf0HonV7e7vBCG91dHT8z/Ly8ocvueSS5lMIgxM6lIwT+vbDvJzZ/1Vu/Q/dHhoastzcXMvOzp5B+tOamprpFH9X98Jw/BRIP/4mxrYFwL+SFu9k9ucJfAWlkUjE+vv7h+rq6l53heGfMaHASSUBAP9qRnUfYOcPDg4mBijwe3t7Nxw4cODBr33ta8sTN8LMcVPgpLEBAH8mo1kB2POD4CMJjOsd3PvUueeeG87+44b80AZOCgYA/Cq69TBgL/BiX90cAX9XfzR6/QULFrx6aNfDq7GgwAm3AQB/IgO5k5mfCvy6vmj0G+cvWLAfs//aVrOK58yyxmLgYRvDFDihEgDwo3Tjl4B/Y1Dsp6WlGeZfe088vvRP5s3rHDD7OZw6jbJa8i3kd/eYNfWbrSQ29pptI21HjLwTAntsFDhhRiDgx+jqXxPfA76Yoaenp3veT36yENBvoJMC3wC+jHwZ6Ww9jJl4o0xFwO+ACTpbzNZR7xGun9kEgywx6+Z2GI5AgRMmAWCAhKPH633N/MG0tKGu5uZtB5qb58zo7ra5Dz5omStXmjrqY3A8qQYAU9QiIVpINxNXUGdtnlnoRQwSbiR/QiQA4B/i6PH9EviZzc2PzPrhD3OqJ0+e01VaapHGxgTwyWAHryUhuoj906ZZ7fz5Ze1FRWV9WVmzC3t6PpXW3V1bs23b+tiOHY8Utra+wHP7ie3+vR/mNEjDD4QOgC9Hz0NY+Pl+5rsXs9aPNjTsmn7bbUPxTZtmIOZd8Gmwoz4v8d8+ebJ1EvddeaU1zJtnkZwc687IsAziAKqku6vLxTjSJE79OD7l2Pbt/1H1xhv35z711LMfdsnwgUoAwE/p6BkC/Jy337aK++6bAvgZHuDDpeKMTuKWW2+19osvtkh2tqXHYlYgFQLo8RHPYVtbm3VzHcvMtIEo9mZ+vmXk5GTn1dYuyt+/f1HE7CBGwnqaeoS4luXFh05NeBoz/vENgD+TN7zH0TOEoyfW0mJTfvpTy0XfK6hTwejLlCo0zphhO774RetauNDYJZSv2GQ/NDc328GDBx0TsHfgypxdARP09vUZgNuC7dttxve+5/JqSxJGkoR4EDWyXkYk8VmkxT7dP9XDB8IAgD8LQv4Ksf+RoNgX+FHAn/bzn1suUSEIvO+cT3W/btYs2/LVr1r0ggsceAJfQTN///791ojNwLLSga9NJOX7+vutt7PTznr5ZTvjrrsS73APBv7oPWIGlpp1JP9CvBv2OqWXlkHaMt6xD4BfRavv8fKBkKV1dFjJww9b+Y9+lABFHfJRvfEdFDAHzjzTNn/725ZdVWURmMeDr3rd6Ph33nlHy0ddupCVlSV/gvVz76xXXrF5Se8ZqXZIMsxONE0p7zxA+juyj8IU/5pt1nZI5VPgwttY4zIUwE/p5RP4InDeW29ZWRIoqcBX57Z/+tP2xu23Ww7iPyMAPjuExjkB1/9MdL1iFH0v1dANM9Q3Ndlpb7xhZ/AeDda3nypVI8FyVEZ51OwzpL/AWHqkz+zzz998c6UVFbn3nQp/xo0Bdu3alYn+vTvZy+dmvkCrr7ea8nLr+8QnErPcE98D4QncdPbZ9ubixRYvKbGImGdE7Hdh4b8FEynu2bNH28WOAcQEWgX0DwzYAsrnr1iR8h2+fZ8mv1/XYlSlMMAi0gdnbNny4ltXXHHHxptvnmzFxf7RlCkSJA7TXJXy5klSOG4M8Pvf//4WtnBv9GC58Qo8Yj66eMqGDTYAYLXo8iDhk+mC6LXN115r+XPmOLHv21OqmS8mkKHXh5En8a+8Qi/gT4XJzv3NbywTBlE40ntchZE/wXo+7xlh4urVJVOWL791OoywA0bYIEaA2VIFnv3veCX/Zb9ZQar7J0NZ6p6PQc+wxgsEUCnOnIkTJ7oZKT2e/eqrVnTPPZb32mtWdtFF7k0iskJyqrJd119v3TBJLiI9CL7yAjwejxtnBx3wMvhgOuvHIMxC9J/75JMWGyX4HmC90wffH39PqaJC4erVpTlmt8bnzVta39//d8iCp6ifMBipJz3x31BO0Wvefcw9ezL9GTcGYCa+LcMMVWAtWPqlZeWWG0237GXLLBvwFbJ+97uUoHuCt02aZG8sWWLFhYWQ0JMeKx3AxQBOz/MOzXptHSttYe2fA+MtXLXKCp95xr1HQHowXUGKP0e7r0dUR0ysyN6D9iCs4y/+onpPRsay3o0b93QtW/bX+BKWU68T/8KF5KewiniWfWw2Mk/OMG4MwHAfZWn2HWbl1PqGButubbFL0vusZN2zbg0uYvqYTBpP6O033mh5s2db+ohYVz0xU21trTP0NPul771kkBoYgCEuQcUUMfvFMmOp49SewBfwSlu/8x07OH++DSJ59sydO7Xtiit+hor488Fly/5hJy4HqohRpj1ulvvxk9T1LN/IuISVK1d2XH311Vs6enoGu/r6pmTX1mZXrl5rxTt3prTGg50QA7Sffrq98KlPWSGGoq4VtNYX+Dol7HW+LH6Jft3rxaY4e+tWm/OTn7j6nsH8867wGP68K3OGZbhAl02i9OC3vmV7PvYx52FMQxqxj2GdSKrWM86o7D/nnKXx9vaz39mzJ4YkaK01u2eFGfbgyRfGUwLYLbfc8iREXLPu2mv/DRG9uAAvnWaPuE4v9gClIksPhlUmBA3OYKkU6XgBLpGvVEG2gIy+ChxB8x56KNHukdpP9c7kMj3vmUCpB7954UJ7BcmE88GyRlSR+qPYSb/fZtWSV12dV4bvIeO22+JTkQI8viW5/ZPhelwZQAPcZrak9LHHFmewFZOZ1p0QnyKoXi4IBbIntJ+tzRBYPn4FL+K1zJOel+4XsZWXodkNU+Th6ZPRl8myLxjUrm8zWH4s+eDM7wT8HZ/7nPWyr9CvVQjvlSpSlDTyjNCal2cdGLn5Dz9cUrJmzdqWu+76Z9r58YSAoXgsfRivusEJNi7v6Dvdrsn+NqbwpV3Wy2yRHJQUkBEln51SXSsEgRoSgRHrHnzdF/CK0vteCgzQJvrALn7pJStcu1bVEsEzlVKfT9w8QsbX96lngD5A3vmFL1j7lCmWx65jHiCrL1qKah9CqslLqX761E/fmlgB7fnkJ0tav//92zAKX2IT6w5oMOkIr/9Ab407A2RdY4XxucxyprsIKbB9FAOgIxOMIBHrgZqIITfEDBMDKMryb8XCVxvyJfTBHD2UxRD/F23bZpUPPODucdu14cHzaXK5ro8W9Kz6pP4qrcMm6eHddMhJH4GfAyPkw6zKC3ztQLLj7FSVW5IinbpQC3svvNAOLltWyibTrbTwAkzwEOccr6fZExrGVQW8wVp48HE7v/dlwH9meIaLqALRB+UVRWBFdQj3q0UhaAczqxCgJRk6W1utq67O4gCew0wrwp4oRufnYlTmbNzonlU9H/Ue5ZODL9N9H3yZrn25Ut8n9a8FT2TtaadZGjN9CA+gNrIUpIYkjaQCJJ1knEpViWmlEhTFHFSyupkzreSmmyz6wAPlvPMzuWYf5x2PIQX/ldMpa0tOwHZ0cOxuQGP5h/XvJyDevzF8U3TAkop0isGX6zoBPvmBM86wHejbGDMsh1kV3bLFYmz2RGCCNJaVmpWeefSs2h8sK7M0gInW1Lj2BaKif49Snyd7SF7XPugZte3f0QT4+847z7oBWWB3VFVZNxtNsv7hAJeKERSUuhUJM1/u6JHP2tw9rRQqkVblX/qSYy5UQqKfvOsgzPAip5p0lG0lkrEFegzwhpcqxpExgvRwnRzLP5vN7kXM/7m20PKJeM7cqRwBLdBkAKoDIrhCkAlUR0H3NBM9GMoHgdcz3ZwEkojdNnWqW45VwDDTd++2UjaBcvA8Bt9BdXedPHB/rfcFwd/JjH2btX6R1A2A67BJOjO6F2YY0KxGx3cx8/VcOvfEAJr9fl9iwoQJzjDUe8lYCUxczcaWVB9OIjdm3fJB7WisihorqkKMsZb+/S07a5B0bIOn89i2OtIanS5A57nDd02kIrIA85FsAgwNXFFGogYu5vBAk3XB19GF2lCdWjaTnsPabpBxCCAifDugvFFZaTkf/ahNQVXMevNNm/Lv/+7e5dtQ6kFXGiz3xG9inf8KbWjml+JaFviaxUOI+UwtR7nOhtm6kVLNBQXWhFGYhspS8LNfqwIf3MoF5tH7RHj/fn9fqb+n+6IDkq2UdCkT6dIavIrkb680G3al6oHjDOPKABByuxZynLtzG+n+FKYHT333RFAq0gkIAaCofHJQPUWBXwf4GwC/GyMsGzDcngDlYgTFQcT0gfIK6/qTC2wHjqVp2AyVbEJlcfzMv4vqiaAy/25JlReuusraALcCu2MC7avfquOehREGiHCcxbELotgl7VVV1qulIOUyDmUTeNUgqTBIjFBPQW0cLmh8GrvGqHcqUlbG9VJUxNn7zD5Xibqg+LjDuDJAh9nbEnNiAg1YVr+iSKBBSTr4QWrAhxCYa5V5JvCpiKN6jczOZxH7bczOKOJZulhWt4wxzT4tyQTAJBiggPstlD3PjmIh5wnmYThWPPecxVATDkzaU9CMEwP0IbYPAL6WcBW0eTptZTKzNfv17mDQ844RqBeDEXp4Jhvw1Q8Pvuo724RUZx81Fg+y0iMFP94AULN45692mi2uNnvrSM+O5l7yeEbzzKjr0Pmn4dh2DUJMIKNHgHsm0MFOiXxPEHXGD1hlPjoic+3AIdUznYjbPg5mZENonf/TjNMJIFnd/KKIY4BoRtRy4tnWvXePxZipEsFvIqofxVO3gfX8nqVLEwwm8H3cxwZUA0CWsKybxVI0CwZSH7T8U1AffdR4opSnydJHEqkP6k9Q9LtnkEh5GLBFf/VXri1P+OEWVSN18Pf1Pr1LjAAtZ2FQ/9NGs6mpnxp9qdoct/BpJisd/SIvKVTHNWgNSISWAygIeDCvOooius+TTYClskxALmRGNsMIfELmZpuWYCK8XMOy1iV2Y1k4j5qaLd7WYm/DJH1SDzyfS90aVg21qJAJ1M9APYjBWr/5TXuLbwu03i+BaSZIuiSF4MxWX+TwaeOwSh8OIjGkJNAhgT7FYKbpuKmjL7zgxq/x+jEfUvcoF2IEBZ6thj6Dd5s9OVzy/v6OKwM8yLcaXzJjq9wuVcc1YIHaD3F16lKG4WBFhfTnAPecueRnlgc+mQl4xDFCOjMz7/XXbfK+fe7YdyPgdkv/ct/PPq2/dSA0Vl9n+YBcx+zs4i2DRBl0JThsWqnTA3glzz9vfddcY/s//3nrkCOHmD6iWqRe1K4nvkspUx/17YHUUFtVlUXpQzL4qhOD6aay9V1w553vAd+3SbVE0DPBkHztaUQ682YcSj80w6f0/sK4MoC6dCOd5CXyBzgiNsyda2s52bt10SLbe8UV1vKxj7UNLViwomnq1PkZnOCJyvtH3VRR7SmIAP5+BJ8AH3tYHkBnA0Yv4jfCJtIQ+UwYojAv33JaWi1Gu/3MzAYAF5iSBJr5mYDciq3Qhd+hlBVDI32KcIglih3AZ+nWzsztok7vCOB6NhGGBq0T8Bsrp1gE51A0eeZTUUvDSfgwyr/+dddn9T3ITIm2jpDRMz5o3P4a6ZrD9dwv800kkoBPI489jDsDfM5sL538LINmH8TaNk2b9vIfZs6snHPWWVaMno3l5cW6pkzZtqesrKTlzDNz0ljLZ7KLpiDh64EOSgIRwBNBH5V0yLiTNPjtb22SdhzRxb3SxSWlnEgqs0gsy5r373M7dS2UCwDFCYCbAaNoOXcAe2Lq2rUWwfpvZws6KkaCCSQx2lE33TCY1EJnJMM6ADrKdS/2xf6SeZZeUWxZmRmHGH0071zWpRh90/iGwY/jWMDXM4cLaqePpW6stbUam2Dw79+nKhh3Bvi/2Gv/SVLQ7Eo6vW5pevojH7/oosVaKmkzRSEaiZzW0d6eWy8CA2YnlnrmS5sQwcOGX5ARPCE9E/QiUToR4TnoVt2LHjhg5YjbqTt2QJYB20ObA0iBtoF+izCT+7juA9QBqQKYJ092AwwQJe2inanr11uX2oRR5FPgSyJLR6JoeScbozaWaYNR7AuYoB1bIQL48Sy2gtMEybtB+xV5rAqq//EfLX3E8vfg+7772kcCWnVS3Vcb+zBk9/3pn1pRWlr1X27b9tQPcIv4NkebjjsDqCOfYfMDccWBMJv8s+zsrVdfeOFiechEUJ3wwWhL0wbKEADFIfgmPu5oqDrXCl4dwH38jjPOJAG8FPB5EbQdSZKFGsjA/esZRe+M4LgpfvFFq9y5Az09YPWIdW3hDgJkGsDrXd2kmYCfTT902ngA0AfpxzTsgVq+QWiBAWQP5PCBSYxnG7geRF2kZ8WxXSZZFlIjK5bxHvBlzcRpc+by5RbjRLL6mwy6+uiD7h0uBMFPrrcbF/VBHFUFhYW5uStXXnGL2RP/wAr5cG2lKv9AGODXTOT/gveKASx4uLh416XnnXddMTpTEqAIImoXTfv62lXT1qos6fisanttcLKV7OiFCfY6JhDAstRFFOUVW5mteewcwkWO0J4JVEcxA+YoQjpM2bvXimC2NL2Dd+czq+Wz19FxqQK5qmMAd1CHWDdtcvaBZjkfF1h6fp61wghaXci3nybbAgbOCjh6eNwFzXzZFZVsUBXecYfrowc/GUD/jNJU99T/VEF1xfxarvbzYewA48kdHCzKfe217jvMVqd65nBlHwgD6OVfGB7jafe1tPzq7LPP/uzkyZMnaKkmS13MIOLKk6cyraOHBnqsq5wlXm7Mivax28fiX+D7qFnVw6HRFmIu/n5dK4hoyien2kTKY2+gDFuhACaLAG4PPoF0YgmA5gCwQpxZ3owqqHz0UctgmZiTnmYcabM99K8Q5lF/xbha7/vVRmJZCPgZ1J0C+KXf+EaiTwJLIQjy4cBVvSPd032FIdTPW1df7aSa1JTUZvHWrefdUlPTjBTYNFzr6H99345e8zhrXIW0BhiMVTu4efPmHwtwEVPLJulafv/POXOU38fSrr6+ARugzjYWxNrePGehfgbGbaBoE0VQ4WW0Lup2KCpPlIPJM4jqy2Gk1EfdH+Q9ZY88Ymd+73v2UcRzKR+L1iNx6ljDx+lPNa7iGqRAG8ZoMfU68fDthjnyYJouJIUY1IMvP4PAdwyA9JDDSOqjBPDVDwGZDLrKUgEcLAs+Q3UXkp+LYFfEOB/ZSb8GYLp+JFP6pElRnG1n+WdGk35gEkCd+eUwRraDMGfOnBuQAoWaRXsRz/p2oFJWLWJV6kDXUwFh+oyyvt2RwcHC5/4jnkkbIqzEvAMXSaGNnzhHz1Wume+jJ1gqaeDLcjAUK9ats4rNm42PGKwcZog/+6w1chztjQULbCpEbmDWDyElSiFwL6lUQPDol96TjgTJhaFnPPigFSD21b5mlmIqMCk+JATBP+TGyMXh7neydG1BBWYxiWSbFGB0pm/YMPHPzO6/a4TWqdoLln2gDBB4ccfWrVvfnD179mVlZWX5kgIliF2BLwIrlV9fEqKsrDRzMJYV70cvF+OTF/gisNP1zMxuqQ+ekT/AM4EIlqhD3l8HU+W9vVCAwZiLemjiI5LdlLcD6BaMKxl559x7r8Wrq60WYzMTZnCzHykg3346/Y4z67XtPBmDL/v++xOzXsD7SDYR9N7jDb4NSaVBDqnol1TS6VMOxnNs1aoWJN3dPxqeI0d91YliABl7OwlbqqqqPsJMLxFhfZBfX3q2CWDEBHWAG/31r62SCjpToJqSBooZiO+D2AFaannQlfq8ZxgRzUfdU16pJMk+4l6iVInURATmm8172wF8AiK+AMZrO+cc60cCRLmOYjyWsKFUziqj/IknrPhv/sYysEN88DPfz36f6n4w7+snpx7gw5X7cWTg8yhADfSi/zuYQAU40uKPPy51+AsYoCX5+VTXJ4wB1BmWgDtXr179W5hgMobfXIEuleC2TiGygq5fZ4YVbtgwNAH6sZx0FnshaQFxIkxShvjuZBZ0MHMHkAoefKU+JjOCyj2hxQRqS21qhzJKG2WohXx0vpaD5XzCXoa6KEDlTGYXsWzNGiu5/XaL8+VRJAC8n/E+palECAIfzKuC70ei8hEywbrKR3QsDtHfwgaXziZkPfZYJ0z8zzDAqNzDJ5QBRsbZtH79+scB+jV28U5nJVAqHSsfgQzFLbhR71u+fNXnGxp2sCibqRkqUa9tZoGlmAtg8utPgAB4FZ2nbkDikXvJ0Yt9Ec9HSRLNWtUVOGpb+QhOpQ7c1hmI+Sirh3yAj/3hDxahT7qv55NnO0Upg+oeb/CM5fut9pQfRPrlIg1y+SgGuRqBRk9hA+wczfuSmXE0z4xnnTIav/jyyy+/DpUwgXX6zlWrVu2n7JdPm32Zwf6dBuxB0qxFKjiVICAU+GVRa4d5tNmkqNktLod5XOrzug6WqdxHtaWo6yHEq9b72UghMYbUjysnVRgtAdXvYPDXPvX3kq99ufqzH6OvUSsV1E8mPg3P3JoUiqrTQITJv3smtCJ71CAanEyhls6sWLNmzYrkTgFkvQivICJpwHJ5aUkoJ463DeTSLeJazDGJKCY4QFR9Pa8BS4J48JX6vO4Ho6RFP7ZJN86WGAygpabKgkwgBhDhj8QIyaAmX/P4YYOvK7BfQc/vwIG1i/RCViz6gQ2NRVHj0xJZih9GnUYyquBpOqrKJ7LSTRyIhBivELuJM+h4TETRDNfABY7yKtOgBIqAEiNoP5oNE+vSshGjMeg19LPIp7SdmFlk3fKqEyMzB4K7a5W53LvpyKVLPCOoneSQXJZ8fbj6qqeYhXTLRBptJ85AxcUQ+yoX+JoIYmSNF79H0S1mP71n2AVCyeGD7+/ha5yEd54Y/rWO/0rnLwXsyQJbQcDLSJRdoG0mgS79rnIRym3dsnRrwlbQTBGQelbRSwKlutYzXjL0cmiklA0mte3LfN5fq76I6SPZRNC7fQjmfVkwDd5X3kdfp5dlb5v8EfhOdDhVY9ARuzaijFhNBFYzzfSDs8xucUPJ4YP6+0cbfsuJWQZwGfG7ADDPM4IGJOAlAfj4wjGC9LfA0oDlGRQDSN+0EiVCFVIyAuvr3nPPtVI8fALdLT1J1dZYMYEHIRl8XnEIA/j76q9Uka41FoGu/ojha4iEPto8f+4oDo7quT/asBi3Mp1fvmr4uPTFEOWTDPx6gMkTYaQSRByBJhtBUdJBwJUQNWM0e2RL1BOlSjSjROCgBNAnaGpHRNd9tac0VRATKXqwPLiq68t8qjLdT75OVa46quvBVx2NT31XqCBKCqiPjDFK/ZlkXyQeMfxRM4Af2dXDk1mG44onUQ+An1APIpii9KTADkoFASkmkLoQQ4iYNTh/3IEPvGqOEXD89ODzF3N4BhAYYoAguFw6ID0DKE0GV3UUgoAPlwzX1TPdH/mI26TSwZUy9iUyUVd6r9pS6vugVEyuZ7QSUl+18Nc1fWsk3Uj2qOGUYIDgKK/iJDLXTz81/EHFZRDDqQcBplnsDSapBAEvqSBG8DZDEWA3ExsoE0G7cQezTemILaILPM8ASgWMiK6gdygv6aFU93wkmwgqCwbV7WLvoea669wHLY3apoYBqhcutGr8DhV4QT3gmvWKGocYwEs0STC9XwxO++tmcSSf7FFDcl+O+sAfW4XVfFBBny8mJtSDB05AefBlKygvMERIEbgRzyS7VlxwDoDfNdI9+dy3sSrYyo5lLoxSQdkk4ulEWeCaUa5eIBWRg4T213p/J/sMOy+/3LZzFG2Adp2lj7Uvb2ivvKE4uKaw3JvJD2sN1NQ4SaS+tfGhaTHeSfUbo89JL/WfNpto/7LZZu/6pik/XAj263B1TplymGERg0moBwGloFQSQbMpnzhCSHLQn1VDHVvOTeQ1C2vZh/8BYnkzKiIYvsmmzLV8qDKJ1YI8cgLXM4KIrLxP9Zyu6z/7Wdt0+WWWXjmZa1zgSBpthCnKE6oDK9p+TmNvYv7dd1uEH8DQck+/SxSHWQqee86GOK8og1Ztq9+k/wvw/5LsqMIppwKONOorRtQDOkLf211GdOpBxJN6kJ7XbBIjaGZJnOqDEvkRpGO1Ymhjy3ozrmCFC/j5uhkzZuzlp/CeG8rMvPrVqVMLG9mencT+QOkvfpGQKB54gS7GUFRZN27rSNUMK2A3MwNbQz8qoXIdWYvABDqOrutsNqPiMKLCzvPPdwdV4mxCadNK4CvIsKXu20SduRh1+FAxgKfKopHVA4ygjy21ergJUK4XMNKr0rGaaZIKshFULvEu1dHPOpxtSm1f8ztWp//94sWLn+BAyI/5ObzCWkR0bPp067jkEjuIf34mZwtGdLIDUu2I4CNg2ST+E0o+YLfqJDKbWQO4efuIUYDN084ejp6c3bstigow6r6tLWnOP2TAgHHqiFnV15H2egH/2+j+PRSNOnwoGcBTZ9HI6gFGeBwmuBaNez1ElHOpUoTVrJdU8MCJIbDKn+e0yvlf+cpXujnUsoWfhqlgI+s0nWPQSaZmtq6zcR2vZ3duCP9BpS14vQAABHVJREFU+erV7syiZr+IrTZ5l2OmDFRFHlFqZwgm0G8QD+LmTcfPH3n6aVdP+l7qpxGRP8Rx9UlsSGWx+6mZL6mlNhXp948A/1dkjynwXBiCFIAZSiDKnxG/DmEnCTjNfAUYoWOV2W1rrrzyf3/hhhuQwL2ahL319fV8QTbgjrTpNJPOMOj/E+hXUpv4NP28B39jRU21TgqoPRFdbYqxNHulu5Uq6r6kUGdO3Do7OIZGXiuScuJkoiSKlrNaoQh4MSVtPclzN8wc1lKUjD6ojTAEKLBoeP/ozmfMfsZsvQiwnHoQMMxcOVjS58+dG9HXv5xfyOE0U47OMeiDVP2zikI2a3RvG78Ekk/5xDPPssYv8rXw//m+A1ftKEiyyHGjVBIhOmMakqPC0s/mhydLiq18y1Zr+n8PJzyVWuuLQTz4nnnozw76+K33Az7NOSZSGoYkCiwc3kRc8eyIegCk6wHvPKpl6eCqDoJqpitK/EsC6BibP9Siz9P5V/f8RG6Z9U4ssp43r7TMJ59yS8zgq/rm8kuoNy21rNNmubOGubRb8epmy3titasmCTCHqOWm900IfEkNwi7Av2HWKJd8w48c+jeUAIfS4z1Xlw5P0oe48dDvUAno3my+Y/gyS7QqXxkV4H6ufvr06VZVVeWWb/rWgSNvjilKYISh2XMsHQYAMCcJJLrlhYz19FrWwXobRGVk1dZZxs5dlrZqjZvp2CSGP9+tQvaRyh7w4NNOPfFWwH+Z4vcdQgY4BtJdNPIjj+WPP35v6cSJ3+efWTuwdaqZw602E+eMJIPW7hiITjrIJihmPR+jXKB7BlAq4kd37rbID+91wEoVCGQFga9ZrvQdooxHV5+UIPC/BvjLhy/f/18xVBiOkQKI9xe2b9+eUVFRcbFOM+uLJjGAgA8G2QLuFDFreFn7Obh1PYhKVVuMIOAVBbIMQNkFWob6ctXxM59sDarolrEAn7Zcu0rDcGwU4FdiO57jLOPrHGY9nS+bSnWSWWcZdcRdblxF2QpSD3948cUDJY8+2pvf0hLXjBawPhXgwah7GHYuCHQPvKQB5TsB/3rAHzYQhqsd118xVxiOjwJlPH7xkiVLrquuri6CCWbzoesA7tydDQ0NL69bt24j/87mpXVmP4jyP4cEKCC6KOIrCnAPOllXplT1eEapfkDjDuouA/y3dG+sQsgAY0XJd9uR81B4Soq78AK2Huv2Tdmc0vGi3zOCB8AzgK4FvALSoI78AzyznZXAPw2Xju1f//6xbTVs7T0UeIZ/HgWQ/xlR/kkYIVcMIGbwYAsIvI81qIbfk9VO3kbym89kqUd+3ELIAONG2tQNb+SHMgD+YkT7AOkQcSYgNCIB9gH4b047Rl9+6reEpSEFQgqEFAgpEFIgpEBIgZACIQVCCoQUCCkQUiCkQEiBkAIhBUIKhBQIKRBSIKRASIGQAiEFQgqEFAgpEFIgpEBIgZACIQVCCoQUCCkQUiCkQEiBkAIhBUIKhBQIKRBSIKRASIGQAqc8Bf4/xgmlHpAKN5kAAAAASUVORK5CYII=;" parent="1" vertex="1">
          <mxGeometry y="10" width="140" height="140" as="geometry" />
        </mxCell>
        <mxCell id="FrmI1B2-mLSVceSW3Au9-6" style="edgeStyle=orthogonalEdgeStyle;rounded=0;orthogonalLoop=1;jettySize=auto;html=1;exitX=1;exitY=0.5;exitDx=0;exitDy=0;entryX=0;entryY=0.5;entryDx=0;entryDy=0;" parent="1" source="55TDIFbMitZlCRsvxrh8-2" target="55TDIFbMitZlCRsvxrh8-8" edge="1">
          <mxGeometry relative="1" as="geometry" />
        </mxCell>
        <mxCell id="FrmI1B2-mLSVceSW3Au9-30" style="edgeStyle=orthogonalEdgeStyle;rounded=0;orthogonalLoop=1;jettySize=auto;html=1;exitX=0;exitY=0.5;exitDx=0;exitDy=0;" parent="1" source="55TDIFbMitZlCRsvxrh8-2" edge="1">
          <mxGeometry relative="1" as="geometry">
            <mxPoint x="-40" y="230" as="targetPoint" />
          </mxGeometry>
        </mxCell>
        <mxCell id="55TDIFbMitZlCRsvxrh8-2" value="" style="shape=image;imageAspect=0;aspect=fixed;verticalLabelPosition=bottom;verticalAlign=top;image=data:image/png,iVBORw0KGgoAAAANSUhEUgAAAIAAAACACAYAAADDPmHLAAAACXBIWXMAAAsTAAALEwEAmpwYAAAAD3RFWHRGaWxlADx1bnRpdGxlZD6Vs9eWAAAAGHRFWHREYXRlADIwMTkvMDgvMTMgMTc6NTY6MDJ5zst4AAAAEHRFWHRUaW1lADAwOjAwOjAyOjE5UQpXOgAAAAl0RVh0RnJhbWUAMDY3fmgXkQAAAA10RVh0Q2FtZXJhAENhbWVyYWj/7+kAAAALdEVYdFNjZW5lAFNjZW5l5SFdlgAAABN0RVh0UmVuZGVyVGltZQAwMDowMC4yNntimfYAACAASURBVHgB7Z0JfFfVlcdP9n0jJGENYVNAFlfUFgsoLtiKFWu1TgcZEbGjtbU6TtWxrXWWTm1nWh1Hx4FitXVHK21tLSpTrYhUEWVzYQkYSAJZSMie/POf7+8lNzz+JCEqhoDvfD4397377rvvvvM759xzz73vH7OAAg4EHAg4EHAg4EDAgYADAQcCDgQcCDgQcCDgQMCBgAMBBwIOBBwIOBBwIOBAwIGAAwEHAg4EHAg4EHAg4EDAgYADAQcCDgQcCDgQcCDgQMCBgAMBBwIOBBwIOBBwIOBAwIGAAwEHjkgORB2RvT5COr3aLDGdvq4kxZJGmUWfbFbXWfcfM0uYahYzsIvrnd1zKMoCATgUXIxoY7tZXrTZfIq/Rh7XykGYBLOjEIQtpCYJRBwpdPLJFv/GG+FmsxHUSaBobZPZkj1mf0Zgijj/VCkQgEPI3p3twAP6vHizAnKB7iU9xs9sHVdfeqltIaW1tFgMKZqU/d57lvj669b6wgtbW8x+WG/2wpBPURD8fVIfA/oYHNiCMieafRetvhIVLoihDSUxV0LgSFbAkY5Dw4ZZxaxZVokVqBg92sJRURbb2moJDQ2WUVxsqe++a0nPPbc1vHr1nTuwChORGXf/ocoDAfiEnNwK+JjyH6Lx35X9lmlXctof2byAd0nXBEBo1Cir+vKXrWjkSNuZn480JVpKcrJFh8OWtXOn9fvrXy3hvvv+VFddfQPWYIPuO1QkQQ3oY3LgbcbsZLM7EAAPfITAG9fFVAmAXwgEtF/b/McxFRWWsmKF5axbZxlNTda4Z49VqT6iFUpKsmhSYlLSyKg1a2YuMCu+5xALAY8K6ONwYJPZPxSj0DhsYVx7OXLhEAmnr9Oka0qM7V5SfX9SubteM2FCuOq888K106eHcQq99svJGW7q15rd+nH6G9xzCDnwvtk3tjMmC3wcNQ9QAY95PyBFCkSkIDiBUO4XCAGv1Nieash3kTYjBOsDITiEaH6EplZg5Rn3b0Pz9wgQgSNAOwM+sswvCD0RAr8ANPAMpb0kCQGWYPd7Zl/5CF0PqnbHgZcYz/G087urswbwqfNvZQAg4B2gkUB3de7qK3cCoNxvATqzAnqWwJelUV5LqiB9aFZaaDa8uz4f7Jr8lIDgQOpPf3pB8qxZb8Hgx5lrHRfJlFLm+ENw+NJw+LK4iONnAOklAO8R+R0///HBblZdJYFVzSyhcNIkaxg40FLNcim6H8HMJ/9YFAhAO9t2tbQU75g5syzq0ku/CmNfQuueQuOGMOeKem/ChNubx41bSVj3FgTAAwJNNa4b9QyhMcy1N70j+8gUKQz+cwe+8hDTw81Dh9qHKSm2bQjiGBsrITgnx+y6j/zQ9hv8z/q4bRw19z2+atWIgs2b/23k6tVfzbzrLsVh76s999zyzMLCf8oiQtdK0Kb8ggs8IJLKyy3j1Vct8cknDTPugS+LIIYqDuAY63KKPHLWwuWR5e48Mld9aWvJ8OG2FvBHVVbaIKaNOI0SxAb8kX8eZfYvkfcd7Dyyfwerf9RfPyccTrltyZInE1eunLlr924bQVRu4Icf2u5582wPzG9mTu6YFtfcbCnV1dZv0ybr9+c/W/wzz3iAOLAEmOq6+n7Q/cedMbWr6xKy+qwsS0AAVEfCJyvEsLWbfPIYs0JOe0yubz2+4WiuiGefQxDnyr3XX//3Raefnp8BqMN27LDi2bOthLBtKBSyJAVmoveNnArfiokJhHBztm61AffdZ7FYBoHSXUTQz8euwPaXu2Pl/qR2NPwQh5AQ3McM4R/PMGOy0DMKBAA+YeoHAOmVLZdcsqBq5sz8yvh4G/Laa5aQmmpbpk+3esbaVhZq9u7da6mUpaWl7ScEHqsRBAlGGlG9oc8+ayn332/yE8RgRQZ7wmgHstde+x9X5s/9x6omKyABEOrkPx1vdhOHPaKe9KtHDR2plZhSDS+dMuWZur/7u0nlgwZZc329jXnkEaubMsV2HnOM1cfEWAvh2TAzfQlADOcZGRmeIAjwKIAXKRcw0VyPo41Bb7xhOTfe6A0JEoBIIdBdDkgOO8hf1t2x/5puli+AHyDLs5u2T2VasFXlByP16zNJaE3O1wYP/vamG264u2z27DF7BgywuKIiG3fnnZZcWGg7v/hF25WQYE2A2Yp59wBGCBIo07lSLJZBpGte0gl1WhCCGqZp8ePGWfqyZR1AC3SXVNV/rPOeku4Tufs1IDUee6y1sKKYVlSUwspky4/M/uRVOsgf19ZBqh09l9GSnG3Dhs0vmzNnQdPxx+e3oM3RNTWW99Zblr9kiaXgWcvRqpk2zdZ+7WtW3r+/xUmrWZiR9jvQa7hH/oDzCfzWQNyShibgMxyLNUn57//2zLQDLJLpfm3u6ti1qdyR6gr8Goap1y6+2GKYHYzessVyvvOdQt5hAtNWGYVuqU2Eu61ydFwsM8tmTP5G4TXXzC8555z81sxMi2tstFwcPQGfuoEZv49S/+//bALavO7yy62e4Esimu8HWX6AhECan8j83FkB14RAbkRgtlx2mR2DX5Dw2GOeYLnrPcnVhl8gnOC4Mu8ZEyZ44DcNH27p+Ce19JW4QAYLR7ncHgiAGI25zy6aO/eBmjPOmF1JIKUV0z2Aqd2w3/3OUpjH+0lMdSkV4RgPuJu+9S1rxjGMQiAcxXOeQkCmniFClsGRhMSR2qmh3pa5c20kU8Z4BE3WRaRrkbSv9X1XVC+y3F8Wov1KLFE6fVN5A4JpEyZkxa5dO5nTLfta6vzoqLYAROhyNg8ePH/FNdcssMmT8+thVpi19lwctJH/8R+WAHiO/IAIQp0rpT7/vI0cPNi2MRw0ArhfCGT+W5gd1NXVeU6hswLKHan+HqxN0SWX2AgEQBQJqKvbVa7WuronSn1C6DQ0xZBrWhqjZDa6q/b85UelAGwmbr973Lh5K2bPXtB64on5YQCIB6i8V16x/F//2tKI6jlyULncXy5BEIPSfvELK4Cp2xGChggh0LSwtrbWGggYSSAEvt8iqD0JQTnjc/qPf2z9b77ZswICtLNnqr6fHPBdCUEswpfJDSGfdWq/f5i/na6O99murmocYeWAP2Pvaaf9tvw735ltkyZlMEBbHub+2KeessH33GMJhHBFYqg/eYW+Mp37r8fiJCajZXsZc1txCHVNJMClfbICmirKIshh9FsB1WtFOxsIJmXhN8SuX7+fU6jrXZF7jq67YycUymPYMlZ26qlWy6wjkefG8fycF16w2pKSfleYLbq/LU7UVfOegHd58Ui6wHw+Z1Ny8rzdP/7xNxtHjBhUjkZGv/++HbNtm434z//0Nlo6Bkbmek9X5t5Z52KwclkCaUoKlmDw8OG2Y+pUzyfQlE+kcb8/s4W6ulocw1qTf6DkFwK104ig7GY9Ycjjj3v34Zt0xAcin9/WslfN64P/XKU6d2X96UcTY3+YfqQg4Gwdk5VJp83+VOvWETzihwC8nLyWUaPmvzZnzvzwxIn54XQmPwRsxr75pg377W8t/Z13xC+PHJNdrkL/cVutA/+qjoRADM+8/XYWhe+wHdOmWRMgExDwbqhvaLQmtogkJWIleH46/Yi0BCG0s3jECAv98pc25IorPCugNjvrg8ocwN4DuvijOtFYuAaczDQEIHv1ai8ohP/Tjza0SnhTF7d6xUesALwL8GjlfNK85oKCgijG4mwYkYbWZ/zpT5bBOO+YqNwlxwydH4xcHY/J7ZV1nPn971vDwoW2k0CP6sj0NzaErLQ63vKSiQiGmq2J6KF8Af/UUXUVHi5jF3AO08PY9qmhe47LqeKR13Ynx+1FHVkOu4bLzjjD+mH10n/2M2PTirEmYBl8bNJRqYuDyGd2Ua3vFG8CeDo9H42cl2BWoI0Z0k4lSbM757ADdL2k/0X9x6rXExLwStJ3me7688+392+6qc0KIAANWICiIoWM2UQwJAbwY71hQALgnxpKWKIZq4e9/bblXHWVt2jEe3j976pfeq7I9cGfqz9KzfgmsViYho0b7S3OAd+SzO6aYHYzh13SEWMBCgGet5gPk+bR6QJ13KUmXv5DxuVdhHPzWL0by4pcV8zsqlxM7eoalzquSdBUN/G55yz9oouslBBsNI5gdHSU5ebG2Ga80FCIxaPWZs8hVJBITqJfCDQrqCEekYvjFsUHIBIotdsTcn10QuAEIHrtWs+67KQRTW7FLOoctNk+LQDwMo+XuJzY9mDe52LepkAMYOT1PqJrOu442zxtmr1HDLy+Xz8vWlfCnL0VBo9jNS7y7R3zuP0A6u6av7LquXYH/fznFmbBRyZdawRhdglmZzfYjh0VLBjFemXNGptx0Pz+gObrTdnZ1vSFL1gCDqEEoKfPV18iwdewolRH2k0aSHJ95LBb6pPTQPa9x32PnbcAfS9m7FI6+TkYlCnznqzXmTjRtn7lK/YmZrgI8DX+p6Bp8ZjWJObpJVgCy8vzAj7u7R2DXe7Ke5qL6ZEUtWuXxeN1f8gevWQ2aRTvLGYWUIb33+JFCDUTkOZrH4F/VqCyVgRGXwClLV3qgdeVJkY+VxrvBECCo6T9ANp/oI9JtCqYStJ7wrfX7zV7nsMuqavndnnDp32BTRkD6NT1pFv0EnohSTNWwEslTKNWzphh1XjZyTAxFSZrXJWZdQs2MQR+NgBKGo5WPo6WY5ja0/HHEYLIe9QnpeS//MVy6dMepoECNikp2QsRa7VQs4EsBKORNQclt2bAbV4fmhEAd3ywfrl3UC4hcOBL892GEKbCltJ+XcpCn98n65b6lAAUscERqX0Ap2iYXlQvpxfRSzWOH2/vnnOOfTh5sjXB3DQ8bDFZgRenaVTzzqVxUTB+pTxjtmulEfpVe6JIINtKP/pftSMBEBhDX3rJyvAF6ggtJ2hqCKlPEsjdbCsbyFivvqpfmhloWIhCYGMQXJHa0lFk31QWmRz4zuwLfCcAKpNI6R4BS3uVZN2S3qFP0DYieLBuIS8wzEm3XkImv5mxfvn8+bbjvPMslU0bSWi+SMwUUzXlkhXQsZjrReN0DUuwimXSmkkTvfpijMjlbWcH/u3uuv+aswJJf/yj5RJwSuSDTgV/1AcBrtCw8gpWA9U39Uv9VFLouIk+igSqn/QMxwN/7kBXLsuopOO9WpnkuW2tdQgmHy3Z66RuqU8IwEYCFkC6mDRULyyG6GUkzbIA2mDB3MrSGd/j0ByZVZl8kXIxVwyVydXqnEAQk1Mxxy0nnGgfnHlWB5P9AHoNdPInUhM7qdIhRGKg6g9k40cSADswZfId2OqXhFQCoL6qnD8Wz8ZOva/rkwNeoKrcD7g7dsArx+SXbB0//plnZs+uKTv3XM8x1vPVH/JFo3uwQfSwCwDgjyR2dxPaP8RJux983sVqAT+6Xbt0rrFUnrW0y9MkmCutE5N1rnV6ARAKtXg7eraefIptvPZa3eoxW4x2TPcKe/DHf4+7V7mYLSYmE3U8btUqa0Hb47BQmhUIcPUrD4dU1kB9U7/Ub90bo6Vkcg0aakNlAlBgy6z7wXbncvYqTj/dNt12m/311ltvn7pu3ey3ExOvTtuz534HJve/RLU7SAcld89BKx7KCr/5zW9YtPbs03D0+CkYMEwvruTMfrsTo2pWi+aj1t6x+yOGOlMqRgt85wtIy2QZNES0tDR7mzsLJ59q1ceN824Xo/3JtdlVrrqO3HFkrt4NYIl5DENBKxqfgYCmIrRaoFHeiiCk0OcQ/QxxrH2DacTsRQLBAS+AldzYrlznEopKwsjv3XCDbfr2t61w/PiKjf37L6PYfrNw4aNsY1+i+T91dyM49/OmPdoZ3GZH1Uov0JIlS/KIkc9Hg2et+P3v52V+8Ys3IwnHi5lioEDXmC+t8MPdAAO1zu1IJl6AC2gdO5Mv0N2QoDJpnIRA8/P43FzbcN23bPy991gq274cgPtada3vy10dlUQeu3OXC0RZsLE/+pEN09T0hBO8WUEL+wwTCgqsBXMfh08SwjpFM23VNwVJTzyxn5Y7C+iUQblIzygivYjm559yivVnG1vpunUv33HTTdt0HUZIYOrow7/Aw0Wn93BDqG7tFQFYunTpUEziXLT2SsAvEEgEax5MOP/8SVFE1ASCzCBzfg98Mu+lHTgZME/bsgWqIwe+1uMlDI4888r4qutKIl3XvXUA88HZZ9sJCIBIjFWLLleZIweszt1xZO7urWXKuf2006yYoapVAklfZZ0EcjrmP6SlYqxYOvsGEhi+stl+1oxgNtJ3xitPu9W2EwCX69layvsr6QnSWGYTE2iHDR/lmZmZt1PUQXBg5XlmKzoKenjwqQvAW2+9lVhZWfk9NP8q9UmM8YBJTT2xkVBqGgIg8OXwSfP9JKaIyZks8DSXlloY588JQTJWQeOsxlQXZHHhVg0JIgmD6mscVtJzK48bb1mXXWrDHnvcq+Oe4cD1Ctv/uDJ/7uq35OTYuq9+1eoBMYPnxGLqcwC3mhlLK6be2znEs/dyrbKqygauWOEFjSqxAonEC2q5v0mO7fbtlsAKnnrsgNextF9u/O9J/0oagvDOOf54z/fhnVdeddVVbVLMNRHgO4PRVtDDv5+6D3DCCSc0lJeXL0ILdzjwvL7BmNqxY63p1ls98LvrSCKOVSJa5H9DmXY5VwOI+mmejUZ4gAt8JReBE/Caj8vqtOAU9mNTxsYvzbK9Jxzfof0OYMcznXeWdF39rCUSuQnhbSb83B8wvY0YCHYKc/7UkhKLpW9aH5DVakXo5K/kILzalDKKVcRYlqpT/vAHSyEKWMrQVAkfFMaVtispoLOd9F8kgS+6iCmw3hXwmzZs2LC4rfST/41Uuk/eYictPPnkk0UXXnjhWrR2KsBoocqjMMDUFxRYljxnlm/FdGl8JMVgOltZPCkh5u5iALIkAlnAShiUsDTeNFD367oETrkEQsc5/XIst3+OxaSmWeXeKst7fVWnz/PuVxs6aCf1q45Fp/XEFTYQjMrC+ihA5RdcHYcl2Irzk4dIrfp2kK+M4hHEVLS+mV/+Esieh68+Eqjag3PXxHs0YSnk8Enzf0l6jOToCvYPSADwa5bOnTv3B678k+b+/n/Strq9f9asWcuiYuJ+1rZ3tb0qDGjClLNj1xpnzuzQyM4aKmA/X8MHH1g1wiBy1kS5kkAW2I5k7iUcGiZEEhYNF6qr7dMtF11i66++2rumu2RdlHeWmgnzrr7mGnuRjZ2NgDgS59KbpbjnKed5tWjzbrS5kWfUYLFSAX4807WROIbJDAFyZsVwgcyGDW/VTp57Le3VsVlVb6byIpIf/JNOOskGs8gF+JWkH3D5kFGvWADX2+vjqgaFB6Vd2po6ALDFaoCEefraNQbPNp25tFfm/d33R9oXK/OKKd2MdqXCaJlYJwSqKXCVBLoD363ACXxRU3OTZWdle3XiGa+3Eq7N27rZEuVfeDXa/uhYz/S0HnO/mbWHBoabfJxJLbR0aI2AR8tb6FfV8OFWVVBgdbRZiVYPZI1gJCt9sYWF3pSuhemh+lbHEKH4rCyAzL5Aj+X5dN4TQgHCYljdn9smRZyZnXnmmcZQKgH4r4svvvhXXuEh+tNrAkDAJzt0bMpDWUO35jaknGyt8XxM0a5BYnQjQhCPiUtE00Uqc+SOM9jsEE0ouJShIBkARU4INAQoCijHT4C7cV9WQUnlraG28GxiAmv01A/TRmVtjQ0kgCNQ/ULQwvi+fs4ce5Npl/e7fe3PaqEt1Y1uB766oMD7kccarEQI65SN1o/71a9sINvJQ4oAUldJgJfhxO1G20MMCwJezp7sk4IiEiyl9vPvPspKKKeaGI2ZwneKONFbNm/efN3y5cu16HfIqNcEgClAdtLYmltCxesSWt/LsvDIERbGPDtw9YFDDczM7MQfcHX01umY1g8ws4mYYqfZEgIlzQwUJVTuAQ5IsgZOKOrq66x6bzXK1haW3ctxIX3QPF3bqpwAtMTG2Nqv/629gqDJYUnULIJcY7cEIIFUgzNZxsejNVikaq43oPXj/+d/bACrj6wA7Qd8hxBQpwnwpfmZpHxSHolIqDcT0tCgxPDy0GJ+GZTDZ0lvE0quYKZzy1133YUeHVrqNQG4zmyabW+c2/wa2rNqpcViWptgfIcVgKkhCQSal8J39jEyiz5yQhBbVsaKwVDbguevX9N0FkBVJRBu3JcFUAxee/adAGi6KF9BQ4FmBDrmBu/LmhHayoPwSQg2/u0c2z37K9aE8DTJ0si6YKLr5Wdg7vUZVi19UKitivsGYbXGyatHiASg5+CRO+CVOy9f7eeSBpHkRAoAWQM5fvIHuLeMOr9+0IwOeUZiA7Oo5954442dnB9yij3kLXbRIGbzWBeclMMVi5mMAexWPOsoNFWkvJTz6Ouus8Gs/olZDnivQvufkXxhsxfgdn/pS5bFvgBsvCcIMvVOIAQ6Y2aHY6jpoD7l0nWVy19QnWZSHoIShYMp4Brzcm3raafb0Kx+3mfhO0qLrZbxPw7gUySgHDciFPLuc/khiMFaBGI7lu4VgDLrSk4IJBACX++S054U7dQwovoCXgKA81dKnf8l/WKaHfBpt27/VKjXLMC1BLJ4g1mSOAU8oouLLb2k1JqmfH5f4IRyAd7InD4VbYtr39LthMDl0RprmTKVaC8+DqFbg3fg04Sn/S5CKKB1TVZBJH9B5xoemnjOJJ6TwocfAq6UL22jL7wIH4Pv7YjnV+Gdax6fxnNi8VNqqB9NJHHsT35ieXxbGM2uIGm4APfnAl7AykoI8JEkCUA8SeIuR3A3ScMKde8lmzuVsP6DbTLBae9QrwnAAoY9ALwiGkY2Mg+PHTPCUs6fbqEPtlljQQED376vbeQP1I4ZY+mESeNw/CT+DnyXayjIY6zdRDStBWD8QiBwpfHSdA0JGhpk/nWscpGEop7jAgTxWG3Lwvyr7dIzz7LYUyZ7Gip/QULSwlqCQrxVhYXe52WjiF4mKpxLfQe6O3Yaz8+1eP3OIx9KkoMnEuAMYs7klyIMd/N+d05v28mtKr1KvTYEwKBtMLiOyFhyTPkuS77lm1Y/5XRLnHGRxeX0t8pp07y5tN5eQ4GmhhVEvwY+/fR+DPELg0zvFL7ufRkNjUNgkgDZkZaLNSRICEQuTiArIMvQQErB9B//4otmmH9ppTceM6QktGIZ8BPqmxr4pAvgt26z0ThwE/kd/yRW8GTB1KpyZ/IlCErSegnSQFJ/krRf56pfQZIAYPpLeI+FpEVnmhVSdNioNwVgD/DsiiovL2i94Hxr+MLnbcuqd2zAniobwG/qVPBT6dr0sZ8/gKMYfffdNuD66/ezAn5uZTIOn4RVWYVZj2N2EIu2i6T1+ikXJZEcQkUKZR30My5hBOBUQrKpy5d7Y7TqCKj4uhqr5BeAFcKt3LLF+iEcE/n+biiCJrAd8AJfyWm+xnON9RLB0SRN7dSe7pE1kMnXvdRfRjZ/OgpBftip14aARQg+w0Ac8JwTDVdKCgqs31NLrRkmpxIkYUODNfKPE/RjiGKcKAxQDYzzmZj7WBaE/Nrv6qheOuHVOITgPXwH/bCTftEjkmT+FSeQSW9mHJ/I0DKaaZtMtrTftVc1arTtZGqXy4cbx+CoKpfnH8fMRGA74JU7jRfAamMAaThJ5l59lTXQOC/wEY5SXvvn3Pf9s9pC/ZQefjqQU59in3AE34UJFydVVvTLXPeupbEKJiaKmRmY2BY2fuoXLrRv3pH8gSZi5TLXMWijyIHl6ug8i7ayybcBVhNmXKZe2i5yswOV1TAk5DKWn/TwwxbGkZSGigSg+pGIX5HL+J6Dxiv62MpQUoNlSuLZAlX1JAjSeJlzHWucF/A5JJlUvZPGeSWEo1jAc9+1M8yefrht9zZX+gb1qgAcHw63ZLW0XBD9yivDE9F4MUtQy3Qq5JW0YgVxrzHWiBD44wMuVJzWRaiYWz2hSEOrh2FNGORtKxpfiwBEYQ0U9fNEQYKF03cafkU8mi2gHPACX8IQxvGMIVwrsEUxTPca9OEHAiqwZcal2Zq+qc5IkjRfpl/3yxrsIrWP9Zupc+FZZo8+1MvePV3oEfWqAHxzxoxsllBvia2vz9DqnwRAHRDjxNwkvPIkNHQv4ddWBXlw4kQCr47IHz99YqnswHVl3kHEH2ltf0K7+QhCNmDzb1asCmHYg9mv5NophGizmb4JSIHuTxIGkZ7nknpQwRq/ho56ZgoC3ml9AcfyMFRHFkHAy9wz9Sulzs84vBGt30jeZ6lXBeBXixfXfWHWrPUsgaYmrl8/VtovIRCzpTkShFTMs/bMN7PPvjXSH0AI5A/ERfgD3LYfqb14Ionp/BDD0JdftqEIW5amjWj20Acf7IjWOfAFfJuo7WtGZeqPN87jSFYhACEESMNMAUkevrRewiDvXnFL3oG5g7eEL3P/DFoveejTJF71Or0C/5C8VcTwhsv0SxCkQTKtcqDE5Gp+1KGCDztEzhLoBxAy2EGT/8ADFk/o1bvm/d3/j/+lBKySyhyoGnIErgTAge9y1XWCIfBVt/TEEy2NNYgCnE31T/1VHTcUKKf/iuT9/Gz+nwCnRwz1qgVwXFkMX/8G0wgjp1LGZ5Rt2iTGyhJIqzKIsUfhCzRqauiGAnLnD3S3dMztHWALaIErwASoksoEtJLIHSt3dTVEaBzHnFsu08cCLIqb02vmIO9eTh7XS2TuufdawP8dRUcUHRYBEId+yWLHHEVlNS3kPK49SVM1zoYYbzNwyBrYCetNDZ0QcK27pWMBKIAlREpO012ZX+u53AG+jnWv7nHWSAKAlbJB+A8J5LrunDwJBkKyjOxCmfuH+6iTR/+6pcMmAOrV5WZb0Jyz6cQAdcQJga5pXG3CkctMS7fmkSO8r2mdae9s6dgPvLRcQDqwdU3JkdqJTLqu+6T5EgCZfu04GETSWK8yOXnqF4Lhds+RswAABTtJREFUzek5/D5av538iCXH08P2Ai+bjYLBf0gh1/gqZu8tGGXbL59t6dM/ZzlvvW3NsSzK8AMQ2oThSEGiPELBuXyjb8QABLa0XMnVigTZ3etymXw3NPiBF9iySv1JEkyN8RIIyovJFnHfonMOcwiXfhwSOqwWQG+wGKW6lBkgfsDZYro61PoP19rAq79u/YnJ1/zueaveVeH980R98y9SgEfgVrKc3MgSbTJf5zqNF6i6prb8KbJM56rrTH45s45CfI6KkpIdmP1GnNMUjfUajgQ+x96cHuAfffgINfe8xgEk/+uw01ZWxMYy3AL+bepM0tPPEgY2K1+zzkKPPWPxbKUKMw43Dx9usUTmmljLL+OHGXbgmJ3CFM+N8/4XEcCdJYEuCyHNr2WWUfS5z9luws0VRAm3EW28IxR65C/vvJMN6Fe2WxRvnZ7qi89jyCI/qqhPCMDVDL0vmd2Dif0S3J3U+uY7lkgKp6Z7s4B4VuDCpFq0dAfBoArAr2RPwFA+u8pZscLTYqf5QkfAi5wAyBIIdNUR8DUsGu1go2clu23rWDvQ/v0YhCq1mWl8SspfGA4uVz3q30n2C4AvJD8qqU8IgDh7Jo7VMrNLAO2PnI4QYHFJCZaI969jgZl832Ir/cZ8rECcTWAtYfirKy2G6aI01YGtXEAriZTrfiXVq1qwwDay5rAG6zEerU8naRhgg4Dt2bPn93e99toL1Lua+743s00AdPWopT4jAOIwHvUHz5v9PSAu5HSIIm/yxAWiNDIxarN9Pnm5peWx23ZTjSVsaNuKxaUDQHfAKxfwDfyc6jYsyGaiibEIVSNTTIGuEK8WibZv375p3bp1P2AXZh0S+DeAf0h336qPfZH6lACIQefyo0bLzeZithfRuWGai6uTmiJG5/GjSwm1Fttc5n1b78AVwNJi5e2mu0NopPm1fLi5i+/4tgN2GvsCh7GhcwS7et2u4rKysg/WrFlz2bPPPvsO1fWd3WcCfL1rnxMAdWp6VNSLy269dVW/5cuHxTPGa34usGPe5KdgGqqsNo1hYeWH3vRM0zddE+E3ei+kl9Kxxv7Kr3/dilhcagb4oawtZLPWL4133wpsgoqLiy976KGHVlP9M0d9UgDufuKJhOb09L0VmOtEBCATWDS2SxBa1q/1gjUCXdotkPUS/tyVF/FTrg1nnWXx7BFgN0gH+JpG6te9d+3atezVV19d8Mgjj2ylic8k9UkBuP6SSxqXvvLKN6tyc59Ec6fn1NbenAs8Cscq+R0+HftJgqH5u0K1a5jijUfjo9gfEK+dQmi+zH51dXXpsmXLFt57770PUG076TNLkfzrc4z4R3y/kWZf7mf2TwjBcUQMO0LG6ry03VkDd6yX2ELY/uUbb0yfzq9xCnjtAgb8Uo7/FwuwaMaMGYWq91mnPmkB/KD8e1t4/rH7zZbT2al4Z99jZnAcRt0z/U4I/OBr/CekvPSN998fw49JDudTsV18IfT0qFGjFs6bN6/Q3/5n/bjPW4BIgB5lCx7gTgHki5gZnEnKpk4rL7KXVEFK4/ogBOInU81+xDXNJNv3ZUa2FpwfcQLgh2wpwoAg6IOTVoaBGvJKwE8jn0y9DWfZAZ9Y+W8PjgMOBBwIOBBwIOBAwIGAAwEHAg4EHAg4EHAg4EDAgYADAQcCDgQcCDgQcCDgQMCBgAMBBwIOBBwIOBBwIOBAwIGAAwEHAg4EHAg4EHAg4EDAgYADAQcCDgQcCDgQcCDgQMCBgAMBBwIOBBwIOBBwIOBAwIGAA0ccB/4faMAul+M07VMAAAAASUVORK5CYII=;base64,iVBORw0KGgoAAAANSUhEUgAAAIAAAACACAYAAADDPmHLAAAACXBIWXMAAAsTAAALEwEAmpwYAAAAD3RFWHRGaWxlADx1bnRpdGxlZD6Vs9eWAAAAGHRFWHREYXRlADIwMTkvMDgvMTMgMTc6NTY6MDnuHBLwAAAAEHRFWHRUaW1lADAwOjAwOjA0OjAwFKaBAwAAAAl0RVh0RnJhbWUAMDk2jvc7yAAAAA10RVh0Q2FtZXJhAENhbWVyYWj/7+kAAAALdEVYdFNjZW5lAFNjZW5l5SFdlgAAABN0RVh0UmVuZGVyVGltZQAwMDowMC4yNeJryEwAAByDSURBVHgB7Zx5cF3FlcaP9PSenvbdsiRblmy84N0GDGEPi4PDEhKGkIBTMyRDhUlSgT+y1VRlaphUhpok4yKTuEgGKiQkMyxmCZCwmc0GEgM2xoDlRbItL7JWa9+Xp/l9V2rnWWDHGEc2THdVq/v27dvd9/vOOX26+z6Z+eAR8Ah4BDwCHgGPgEfAI+AR8Ah4BDwCHgGPgEfAI+AR8Ah4BDwCHgGPgEfAI+AR8Ah4BDwCHgGPgEfAI+AR8Ah4BDwCHgGPgEfAI+AR8Ah4BDwCHgGPgEfAI+AR8Ah4BDwCHgGPgEfAI+AR8Ah4BDwCHgGPgEfAI+AR8Ah4BDwCHgGPgEfAI+AR8Ah4BDwCHgGPgEfAI+AR8Ah4BDwCHgGPgEfAI+AR8AicGAQSTky3x6/Xhx56KD81NbUgJyfnc21tbfMHBwfvu+KKK35//Hr4eLf0kRKAzZs3R/v6+rKHhoaWDA8Pz4eaM2Ox2DzSgnA4nEqZNTU19ba2tv4hKyvrgWXLlj308abvw7/dSS0Ar7/+er7IJS4lTobgZT09Pdnp6enF8a+ekPCX1xgYGDCExPbt27f3xRdfnH/33Xe3xtf1+UMRSDr08sRdQXYyvecQlxAD7SadB7kFiYmJgXZzbSkpKeYIx9wr3wThjUlJSc/s3bv3M52dneUSAtK3PPlC7MjhhAlAnHZ/jiGeRSyHzBzie7SbsoB0iO3FChxob2+vCYVC87EG34lGo488+OCDLStXruxesWJFDYLw40gkYpQ/eeRX93eFwLgKwKpVq75SVFQ0F3JOgchg7o7Xbg0ojmxdNkF2I/Wfraur21tQUPDUAUJNTc2yKVOm3IPjN+n888+vUUWFdevWrSwrK9syefLkMO2uHSl9799+M1mbTGIuk0cicTrxL/OI2RD3tg+bdQLQ/ve28PEpiX/pv+lb3X777cmZmZmv4ZwtyM/PN8gzHLegTzlv/f39PWh4Cqa7D9P+w+bm5o3FxcXvLF26tJFK3fGDe+CBB/K4fiM3Nzc7mpW1+LwlS6rj78fnO82ikJjNiy5JHJ1ayJcTRb6mnBhpavwzykN+F4n63UC+jfQJ0pdo66DAUfaRD7z7+AXM9H1o+Bfw3A3y+nDmdpA+iiCsq62treru7v48pv1WtHjhmWeeuedII3v0/vv/JzU9/frchISfn3755StG6w43XXVVVlNZWXpPNJo190c/WsgL3kDMDpkdMrUcqe3D3UMAGogvc/9R4ku0+ZEXhnGdAgCtUiZeob6+/pXrr7/+arIo6UhAQF7F3N92oKXl65R8V6U9aLAIJC4hTkWLJ5NO6//pT89LzM62hI6Ob1DnH2qXLw8PpqYm9KemWqS3d3j6unVD2JdAsyHteIUJ9H8N7V0TQxgGEALy/xYx23y8OhjvdsZVADD1+6X9mHtjbpeJPUi+XvyX5eUbvlFfv7svFvvH2u9/vyLvBz+YRPH1EgAGeogGDx44YNtOP93qysos8sUvpsvxm/bKKzZl1SoLtbQEE7omcgWel0k/ZJJX2dEEPTc2jrY3gfTzfSxR20eswm9wKh4+mjZPpjrjKgBs4PyGJdsBBOBqBOGxeCCYbAuTPv3pGw/cfHPWYFlZds4zz/xag4snCq2zFuKG226zgRkzbID1ftb27TZ73z5LRbBSf/e7gKz4dh15KnNtjRJ48Dq+vvLuGfXn8irXdd+ppzb25eWl9hQW9uCxqjgBwb6AeovrGhquKnj55RVMDZt046MQHCYnbKyYgCJM9VcYwFcgvGzsgNx146xZduDKK63rjDOsOyvLipqaLOuBByzl8ceDsUOM7Tj3XGvGwcQkW1Zzs2W1ttqEigpLe+edoI7acoS6dl3qykWyi/0TJlgsN9dqTjvN6rKyeruys0M9ZWXPDUYiSbGEBK0k9NhIGB5OiPb3d5z+yiv5xffeu4K550F362RO3fufkDE2s/yC9AchTM5aoJFoT5DGD6z+4out8sYbLbmgwLIhNu+ppyzp3nuDtZoGvpN7b5xyijUlJlpycrJlZWTYEBYhNjRkkfZ2K+rosFQ2h0qxFMV/+pNFq6sDkh17mioc6SrrXbbMOsrLrR4fY4CVSl80as3E3qQkG+zu7hqORutCqamNCeFwHz7NSDOsZLAIiQmx2MCCt98uLH/yyU0Z27b9GJ8hsAbcLaLpJb1ma1LMTprdyXicGd/4BRbX+ZC9GjVaKPDjBUBCoOimgAMXXGBhyAih9cOvvmo4XyOaDCnbv/xl2zpnjg1CVAvCoaUljqSxmjD5G9oVTIQ41v6W2d1t5ViFyXv2WPGf/2zhqqpAiCQA7fSx9/LLrRknEmfSCtrarKunJxAMbLwlT5liicReBKqTfjoYy0As1hULh+sSo9HGRAlDYqKEIcGoP3XPnsJZL7wwkP3SS/8O6blYue8N4sDuNvvBXLN/od5JEU6YALDGuxKCHxfRaElAqAajvMoALIgkAeGAZ4ojCAdzsW1futS2MDUkimy0nWWksRMI/sOBAOBzGBtCloZVKO7qshTIZ5PBqgsLbd7u3bZgxYqgzbduucVq5s61ZKaPfgQmBfInNjQEauoASqOPUF5eIGAx9jB609LYQEiwfoSkHYe0A6cWgajDBHWEwuF2xqQpoWXJCy8sTLv//jxUPo3YX2+2/DNmq/ReJ0MQ1ick3Gr2LUg+TZ074h3YIllaKcLxsoOovMqcuX7rS1+ytzH7SRA8BKk6ABLZWg0oVZQViGANMiE/t7HRujQtQFoKglENgZMpT2C6ePXSS20IrVdbIQQon1VERm+vtSI47CdYK5Gliw10dtogFiCGcAzynNGG2k/HT8jOz49kZGTkZmZkTLTBwfyB3t5wx8BAzvbi4sSuqVMnFNCmNTe/dAGWgNc4aYKs7LiHnWaXYvavFZlOAkW+EwBNCYoiXakEwgkFWYvhCyRAehoEiiCRrblfUVaggzlfUwG7joEvoHqYYRuQ1451YJ/AcjlU2nrWWbbwj38Mphq1rykjQp1kyO6lzRpNB1xrCshVH9zXPkYnbferHfqSkB0UNgRC12nZ2WmxwcG0bgSmleminhXLIP3NePrpucObN89mFBV6j5MhOPzHbSzvmuWh1ffRcalAlwQqaiAy/y44IQiIoTD+OgHg819/3cr37rUciGhBA/tECkLRjvkWSYoiIwnSSijrl/aPNq6+0rECPWh7Ef5AAv5FYxE+Gm0lUxaDtG7ysgA0ZDHI1zIznfY1nma0n7W/9SFI8jE01ehkUqmESFOQngusD9NFDgKbXFxs7fPmpSdFIpev2LJl721mW0aHc0KTcbcALPvOwYmbK0dO23TSejfvK6+o4IhX6mJwgz8Hidy2zUL4AGeuXm2DaHvt1Km2FzKbEQZZl16mBU6FjLNk60YY2tBCpUmQlgt5qK5tZ1k559lnrREHr4U5fhgC2yFSWp9E7IdIjW+QuhIcHD1LwDJI60W6BEBWR8Imq6OoI2v5IvHWIUzbho9RW1palpOa+ruB3/72CZrbSpuVvPOLxBquxz2MuwBA3kwRqlMWR6xL5fgFIJM6QRDZuh8fdE9lWvvDgmU+91zwXCFlc1gRtM2ebTXl5VaDZZCW90JqI6TUElMkFFxPYUnI50VWCyl9aPoilofyBWLUiaHhYRxGgSMBUH8y+8Pkw/SXh/AM0ba0XfdEtiyOpiD5IGlMBRIQCUswdu4phBGWdGJKQ0MK7/n5kdLg1iFnDJSPmzCMuwDQoab2ABhlOoiyBjpuyyKyRg7IdEKhVELgtF6gKUor+9Gq1P37gwal8YEl2bzZCogTuJYwtE+fbjGIKSgpsRAO3Ly1ay1aX29h9gLUduSzn7VtZ59t565cadMQmh1sL0dZJaTh3UvDNT6tMERmP+Y8Af8gjesi4iD1RLo0Xfdl9gPCZT14NglBSaadCL5ABL8k74UXLJmxhd56i1YPCRruNaOxgXd9i3Ze4z1/QausmP92YdwFAN95tjx7rctFqt5uF8DXLFgQeOrza2ttNvNyBACdxx+AOlqfZMQko+UDgJ/F/n8gUaPlatMJQyJg5wpwyiYS902ebLvwG9h4CpxCxmIJNTW2E9JnL1pks5hK9tHuMNNIC1MK3qQl4WTmQ3QOGp+MdUiEXM3xeAcWQfMVND5pdwihyKG9dJaYafQbYRcytHFjUMfVO3hx+IzOGJYq0u5NvMurvNOjWMw1jGjf4R87tjvjKgAVYAYZS6TlCjvmzbMnIaU1M9NyAX0Pc+tuPOYWlkzz3n7bojt3BuBK410Q2LpunzjRophpEa4yka5yWQHF98vnQ34290SeLI4cuV5IjkHotnPOsXN+/nObvGOHVeBXDDE9lDKmTJzDLFJpuOb3JKLqD2IJkqiTjFVJZbyFrCYilZWW9MYbtPr+QWPSWF2Iz7syl47em8i7BJYBoW1sMfsVnssPcVdlmI5LGFcBYDU9hPbHNNd347C9iuZ3MN8mA2gfjtRUhEFm9H554dOm2ekIwOEGqHV/BDPOUXBAttAQaI74w6USDgkL2hRYhp4tW2wpZwqNWIFmHMJZTzxhDYwhhH+Rw1lABMIT0exhNDyZDR9tLSfJpLOvkL5pkyXzrIL6UzgSqSM1/vL3r9XVfY1VKTgUoDjfZfwLas2+jRCwoPrw4XD4fviW36eFenBHCPKltdWY3C4AzoV8OUxypPi+Xx+K2ATKB0N46DnZNu3BVe8BVWDrSLmP6JxGdedIEMmKY4XAlbnywIxTL8xhUR7zeCf9F6DBS5mjEzlYYl0XaDve3siq4AjaTTMHgyPWpQdvHCFzuLoqd/c0bsZ8GdPn9B2k08yqjtDkUd0aVwGA+BgmbHgQh2yXdtLwmNPRMDlRinzPH5jZiZj33XuqbVfuYsss6LfMxscCEOKB6IMcLdMkAI5YvbEj15Upjc+Pva9rCeQAPscwY2KuDdqM4lvIV9B9BbWh/t21ysYGNz5Xrrpjy9y9+PRIdVx/ro6u0/gghuuvkv12fDvHktd7jVsA3C48/kY5XpM3bLBUnDhpvSKfhxnfDAZeNd/0Wyvz6kBmvm0uO3uEIEYpx1EOJEJkvQiA1vlBfvSeVhOujuopf6So+i5q82cYf0AOpcokCPpiRe3oWuUyx4rO7xApYyNFQXDlY69deXzq6iiNL3d5lYt4kdUzc6btuvlmG7j66i+xp7JA9z5MGFcLcClYPj+y8bE4mXlWhA8w92sKkADo9fllT7D8mjChkFO8Ids+LdnmdZdZZHN1ALwDv5P6AyzxMvC0FeItQbzGK++iQHRAjq0zLAuAUElgdE/AqC+liiIjvg+1o+BS5eMJ0/XxDOqncflyexVntQ3cZkajhbNCoYd6Hn74U/gGO4+1L73ruAY0qQrtWr8xN/enqVpisRGjjRO+AraGxgOY4pTgemgoZuEQv/BBx7f2TAiAdmCLmNTaWmvVJg55aWi85o/Vfl27Mld3rGXoAdRuxuPqufuq76LKlJc1iLcIR2sVeCwITlDeL9U76sxC95R3Aq/rDixlK4Kfz1i1B9F10UWnUOdb1WZa0R5TkFCPa7iOnUAGfeovSkufWjhr1tWcoAVbpzq4yc/Pwxcw27t3d2AF2tqaLD3abXN66i2fvQEFSawGHWWKSASobpzHRKzIWLAEnIsCz+XjAY0v68Uv6WUMqaw8RKgjR3Xctavv7o1NqXrwOd0bGzTGseXx1y7/Jmb+TfZFsni3dE1Now1l1tVZOqunTratteOoE8mCLVvOSKytTf6R2bNj+zua63G3ALzM7wGy4s21a9fwYWin2z5VqqVdXd2+wAKUlpbawoWLbMqUGZacOvKZVx5vVEQsGU2n4jSmsU5vnj/fWllCDjCVOMIcWdLUeA12mu202d3jLN/65VdQX1ZAaQsfiVR94Qu2Hqd0J9ec5wfLTi09XT3XTrxVEGEiW1EAKyofWA0EzV2rTEH1NV6lwbMIdjX5+1gKd9O3exf5TqX33GNT2WQaRlO0/xDCl2I/4+/+a2Rly1MfLIyrD6ChXWVWu9rsTrKc2nY0QXy6+4BD++k6SJF0b+djz0UsFfPzktf3N++bjkOWJSC0fscLHvlYBAEo4Ki3lWVjPdpQy9o9pjU6fkSYbdgIhApkByzZQJtVpujIUarTQgmByNd1J8RvRNNWA/ZzrPmXlpXZ+WwFX0h/RYxNKwRZIhf1jPJK1V83GtxUONF6JuSzvEyzXgS0nymLX79YOqeTiWj2wnXrLIsvkzQWWRkFPTunutpSsGqtOl5G6yWkCro3yL3Mxx6znvJyy2O5OiqAm745srcV1Psgf8ZdADQ4nMFgM7yysnLl/PnzfyxnUEepWAST5mdnZw91dXW9S1lLe0fH85Ge3n8V+fLKnaZp0hMJKQCaimbIMpyKBehCgOoQhhqOXztx7MIAmcbev4hx5KgtBZeqXOQPMAaB3c928DY+NnkcchLZa7j+uussjbl3HRtBjVxfgXDpszJtaIl0gahU14oitJ7zhbU4bBnhmLW18TVSaoal4WPoHTvZ60jEzD9PLOeD09mPPGIRzjScL5FI+3xSdlDznQCLbAno8Jo1NhFBtPXrrY7rBn61RHJMQeM+YQEtr5w1a9a1JSUl+s2/QXqwCYQ/kMjPwjqqqqpWvl1ZOT1rw4azijhUERACyZnogCyuRWRABPsCOm0rwAqUYh0KsSgRBCKKEAxCsIRHIQHzGezpk3fgDnCwNARBKSxBG7EkLzP/am9fFkkWqhyN64a8atpqKppoKTyYOTo/q3/XjrMsGQhjJu2k8S1A2oSJTGOploxl05I3hekuwhiGabuWKSxh0iTLfvnl4L30fm6cZIP3leCrD007Wp6y/LM2BGYfaQ2RPt+412wt2Q8cTqgAMNruDRs29CMEF/Jjz4h+L+iOUlka5m3duvWiV9avnz+zqipaSmWBoCCwHfkSBoEicFQmAHVfm0Q60SuAtHzIz6EsOPzBrDag3d06n4fwJOpopy8mYtDuJEjdCVEVOITFeNr8Ajk49nW/Z5zJs+WLFltl3gzL2N1roY69B8cS7w8MY5VyOB+YsK/WcvFt+OWKZZIm0X8YAdAmWEgCgWVJoCx31y7rZ2Uj/0LvpLZcexIAd3ZRy7lEFRZCH8IOMDWxBLRpZm/+7BidwBMyBTDmgwGA77zrrrts+fLlPznjjDPYG0oOPrLQUSz3Mray/SqtUhCxChIElQVO1WheAtBBlAnW1ADEh+TlN2inYQJWppQPSdoQgAYETuf8IcCPUc5HnIEgrcO5moTzNcS1+7pIn5lJe7FM7FYmWUph2HbMybfM/SOCp2lEUY6ixuXGkLp2jaURJYAa2/CFF/KNcK5pN1SOnM4+kjlEirz5ZvBsvDBLoAOtp24tVqKeqbIWodyKkH4aoS3iPVI0zfHLKaoeU3DYHtPDx/mhSy+77LJvzpw582J+IZyyZ8+e+tWrV79GH2/9GhyKzM5FABYAcomAljBo8PGRy4PXMm0uigzOIAJSlErqXRsCWFqnk0GBX0n8w7XX2lxOBBv4+JOfpQfmfzZ+wRYOjrBUwbZ1ZVWlpSeU2Bl3PGb59ieeGulb5EtbZaZljTSGrNISSxbZSXw1VLkr+F26BFLjUh31LeHltM96EDztSbRAeLt8BkUEr4NUn6zNRCjPZqk6hU/ad+HbSEhONaum33lzRrql5OjDySQAGrUsmqx9GXEbsZp4MDyNAnNxHvGzDPwi0hxgjToyVTFeIOLzqiMynGbKQig6B07ESXvXENd/7WtWgseOIB48m+B/E9h+5l2dV+jgSiJYzBI19uAbNvsZFmEE9SdCA3M9vdzCN96ApSiwFJzSEIdbut/V0ma1q35v2c+8GHwSp34lhAeuuSYguxaL1ALR/fSh+imk5Zj8mUR9pVSA49dG2VYsQRp7AsWsBCZVVzejEKctGYMXj//VcMKngDEjlDKKeMX3hMsChzf4AebDCEMhAGlpOId4DZUvhOASPSTgZCHcVOGuRY40Rp1IGGSSFSUI7rob7SvWNwBonUy+LICIV9SBlaYoRZ1GNjXwfUF+R9Cf+lBQe4XEorxc654xzQazswJro3sK6Zxwzph7qrUgANJ81U/U8pUVgRzOWfgJYZaJaZCdz7STh7lPYkXQRvkmpq13+HlcLumFfNtQXl1t3UR+YZXLu36dpr5N/EDhZBOAox48wlBPZcXtxEefxTpA8GIJBemVpIcIhIRBwQmDrp32yfSrXGDoyx59GCoy2JjqZiq6fe7cuSkcU/8z/4bOtHOpVB+tRBGQjCw+AB19Xm0oitS0dRss6+nnrWvRfAsl81sF5nrN9ylNzZby4stWS50DRPUdRcim8GGqjrcHIL0H096PY7gPLa9Ay7VKCCOUn0AQclmKRvlYJoTPAPGB9Rjt80aA+MUMvrOh+KiDnv1YhucQCKxAIBC8YCAQTAMl0nRZBwX38poelFesUPze92wuXyaxEtG/p1nEsrSF/0zzbkVFRbm+CtI0UAg5JRATxTSX3XGHhTiUim9Pc5ksi8qcgJAN+u4jleRWEfuZWnrQaH2R3EoM4yDy4xLLop8pOKb5COQUfA/9KCXEdwtaEeh5WTONW1FB70X+ulkf8EepH1kLELz1Ef5cMjJdMFME4YHnEQi0/jwim5HBv4dZBGiBQ+msg8CcwjT97oED3ZBfwI5kAauAX2ENvsiexT04hf92Ol8O6eRSO5V89989u69vTUpFxTL14oRIeQmZlnEq07SjaycgIq8X4am75BILaS7n+jSRrcjSLpm2h7RbyC6k/AM5h2pLQWOMFypdi3zabOM9Xif7gcLHVgDGonBxnP+gexIIpoDzADNwKEm1UpOv3Va1YcPbpyxYcJm0HIdvKcT/cNOmTTvZobyDfYom4ikcW0/aXVMzuHD79tUQvJRnQyLGRU0vjiylChICRd3Lx9xfwSojWb9tgOwwFkSaLaKl5RJKJzR63lkR177SUa1X3XryP5t5DE6g2vl/H14cdSgBYg5gn/MTNKnwpptWfPKTnyzRnC+Tv3v37o3kb7rllls2jAKWect3vnPHuS0tF066665yR3Y8QY5E1Xfl0n4FkadpQsIgol1w9eJT3dO1+nCk0w47wHaA8kdI755+DOTzXNCuUh9GEYAMuWvi5Ku33nrrf/LPqtL0AxDN/fgC9UwJrxAfZVpY9/rGjf8xsaLiU1PuvDNdjp+0NF4QJABjhUANK6pevFZzGQRHvC7GEK7ZoJX7MvPv0MZ/k2+CePmRxxzUnw+HR+Cfbrjhhp9ccsklqfx/w0AI9PWSzgYQAn4Q3pXZwVfE5b/8ZeD5i1BFaakLY4VA5U4AnDbHC40TAJ7TjNDiCCf/v8RWCN9PetyCF4C/DuWlixcv/nsswdXsAqZxcBUcWunbhV27d/cOPv9862c2bVrPOcMi/IcSZwkkCE7bnRVQqqByBdUl3wcJ2hJoJO4k6qRUvwraRdpyvAmnzUOCF4BD4DjixSe4O5WDq+kcUolL+WpPEbWBuP81nEoIXUxMImag3fhkOmYaIZy0E7K3cZmgMgXqJaD9O8lqSd/KGl57VD54BDwCHgGPgEfAI+AR8Ah4BDwCHgGPgEfAI+AR8Ah4BDwCHgGPgEfAI+AR8Ah4BDwCHgGPgEfAI+AR8Ah4BDwCHgGPgEfAI+AR8Ah4BDwCHgGPgEfAI+AR8Ah4BDwCHgGPgEfAI+AR8Ah4BDwCHgGPgEfAI+AR8Ah4BDwCHoFRBP4Pv+L+m0xkALUAAAAASUVORK5CYII=;" parent="1" vertex="1">
          <mxGeometry y="270" width="140" height="140" as="geometry" />
        </mxCell>
        <mxCell id="FrmI1B2-mLSVceSW3Au9-5" style="edgeStyle=orthogonalEdgeStyle;rounded=0;orthogonalLoop=1;jettySize=auto;html=1;exitX=1;exitY=0.5;exitDx=0;exitDy=0;entryX=0;entryY=0.5;entryDx=0;entryDy=0;" parent="1" source="55TDIFbMitZlCRsvxrh8-4" target="55TDIFbMitZlCRsvxrh8-7" edge="1">
          <mxGeometry relative="1" as="geometry" />
        </mxCell>
        <mxCell id="55TDIFbMitZlCRsvxrh8-4" value="" style="shape=image;verticalLabelPosition=bottom;labelBackgroundColor=#ffffff;verticalAlign=top;aspect=fixed;imageAspect=0;image=data:image/png,iVBORw0KGgoAAAANSUhEUgAAAIAAAACACAYAAADDPmHLAAAACXBIWXMAAAsTAAALEwEAmpwYAAAAD3RFWHRGaWxlADx1bnRpdGxlZD6Vs9eWAAAAGHRFWHREYXRlADIwMTkvMDgvMTMgMTc6NTY6MDnuHBLwAAAAEHRFWHRUaW1lADAwOjAwOjA0OjAwFKaBAwAAAAl0RVh0RnJhbWUAMDk2jvc7yAAAAA10RVh0Q2FtZXJhAENhbWVyYWj/7+kAAAALdEVYdFNjZW5lAFNjZW5l5SFdlgAAABN0RVh0UmVuZGVyVGltZQAwMDowMC4yNeJryEwAAByDSURBVHgB7Zx5cF3FlcaP9PSenvbdsiRblmy84N0GDGEPi4PDEhKGkIBTMyRDhUlSgT+y1VRlaphUhpok4yKTuEgGKiQkMyxmCZCwmc0GEgM2xoDlRbItL7JWa9+Xp/l9V2rnWWDHGEc2THdVq/v27dvd9/vOOX26+z6Z+eAR8Ah4BDwCHgGPgEfAI+AR8Ah4BDwCHgGPgEfAI+AR8Ah4BDwCHgGPgEfAI+AR8Ah4BDwCHgGPgEfAI+AR8Ah4BDwCHgGPgEfAI+AR8Ah4BDwCHgGPgEfAI+AR8Ah4BDwCHgGPgEfAI+AR8Ah4BDwCHgGPgEfAI+AR8Ah4BDwCHgGPgEfAI+AR8Ah4BDwCHgGPgEfAI+AR8Ah4BDwCHgGPgEfAI+AR8AicGAQSTky3x6/Xhx56KD81NbUgJyfnc21tbfMHBwfvu+KKK35//Hr4eLf0kRKAzZs3R/v6+rKHhoaWDA8Pz4eaM2Ox2DzSgnA4nEqZNTU19ba2tv4hKyvrgWXLlj308abvw7/dSS0Ar7/+er7IJS4lTobgZT09Pdnp6enF8a+ekPCX1xgYGDCExPbt27f3xRdfnH/33Xe3xtf1+UMRSDr08sRdQXYyvecQlxAD7SadB7kFiYmJgXZzbSkpKeYIx9wr3wThjUlJSc/s3bv3M52dneUSAtK3PPlC7MjhhAlAnHZ/jiGeRSyHzBzie7SbsoB0iO3FChxob2+vCYVC87EG34lGo488+OCDLStXruxesWJFDYLw40gkYpQ/eeRX93eFwLgKwKpVq75SVFQ0F3JOgchg7o7Xbg0ojmxdNkF2I/Wfraur21tQUPDUAUJNTc2yKVOm3IPjN+n888+vUUWFdevWrSwrK9syefLkMO2uHSl9799+M1mbTGIuk0cicTrxL/OI2RD3tg+bdQLQ/ve28PEpiX/pv+lb3X777cmZmZmv4ZwtyM/PN8gzHLegTzlv/f39PWh4Cqa7D9P+w+bm5o3FxcXvLF26tJFK3fGDe+CBB/K4fiM3Nzc7mpW1+LwlS6rj78fnO82ikJjNiy5JHJ1ayJcTRb6mnBhpavwzykN+F4n63UC+jfQJ0pdo66DAUfaRD7z7+AXM9H1o+Bfw3A3y+nDmdpA+iiCsq62treru7v48pv1WtHjhmWeeuedII3v0/vv/JzU9/frchISfn3755StG6w43XXVVVlNZWXpPNJo190c/WsgL3kDMDpkdMrUcqe3D3UMAGogvc/9R4ku0+ZEXhnGdAgCtUiZeob6+/pXrr7/+arIo6UhAQF7F3N92oKXl65R8V6U9aLAIJC4hTkWLJ5NO6//pT89LzM62hI6Ob1DnH2qXLw8PpqYm9KemWqS3d3j6unVD2JdAsyHteIUJ9H8N7V0TQxgGEALy/xYx23y8OhjvdsZVADD1+6X9mHtjbpeJPUi+XvyX5eUbvlFfv7svFvvH2u9/vyLvBz+YRPH1EgAGeogGDx44YNtOP93qysos8sUvpsvxm/bKKzZl1SoLtbQEE7omcgWel0k/ZJJX2dEEPTc2jrY3gfTzfSxR20eswm9wKh4+mjZPpjrjKgBs4PyGJdsBBOBqBOGxeCCYbAuTPv3pGw/cfHPWYFlZds4zz/xag4snCq2zFuKG226zgRkzbID1ftb27TZ73z5LRbBSf/e7gKz4dh15KnNtjRJ48Dq+vvLuGfXn8irXdd+ppzb25eWl9hQW9uCxqjgBwb6AeovrGhquKnj55RVMDZt046MQHCYnbKyYgCJM9VcYwFcgvGzsgNx146xZduDKK63rjDOsOyvLipqaLOuBByzl8ceDsUOM7Tj3XGvGwcQkW1Zzs2W1ttqEigpLe+edoI7acoS6dl3qykWyi/0TJlgsN9dqTjvN6rKyeruys0M9ZWXPDUYiSbGEBK0k9NhIGB5OiPb3d5z+yiv5xffeu4K550F362RO3fufkDE2s/yC9AchTM5aoJFoT5DGD6z+4out8sYbLbmgwLIhNu+ppyzp3nuDtZoGvpN7b5xyijUlJlpycrJlZWTYEBYhNjRkkfZ2K+rosFQ2h0qxFMV/+pNFq6sDkh17mioc6SrrXbbMOsrLrR4fY4CVSl80as3E3qQkG+zu7hqORutCqamNCeFwHz7NSDOsZLAIiQmx2MCCt98uLH/yyU0Z27b9GJ8hsAbcLaLpJb1ma1LMTprdyXicGd/4BRbX+ZC9GjVaKPDjBUBCoOimgAMXXGBhyAih9cOvvmo4XyOaDCnbv/xl2zpnjg1CVAvCoaUljqSxmjD5G9oVTIQ41v6W2d1t5ViFyXv2WPGf/2zhqqpAiCQA7fSx9/LLrRknEmfSCtrarKunJxAMbLwlT5liicReBKqTfjoYy0As1hULh+sSo9HGRAlDYqKEIcGoP3XPnsJZL7wwkP3SS/8O6blYue8N4sDuNvvBXLN/od5JEU6YALDGuxKCHxfRaElAqAajvMoALIgkAeGAZ4ojCAdzsW1futS2MDUkimy0nWWksRMI/sOBAOBzGBtCloZVKO7qshTIZ5PBqgsLbd7u3bZgxYqgzbduucVq5s61ZKaPfgQmBfInNjQEauoASqOPUF5eIGAx9jB609LYQEiwfoSkHYe0A6cWgajDBHWEwuF2xqQpoWXJCy8sTLv//jxUPo3YX2+2/DNmq/ReJ0MQ1ick3Gr2LUg+TZ074h3YIllaKcLxsoOovMqcuX7rS1+ytzH7SRA8BKk6ABLZWg0oVZQViGANMiE/t7HRujQtQFoKglENgZMpT2C6ePXSS20IrVdbIQQon1VERm+vtSI47CdYK5Gliw10dtogFiCGcAzynNGG2k/HT8jOz49kZGTkZmZkTLTBwfyB3t5wx8BAzvbi4sSuqVMnFNCmNTe/dAGWgNc4aYKs7LiHnWaXYvavFZlOAkW+EwBNCYoiXakEwgkFWYvhCyRAehoEiiCRrblfUVaggzlfUwG7joEvoHqYYRuQ1451YJ/AcjlU2nrWWbbwj38Mphq1rykjQp1kyO6lzRpNB1xrCshVH9zXPkYnbferHfqSkB0UNgRC12nZ2WmxwcG0bgSmleminhXLIP3NePrpucObN89mFBV6j5MhOPzHbSzvmuWh1ffRcalAlwQqaiAy/y44IQiIoTD+OgHg819/3cr37rUciGhBA/tECkLRjvkWSYoiIwnSSijrl/aPNq6+0rECPWh7Ef5AAv5FYxE+Gm0lUxaDtG7ysgA0ZDHI1zIznfY1nma0n7W/9SFI8jE01ehkUqmESFOQngusD9NFDgKbXFxs7fPmpSdFIpev2LJl721mW0aHc0KTcbcALPvOwYmbK0dO23TSejfvK6+o4IhX6mJwgz8Hidy2zUL4AGeuXm2DaHvt1Km2FzKbEQZZl16mBU6FjLNk60YY2tBCpUmQlgt5qK5tZ1k559lnrREHr4U5fhgC2yFSWp9E7IdIjW+QuhIcHD1LwDJI60W6BEBWR8Imq6OoI2v5IvHWIUzbho9RW1palpOa+ruB3/72CZrbSpuVvPOLxBquxz2MuwBA3kwRqlMWR6xL5fgFIJM6QRDZuh8fdE9lWvvDgmU+91zwXCFlc1gRtM2ebTXl5VaDZZCW90JqI6TUElMkFFxPYUnI50VWCyl9aPoilofyBWLUiaHhYRxGgSMBUH8y+8Pkw/SXh/AM0ba0XfdEtiyOpiD5IGlMBRIQCUswdu4phBGWdGJKQ0MK7/n5kdLg1iFnDJSPmzCMuwDQoab2ABhlOoiyBjpuyyKyRg7IdEKhVELgtF6gKUor+9Gq1P37gwal8YEl2bzZCogTuJYwtE+fbjGIKSgpsRAO3Ly1ay1aX29h9gLUduSzn7VtZ59t565cadMQmh1sL0dZJaTh3UvDNT6tMERmP+Y8Af8gjesi4iD1RLo0Xfdl9gPCZT14NglBSaadCL5ABL8k74UXLJmxhd56i1YPCRruNaOxgXd9i3Ze4z1/QausmP92YdwFAN95tjx7rctFqt5uF8DXLFgQeOrza2ttNvNyBACdxx+AOlqfZMQko+UDgJ/F/n8gUaPlatMJQyJg5wpwyiYS902ebLvwG9h4CpxCxmIJNTW2E9JnL1pks5hK9tHuMNNIC1MK3qQl4WTmQ3QOGp+MdUiEXM3xeAcWQfMVND5pdwihyKG9dJaYafQbYRcytHFjUMfVO3hx+IzOGJYq0u5NvMurvNOjWMw1jGjf4R87tjvjKgAVYAYZS6TlCjvmzbMnIaU1M9NyAX0Pc+tuPOYWlkzz3n7bojt3BuBK410Q2LpunzjRophpEa4yka5yWQHF98vnQ34290SeLI4cuV5IjkHotnPOsXN+/nObvGOHVeBXDDE9lDKmTJzDLFJpuOb3JKLqD2IJkqiTjFVJZbyFrCYilZWW9MYbtPr+QWPSWF2Iz7syl47em8i7BJYBoW1sMfsVnssPcVdlmI5LGFcBYDU9hPbHNNd347C9iuZ3MN8mA2gfjtRUhEFm9H554dOm2ekIwOEGqHV/BDPOUXBAttAQaI74w6USDgkL2hRYhp4tW2wpZwqNWIFmHMJZTzxhDYwhhH+Rw1lABMIT0exhNDyZDR9tLSfJpLOvkL5pkyXzrIL6UzgSqSM1/vL3r9XVfY1VKTgUoDjfZfwLas2+jRCwoPrw4XD4fviW36eFenBHCPKltdWY3C4AzoV8OUxypPi+Xx+K2ATKB0N46DnZNu3BVe8BVWDrSLmP6JxGdedIEMmKY4XAlbnywIxTL8xhUR7zeCf9F6DBS5mjEzlYYl0XaDve3siq4AjaTTMHgyPWpQdvHCFzuLoqd/c0bsZ8GdPn9B2k08yqjtDkUd0aVwGA+BgmbHgQh2yXdtLwmNPRMDlRinzPH5jZiZj33XuqbVfuYsss6LfMxscCEOKB6IMcLdMkAI5YvbEj15Upjc+Pva9rCeQAPscwY2KuDdqM4lvIV9B9BbWh/t21ysYGNz5Xrrpjy9y9+PRIdVx/ro6u0/gghuuvkv12fDvHktd7jVsA3C48/kY5XpM3bLBUnDhpvSKfhxnfDAZeNd/0Wyvz6kBmvm0uO3uEIEYpx1EOJEJkvQiA1vlBfvSeVhOujuopf6So+i5q82cYf0AOpcokCPpiRe3oWuUyx4rO7xApYyNFQXDlY69deXzq6iiNL3d5lYt4kdUzc6btuvlmG7j66i+xp7JA9z5MGFcLcClYPj+y8bE4mXlWhA8w92sKkADo9fllT7D8mjChkFO8Ids+LdnmdZdZZHN1ALwDv5P6AyzxMvC0FeItQbzGK++iQHRAjq0zLAuAUElgdE/AqC+liiIjvg+1o+BS5eMJ0/XxDOqncflyexVntQ3cZkajhbNCoYd6Hn74U/gGO4+1L73ruAY0qQrtWr8xN/enqVpisRGjjRO+AraGxgOY4pTgemgoZuEQv/BBx7f2TAiAdmCLmNTaWmvVJg55aWi85o/Vfl27Mld3rGXoAdRuxuPqufuq76LKlJc1iLcIR2sVeCwITlDeL9U76sxC95R3Aq/rDixlK4Kfz1i1B9F10UWnUOdb1WZa0R5TkFCPa7iOnUAGfeovSkufWjhr1tWcoAVbpzq4yc/Pwxcw27t3d2AF2tqaLD3abXN66i2fvQEFSawGHWWKSASobpzHRKzIWLAEnIsCz+XjAY0v68Uv6WUMqaw8RKgjR3Xctavv7o1NqXrwOd0bGzTGseXx1y7/Jmb+TfZFsni3dE1Now1l1tVZOqunTratteOoE8mCLVvOSKytTf6R2bNj+zua63G3ALzM7wGy4s21a9fwYWin2z5VqqVdXd2+wAKUlpbawoWLbMqUGZacOvKZVx5vVEQsGU2n4jSmsU5vnj/fWllCDjCVOMIcWdLUeA12mu202d3jLN/65VdQX1ZAaQsfiVR94Qu2Hqd0J9ec5wfLTi09XT3XTrxVEGEiW1EAKyofWA0EzV2rTEH1NV6lwbMIdjX5+1gKd9O3exf5TqX33GNT2WQaRlO0/xDCl2I/4+/+a2Rly1MfLIyrD6ChXWVWu9rsTrKc2nY0QXy6+4BD++k6SJF0b+djz0UsFfPzktf3N++bjkOWJSC0fscLHvlYBAEo4Ki3lWVjPdpQy9o9pjU6fkSYbdgIhApkByzZQJtVpujIUarTQgmByNd1J8RvRNNWA/ZzrPmXlpXZ+WwFX0h/RYxNKwRZIhf1jPJK1V83GtxUONF6JuSzvEyzXgS0nymLX79YOqeTiWj2wnXrLIsvkzQWWRkFPTunutpSsGqtOl5G6yWkCro3yL3Mxx6znvJyy2O5OiqAm745srcV1Psgf8ZdADQ4nMFgM7yysnLl/PnzfyxnUEepWAST5mdnZw91dXW9S1lLe0fH85Ge3n8V+fLKnaZp0hMJKQCaimbIMpyKBehCgOoQhhqOXztx7MIAmcbev4hx5KgtBZeqXOQPMAaB3c928DY+NnkcchLZa7j+uussjbl3HRtBjVxfgXDpszJtaIl0gahU14oitJ7zhbU4bBnhmLW18TVSaoal4WPoHTvZ60jEzD9PLOeD09mPPGIRzjScL5FI+3xSdlDznQCLbAno8Jo1NhFBtPXrrY7rBn61RHJMQeM+YQEtr5w1a9a1JSUl+s2/QXqwCYQ/kMjPwjqqqqpWvl1ZOT1rw4azijhUERACyZnogCyuRWRABPsCOm0rwAqUYh0KsSgRBCKKEAxCsIRHIQHzGezpk3fgDnCwNARBKSxBG7EkLzP/am9fFkkWqhyN64a8atpqKppoKTyYOTo/q3/XjrMsGQhjJu2k8S1A2oSJTGOploxl05I3hekuwhiGabuWKSxh0iTLfvnl4L30fm6cZIP3leCrD007Wp6y/LM2BGYfaQ2RPt+412wt2Q8cTqgAMNruDRs29CMEF/Jjz4h+L+iOUlka5m3duvWiV9avnz+zqipaSmWBoCCwHfkSBoEicFQmAHVfm0Q60SuAtHzIz6EsOPzBrDag3d06n4fwJOpopy8mYtDuJEjdCVEVOITFeNr8Ajk49nW/Z5zJs+WLFltl3gzL2N1roY69B8cS7w8MY5VyOB+YsK/WcvFt+OWKZZIm0X8YAdAmWEgCgWVJoCx31y7rZ2Uj/0LvpLZcexIAd3ZRy7lEFRZCH8IOMDWxBLRpZm/+7BidwBMyBTDmgwGA77zrrrts+fLlPznjjDPYG0oOPrLQUSz3Mray/SqtUhCxChIElQVO1WheAtBBlAnW1ADEh+TlN2inYQJWppQPSdoQgAYETuf8IcCPUc5HnIEgrcO5moTzNcS1+7pIn5lJe7FM7FYmWUph2HbMybfM/SOCp2lEUY6ixuXGkLp2jaURJYAa2/CFF/KNcK5pN1SOnM4+kjlEirz5ZvBsvDBLoAOtp24tVqKeqbIWodyKkH4aoS3iPVI0zfHLKaoeU3DYHtPDx/mhSy+77LJvzpw582J+IZyyZ8+e+tWrV79GH2/9GhyKzM5FABYAcomAljBo8PGRy4PXMm0uigzOIAJSlErqXRsCWFqnk0GBX0n8w7XX2lxOBBv4+JOfpQfmfzZ+wRYOjrBUwbZ1ZVWlpSeU2Bl3PGb59ieeGulb5EtbZaZljTSGrNISSxbZSXw1VLkr+F26BFLjUh31LeHltM96EDztSbRAeLt8BkUEr4NUn6zNRCjPZqk6hU/ad+HbSEhONaum33lzRrql5OjDySQAGrUsmqx9GXEbsZp4MDyNAnNxHvGzDPwi0hxgjToyVTFeIOLzqiMynGbKQig6B07ESXvXENd/7WtWgseOIB48m+B/E9h+5l2dV+jgSiJYzBI19uAbNvsZFmEE9SdCA3M9vdzCN96ApSiwFJzSEIdbut/V0ma1q35v2c+8GHwSp34lhAeuuSYguxaL1ALR/fSh+imk5Zj8mUR9pVSA49dG2VYsQRp7AsWsBCZVVzejEKctGYMXj//VcMKngDEjlDKKeMX3hMsChzf4AebDCEMhAGlpOId4DZUvhOASPSTgZCHcVOGuRY40Rp1IGGSSFSUI7rob7SvWNwBonUy+LICIV9SBlaYoRZ1GNjXwfUF+R9Cf+lBQe4XEorxc654xzQazswJro3sK6Zxwzph7qrUgANJ81U/U8pUVgRzOWfgJYZaJaZCdz7STh7lPYkXQRvkmpq13+HlcLumFfNtQXl1t3UR+YZXLu36dpr5N/EDhZBOAox48wlBPZcXtxEefxTpA8GIJBemVpIcIhIRBwQmDrp32yfSrXGDoyx59GCoy2JjqZiq6fe7cuSkcU/8z/4bOtHOpVB+tRBGQjCw+AB19Xm0oitS0dRss6+nnrWvRfAsl81sF5nrN9ylNzZby4stWS50DRPUdRcim8GGqjrcHIL0H096PY7gPLa9Ay7VKCCOUn0AQclmKRvlYJoTPAPGB9Rjt80aA+MUMvrOh+KiDnv1YhucQCKxAIBC8YCAQTAMl0nRZBwX38poelFesUPze92wuXyaxEtG/p1nEsrSF/0zzbkVFRbm+CtI0UAg5JRATxTSX3XGHhTiUim9Pc5ksi8qcgJAN+u4jleRWEfuZWnrQaH2R3EoM4yDy4xLLop8pOKb5COQUfA/9KCXEdwtaEeh5WTONW1FB70X+ulkf8EepH1kLELz1Ef5cMjJdMFME4YHnEQi0/jwim5HBv4dZBGiBQ+msg8CcwjT97oED3ZBfwI5kAauAX2ENvsiexT04hf92Ol8O6eRSO5V89989u69vTUpFxTL14oRIeQmZlnEq07SjaycgIq8X4am75BILaS7n+jSRrcjSLpm2h7RbyC6k/AM5h2pLQWOMFypdi3zabOM9Xif7gcLHVgDGonBxnP+gexIIpoDzADNwKEm1UpOv3Va1YcPbpyxYcJm0HIdvKcT/cNOmTTvZobyDfYom4ikcW0/aXVMzuHD79tUQvJRnQyLGRU0vjiylChICRd3Lx9xfwSojWb9tgOwwFkSaLaKl5RJKJzR63lkR177SUa1X3XryP5t5DE6g2vl/H14cdSgBYg5gn/MTNKnwpptWfPKTnyzRnC+Tv3v37o3kb7rllls2jAKWect3vnPHuS0tF066665yR3Y8QY5E1Xfl0n4FkadpQsIgol1w9eJT3dO1+nCk0w47wHaA8kdI755+DOTzXNCuUh9GEYAMuWvi5Ku33nrrf/LPqtL0AxDN/fgC9UwJrxAfZVpY9/rGjf8xsaLiU1PuvDNdjp+0NF4QJABjhUANK6pevFZzGQRHvC7GEK7ZoJX7MvPv0MZ/k2+CePmRxxzUnw+HR+Cfbrjhhp9ccsklqfx/w0AI9PWSzgYQAn4Q3pXZwVfE5b/8ZeD5i1BFaakLY4VA5U4AnDbHC40TAJ7TjNDiCCf/v8RWCN9PetyCF4C/DuWlixcv/nsswdXsAqZxcBUcWunbhV27d/cOPv9862c2bVrPOcMi/IcSZwkkCE7bnRVQqqByBdUl3wcJ2hJoJO4k6qRUvwraRdpyvAmnzUOCF4BD4DjixSe4O5WDq+kcUolL+WpPEbWBuP81nEoIXUxMImag3fhkOmYaIZy0E7K3cZmgMgXqJaD9O8lqSd/KGl57VD54BDwCHgGPgEfAI+AR8Ah4BDwCHgGPgEfAI+AR8Ah4BDwCHgGPgEfAI+AR8Ah4BDwCHgGPgEfAI+AR8Ah4BDwCHgGPgEfAI+AR8Ah4BDwCHgGPgEfAI+AR8Ah4BDwCHgGPgEfAI+AR8Ah4BDwCHgGPgEfAI+AR8Ah4BDwCHoFRBP4Pv+L+m0xkALUAAAAASUVORK5CYII=;" parent="1" vertex="1">
          <mxGeometry y="140" width="140" height="140" as="geometry" />
        </mxCell>
        <mxCell id="FrmI1B2-mLSVceSW3Au9-7" style="edgeStyle=orthogonalEdgeStyle;rounded=0;orthogonalLoop=1;jettySize=auto;html=1;exitX=1;exitY=0.5;exitDx=0;exitDy=0;" parent="1" source="55TDIFbMitZlCRsvxrh8-5" edge="1">
          <mxGeometry relative="1" as="geometry">
            <mxPoint x="320" y="80" as="targetPoint" />
          </mxGeometry>
        </mxCell>
        <mxCell id="55TDIFbMitZlCRsvxrh8-5" value="KeypointNet3" style="rounded=1;whiteSpace=wrap;html=1;fillColor=#ffe6cc;strokeColor=#d79b00;" parent="1" vertex="1">
          <mxGeometry x="160" y="50" width="120" height="60" as="geometry" />
        </mxCell>
        <mxCell id="FrmI1B2-mLSVceSW3Au9-8" style="edgeStyle=orthogonalEdgeStyle;rounded=0;orthogonalLoop=1;jettySize=auto;html=1;exitX=1;exitY=0.5;exitDx=0;exitDy=0;" parent="1" source="55TDIFbMitZlCRsvxrh8-7" edge="1">
          <mxGeometry relative="1" as="geometry">
            <mxPoint x="320" y="210" as="targetPoint" />
          </mxGeometry>
        </mxCell>
        <mxCell id="55TDIFbMitZlCRsvxrh8-7" value="KeypointNet3" style="rounded=1;whiteSpace=wrap;html=1;fillColor=#ffe6cc;strokeColor=#d79b00;" parent="1" vertex="1">
          <mxGeometry x="160" y="180" width="120" height="60" as="geometry" />
        </mxCell>
        <mxCell id="FrmI1B2-mLSVceSW3Au9-9" style="edgeStyle=orthogonalEdgeStyle;rounded=0;orthogonalLoop=1;jettySize=auto;html=1;exitX=1;exitY=0.5;exitDx=0;exitDy=0;" parent="1" source="55TDIFbMitZlCRsvxrh8-8" edge="1">
          <mxGeometry relative="1" as="geometry">
            <mxPoint x="320" y="340" as="targetPoint" />
          </mxGeometry>
        </mxCell>
        <mxCell id="55TDIFbMitZlCRsvxrh8-8" value="KeypointNet3" style="rounded=1;whiteSpace=wrap;html=1;fillColor=#ffe6cc;strokeColor=#d79b00;" parent="1" vertex="1">
          <mxGeometry x="160" y="310" width="120" height="60" as="geometry" />
        </mxCell>
        <mxCell id="55TDIFbMitZlCRsvxrh8-9" value="&lt;font face=&quot;Times New Roman&quot;&gt;&lt;i&gt;&lt;font style=&quot;font-size: 20px&quot;&gt;K&lt;sub&gt;1&lt;/sub&gt; = &lt;/font&gt;&lt;/i&gt;&lt;/font&gt;" style="text;html=1;resizable=0;points=[];autosize=1;align=left;verticalAlign=top;spacingTop=-4;" parent="1" vertex="1">
          <mxGeometry x="331" y="69" width="60" height="20" as="geometry" />
        </mxCell>
        <mxCell id="55TDIFbMitZlCRsvxrh8-11" value="&lt;div style=&quot;font-size: 15px&quot;&gt;&lt;i&gt;&lt;font style=&quot;font-size: 15px&quot; face=&quot;Times New Roman&quot;&gt;&amp;nbsp;u&lt;sub&gt;1&lt;/sub&gt;&amp;nbsp; v&lt;sub&gt;1 &amp;nbsp;&lt;/sub&gt; z&lt;sub&gt;1&lt;/sub&gt;&lt;/font&gt;&lt;/i&gt;&lt;br&gt;&lt;div style=&quot;font-size: 15px&quot;&gt;&lt;i&gt;&lt;font style=&quot;font-size: 15px&quot; face=&quot;Times New Roman&quot;&gt;&amp;nbsp;u&lt;sub&gt;2&lt;/sub&gt;&amp;nbsp; v&lt;sub&gt;2 &amp;nbsp;&lt;/sub&gt; z&lt;sub&gt;2&lt;/sub&gt;&lt;/font&gt;&lt;/i&gt;&lt;/div&gt;&lt;div style=&quot;font-size: 15px&quot;&gt;&lt;i&gt;&lt;font style=&quot;font-size: 15px&quot; face=&quot;Times New Roman&quot;&gt;&amp;nbsp;&amp;nbsp;&amp;nbsp;&amp;nbsp;&amp;nbsp; ...&lt;/font&gt;&lt;/i&gt;&lt;br&gt;&lt;div style=&quot;font-size: 15px&quot;&gt;&lt;i&gt;&lt;font style=&quot;font-size: 15px&quot; face=&quot;Times New Roman&quot;&gt;&amp;nbsp;u&lt;sub&gt;N&lt;/sub&gt;&amp;nbsp; v&lt;sub&gt;N &amp;nbsp;&lt;/sub&gt; z&lt;sub&gt;N&lt;/sub&gt;&lt;/font&gt;&lt;/i&gt;&lt;/div&gt;&lt;/div&gt;&lt;/div&gt;" style="strokeWidth=2;html=1;shape=mxgraph.flowchart.annotation_1;align=left;pointerEvents=1;" parent="1" vertex="1">
          <mxGeometry x="385" y="39" width="6" height="79" as="geometry" />
        </mxCell>
        <mxCell id="55TDIFbMitZlCRsvxrh8-41" style="edgeStyle=orthogonalEdgeStyle;rounded=0;orthogonalLoop=1;jettySize=auto;html=1;exitX=0;exitY=0.5;exitDx=0;exitDy=0;exitPerimeter=0;entryX=0.337;entryY=-0.133;entryDx=0;entryDy=0;entryPerimeter=0;" parent="1" source="55TDIFbMitZlCRsvxrh8-23" target="55TDIFbMitZlCRsvxrh8-33" edge="1">
          <mxGeometry relative="1" as="geometry" />
        </mxCell>
        <mxCell id="55TDIFbMitZlCRsvxrh8-53" style="edgeStyle=orthogonalEdgeStyle;rounded=0;orthogonalLoop=1;jettySize=auto;html=1;exitX=0;exitY=0.5;exitDx=0;exitDy=0;exitPerimeter=0;entryX=0.5;entryY=0;entryDx=0;entryDy=0;" parent="1" source="55TDIFbMitZlCRsvxrh8-23" target="55TDIFbMitZlCRsvxrh8-51" edge="1">
          <mxGeometry relative="1" as="geometry" />
        </mxCell>
        <mxCell id="FrmI1B2-mLSVceSW3Au9-10" style="edgeStyle=orthogonalEdgeStyle;rounded=0;orthogonalLoop=1;jettySize=auto;html=1;exitX=0;exitY=0.5;exitDx=0;exitDy=0;exitPerimeter=0;" parent="1" source="55TDIFbMitZlCRsvxrh8-23" target="55TDIFbMitZlCRsvxrh8-49" edge="1">
          <mxGeometry relative="1" as="geometry" />
        </mxCell>
        <mxCell id="FrmI1B2-mLSVceSW3Au9-13" style="edgeStyle=orthogonalEdgeStyle;rounded=0;orthogonalLoop=1;jettySize=auto;html=1;exitX=0;exitY=0.5;exitDx=0;exitDy=0;exitPerimeter=0;" parent="1" source="55TDIFbMitZlCRsvxrh8-23" target="55TDIFbMitZlCRsvxrh8-31" edge="1">
          <mxGeometry relative="1" as="geometry" />
        </mxCell>
        <mxCell id="55TDIFbMitZlCRsvxrh8-23" value="" style="strokeWidth=2;html=1;shape=mxgraph.flowchart.annotation_1;align=left;pointerEvents=1;rotation=-180;" parent="1" vertex="1">
          <mxGeometry x="462" y="39" width="8" height="79" as="geometry" />
        </mxCell>
        <mxCell id="55TDIFbMitZlCRsvxrh8-24" value="&lt;font face=&quot;Times New Roman&quot;&gt;&lt;i&gt;&lt;font style=&quot;font-size: 20px&quot;&gt;K&lt;sub&gt;2&lt;/sub&gt; = &lt;/font&gt;&lt;/i&gt;&lt;/font&gt;" style="text;html=1;resizable=0;points=[];autosize=1;align=left;verticalAlign=top;spacingTop=-4;" parent="1" vertex="1">
          <mxGeometry x="334" y="200" width="60" height="20" as="geometry" />
        </mxCell>
        <mxCell id="55TDIFbMitZlCRsvxrh8-25" value="&lt;div style=&quot;font-size: 15px&quot;&gt;&lt;i&gt;&lt;font style=&quot;font-size: 15px&quot; face=&quot;Times New Roman&quot;&gt;&amp;nbsp;u&lt;sub&gt;1&lt;/sub&gt;&amp;nbsp; v&lt;sub&gt;1 &amp;nbsp;&lt;/sub&gt; z&lt;sub&gt;1&lt;/sub&gt;&lt;/font&gt;&lt;/i&gt;&lt;br&gt;&lt;div style=&quot;font-size: 15px&quot;&gt;&lt;i&gt;&lt;font style=&quot;font-size: 15px&quot; face=&quot;Times New Roman&quot;&gt;&amp;nbsp;u&lt;sub&gt;2&lt;/sub&gt;&amp;nbsp; v&lt;sub&gt;2 &amp;nbsp;&lt;/sub&gt; z&lt;sub&gt;2&lt;/sub&gt;&lt;/font&gt;&lt;/i&gt;&lt;/div&gt;&lt;div style=&quot;font-size: 15px&quot;&gt;&lt;i&gt;&lt;font style=&quot;font-size: 15px&quot; face=&quot;Times New Roman&quot;&gt;&amp;nbsp;&amp;nbsp;&amp;nbsp;&amp;nbsp;&amp;nbsp; ...&lt;/font&gt;&lt;/i&gt;&lt;br&gt;&lt;div style=&quot;font-size: 15px&quot;&gt;&lt;i&gt;&lt;font style=&quot;font-size: 15px&quot; face=&quot;Times New Roman&quot;&gt;&amp;nbsp;u&lt;sub&gt;N&lt;/sub&gt;&amp;nbsp; v&lt;sub&gt;N &amp;nbsp;&lt;/sub&gt; z&lt;sub&gt;N&lt;/sub&gt;&lt;/font&gt;&lt;/i&gt;&lt;/div&gt;&lt;/div&gt;&lt;/div&gt;" style="strokeWidth=2;html=1;shape=mxgraph.flowchart.annotation_1;align=left;pointerEvents=1;" parent="1" vertex="1">
          <mxGeometry x="388" y="170" width="6" height="79" as="geometry" />
        </mxCell>
        <mxCell id="55TDIFbMitZlCRsvxrh8-38" style="edgeStyle=orthogonalEdgeStyle;rounded=0;orthogonalLoop=1;jettySize=auto;html=1;exitX=0;exitY=0.5;exitDx=0;exitDy=0;exitPerimeter=0;entryX=0.5;entryY=1;entryDx=0;entryDy=0;" parent="1" source="55TDIFbMitZlCRsvxrh8-26" target="55TDIFbMitZlCRsvxrh8-49" edge="1">
          <mxGeometry relative="1" as="geometry">
            <mxPoint x="610" y="160" as="targetPoint" />
          </mxGeometry>
        </mxCell>
        <mxCell id="55TDIFbMitZlCRsvxrh8-39" style="edgeStyle=orthogonalEdgeStyle;rounded=0;orthogonalLoop=1;jettySize=auto;html=1;exitX=0;exitY=0.5;exitDx=0;exitDy=0;exitPerimeter=0;entryX=0.5;entryY=0;entryDx=0;entryDy=0;" parent="1" source="55TDIFbMitZlCRsvxrh8-26" target="55TDIFbMitZlCRsvxrh8-50" edge="1">
          <mxGeometry relative="1" as="geometry">
            <mxPoint x="540" y="259.9999999999999" as="targetPoint" />
          </mxGeometry>
        </mxCell>
        <mxCell id="55TDIFbMitZlCRsvxrh8-55" style="edgeStyle=orthogonalEdgeStyle;rounded=0;orthogonalLoop=1;jettySize=auto;html=1;exitX=0;exitY=0.5;exitDx=0;exitDy=0;exitPerimeter=0;" parent="1" source="55TDIFbMitZlCRsvxrh8-26" edge="1">
          <mxGeometry relative="1" as="geometry">
            <mxPoint x="605" y="170" as="targetPoint" />
            <Array as="points">
              <mxPoint x="605" y="209" />
            </Array>
          </mxGeometry>
        </mxCell>
        <mxCell id="55TDIFbMitZlCRsvxrh8-56" style="edgeStyle=orthogonalEdgeStyle;rounded=0;orthogonalLoop=1;jettySize=auto;html=1;exitX=0;exitY=0.5;exitDx=0;exitDy=0;exitPerimeter=0;entryX=0.5;entryY=-0.036;entryDx=0;entryDy=0;entryPerimeter=0;" parent="1" source="55TDIFbMitZlCRsvxrh8-26" target="55TDIFbMitZlCRsvxrh8-32" edge="1">
          <mxGeometry relative="1" as="geometry" />
        </mxCell>
        <mxCell id="55TDIFbMitZlCRsvxrh8-26" value="" style="strokeWidth=2;html=1;shape=mxgraph.flowchart.annotation_1;align=left;pointerEvents=1;rotation=-180;" parent="1" vertex="1">
          <mxGeometry x="465" y="170" width="8" height="79" as="geometry" />
        </mxCell>
        <mxCell id="55TDIFbMitZlCRsvxrh8-27" value="&lt;font face=&quot;Times New Roman&quot;&gt;&lt;i&gt;&lt;font style=&quot;font-size: 20px&quot;&gt;K&lt;sub&gt;3&lt;/sub&gt; = &lt;/font&gt;&lt;/i&gt;&lt;/font&gt;" style="text;html=1;resizable=0;points=[];autosize=1;align=left;verticalAlign=top;spacingTop=-4;" parent="1" vertex="1">
          <mxGeometry x="332" y="324" width="60" height="20" as="geometry" />
        </mxCell>
        <mxCell id="55TDIFbMitZlCRsvxrh8-28" value="&lt;div style=&quot;font-size: 15px&quot;&gt;&lt;i&gt;&lt;font style=&quot;font-size: 15px&quot; face=&quot;Times New Roman&quot;&gt;&amp;nbsp;u&lt;sub&gt;1&lt;/sub&gt;&amp;nbsp; v&lt;sub&gt;1 &amp;nbsp;&lt;/sub&gt; z&lt;sub&gt;1&lt;/sub&gt;&lt;/font&gt;&lt;/i&gt;&lt;br&gt;&lt;div style=&quot;font-size: 15px&quot;&gt;&lt;i&gt;&lt;font style=&quot;font-size: 15px&quot; face=&quot;Times New Roman&quot;&gt;&amp;nbsp;u&lt;sub&gt;2&lt;/sub&gt;&amp;nbsp; v&lt;sub&gt;2 &amp;nbsp;&lt;/sub&gt; z&lt;sub&gt;2&lt;/sub&gt;&lt;/font&gt;&lt;/i&gt;&lt;/div&gt;&lt;div style=&quot;font-size: 15px&quot;&gt;&lt;i&gt;&lt;font style=&quot;font-size: 15px&quot; face=&quot;Times New Roman&quot;&gt;&amp;nbsp;&amp;nbsp;&amp;nbsp;&amp;nbsp;&amp;nbsp; ...&lt;/font&gt;&lt;/i&gt;&lt;br&gt;&lt;div style=&quot;font-size: 15px&quot;&gt;&lt;i&gt;&lt;font style=&quot;font-size: 15px&quot; face=&quot;Times New Roman&quot;&gt;&amp;nbsp;u&lt;sub&gt;N&lt;/sub&gt;&amp;nbsp; v&lt;sub&gt;N &amp;nbsp;&lt;/sub&gt; z&lt;sub&gt;N&lt;/sub&gt;&lt;/font&gt;&lt;/i&gt;&lt;/div&gt;&lt;/div&gt;&lt;/div&gt;" style="strokeWidth=2;html=1;shape=mxgraph.flowchart.annotation_1;align=left;pointerEvents=1;" parent="1" vertex="1">
          <mxGeometry x="386" y="294" width="6" height="79" as="geometry" />
        </mxCell>
        <mxCell id="55TDIFbMitZlCRsvxrh8-42" style="edgeStyle=orthogonalEdgeStyle;rounded=0;orthogonalLoop=1;jettySize=auto;html=1;exitX=0;exitY=0.5;exitDx=0;exitDy=0;exitPerimeter=0;" parent="1" source="55TDIFbMitZlCRsvxrh8-29" edge="1">
          <mxGeometry relative="1" as="geometry">
            <mxPoint x="750" y="230" as="targetPoint" />
            <Array as="points">
              <mxPoint x="750" y="333" />
              <mxPoint x="750" y="230" />
            </Array>
          </mxGeometry>
        </mxCell>
        <mxCell id="55TDIFbMitZlCRsvxrh8-54" style="edgeStyle=orthogonalEdgeStyle;rounded=0;orthogonalLoop=1;jettySize=auto;html=1;exitX=0;exitY=0.5;exitDx=0;exitDy=0;exitPerimeter=0;" parent="1" source="55TDIFbMitZlCRsvxrh8-29" edge="1">
          <mxGeometry relative="1" as="geometry">
            <mxPoint x="830" y="220" as="targetPoint" />
          </mxGeometry>
        </mxCell>
        <mxCell id="55TDIFbMitZlCRsvxrh8-57" style="edgeStyle=orthogonalEdgeStyle;rounded=0;orthogonalLoop=1;jettySize=auto;html=1;exitX=0;exitY=0.5;exitDx=0;exitDy=0;exitPerimeter=0;" parent="1" source="55TDIFbMitZlCRsvxrh8-29" edge="1">
          <mxGeometry relative="1" as="geometry">
            <mxPoint x="605" y="290" as="targetPoint" />
          </mxGeometry>
        </mxCell>
        <mxCell id="FrmI1B2-mLSVceSW3Au9-12" style="edgeStyle=orthogonalEdgeStyle;rounded=0;orthogonalLoop=1;jettySize=auto;html=1;exitX=0;exitY=0.5;exitDx=0;exitDy=0;exitPerimeter=0;entryX=0.5;entryY=1;entryDx=0;entryDy=0;" parent="1" source="55TDIFbMitZlCRsvxrh8-29" target="55TDIFbMitZlCRsvxrh8-50" edge="1">
          <mxGeometry relative="1" as="geometry" />
        </mxCell>
        <mxCell id="55TDIFbMitZlCRsvxrh8-29" value="" style="strokeWidth=2;html=1;shape=mxgraph.flowchart.annotation_1;align=left;pointerEvents=1;rotation=-180;" parent="1" vertex="1">
          <mxGeometry x="463" y="294" width="8" height="79" as="geometry" />
        </mxCell>
        <mxCell id="FrmI1B2-mLSVceSW3Au9-15" style="edgeStyle=orthogonalEdgeStyle;rounded=0;orthogonalLoop=1;jettySize=auto;html=1;entryX=0;entryY=0.5;entryDx=0;entryDy=0;exitX=0.799;exitY=0.98;exitDx=0;exitDy=0;exitPerimeter=0;" parent="1" source="55TDIFbMitZlCRsvxrh8-31" target="55TDIFbMitZlCRsvxrh8-43" edge="1">
          <mxGeometry relative="1" as="geometry">
            <Array as="points" />
          </mxGeometry>
        </mxCell>
        <mxCell id="55TDIFbMitZlCRsvxrh8-31" value="&lt;font face=&quot;Times New Roman&quot;&gt;&lt;i&gt;&lt;font style=&quot;font-size: 20px&quot;&gt;R&#39;&lt;sub&gt;12&lt;/sub&gt;&amp;nbsp; &lt;/font&gt;&lt;/i&gt;&lt;/font&gt;" style="text;html=1;resizable=0;points=[];autosize=1;align=left;verticalAlign=top;spacingTop=-4;" parent="1" vertex="1">
          <mxGeometry x="580" y="140" width="50" height="20" as="geometry" />
        </mxCell>
        <mxCell id="FrmI1B2-mLSVceSW3Au9-17" style="edgeStyle=orthogonalEdgeStyle;rounded=0;orthogonalLoop=1;jettySize=auto;html=1;entryX=0;entryY=0.5;entryDx=0;entryDy=0;exitX=0.8;exitY=0.801;exitDx=0;exitDy=0;exitPerimeter=0;" parent="1" source="55TDIFbMitZlCRsvxrh8-32" target="55TDIFbMitZlCRsvxrh8-46" edge="1">
          <mxGeometry relative="1" as="geometry">
            <Array as="points" />
          </mxGeometry>
        </mxCell>
        <mxCell id="55TDIFbMitZlCRsvxrh8-32" value="&lt;font face=&quot;Times New Roman&quot;&gt;&lt;i&gt;&lt;font style=&quot;font-size: 20px&quot;&gt;R&#39;&lt;sub&gt;23&lt;/sub&gt;&amp;nbsp; &lt;/font&gt;&lt;/i&gt;&lt;/font&gt;" style="text;html=1;resizable=0;points=[];autosize=1;align=left;verticalAlign=top;spacingTop=-4;" parent="1" vertex="1">
          <mxGeometry x="580" y="254" width="50" height="20" as="geometry" />
        </mxCell>
        <mxCell id="55TDIFbMitZlCRsvxrh8-33" value="&lt;font face=&quot;Times New Roman&quot;&gt;&lt;i&gt;&lt;font style=&quot;font-size: 20px&quot;&gt;R&#39;&lt;sub&gt;13&lt;/sub&gt; &lt;/font&gt;&lt;/i&gt;&lt;/font&gt;" style="text;html=1;resizable=0;points=[];autosize=1;align=left;verticalAlign=top;spacingTop=-4;" parent="1" vertex="1">
          <mxGeometry x="810" y="189.5" width="50" height="20" as="geometry" />
        </mxCell>
        <mxCell id="55TDIFbMitZlCRsvxrh8-43" value="&lt;div&gt;Relative&lt;/div&gt;&lt;div&gt;Pose&lt;/div&gt;&lt;div&gt;&lt;i&gt;&lt;b&gt;R&#39;&lt;sub&gt;12&lt;/sub&gt; &lt;/b&gt;&lt;/i&gt;&lt;span class=&quot;ILfuVd&quot;&gt;&lt;span class=&quot;e24Kjd&quot;&gt;&lt;i&gt;&lt;b&gt;≈ R&lt;sub&gt;12&lt;/sub&gt;&lt;/b&gt;&lt;/i&gt;&lt;br&gt;&lt;/span&gt;&lt;/span&gt;&lt;/div&gt;" style="rounded=1;whiteSpace=wrap;html=1;fillColor=#fff2cc;strokeColor=#d6b656;" parent="1" vertex="1">
          <mxGeometry x="638.5" y="129.5" width="73" height="60" as="geometry" />
        </mxCell>
        <mxCell id="55TDIFbMitZlCRsvxrh8-46" value="&lt;div&gt;Relative&lt;/div&gt;&lt;div&gt;Pose&lt;/div&gt;&lt;div&gt;&lt;i&gt;&lt;b&gt;R&#39;&lt;sub&gt;23&lt;/sub&gt; &lt;/b&gt;&lt;/i&gt;&lt;span class=&quot;ILfuVd&quot;&gt;&lt;span class=&quot;e24Kjd&quot;&gt;&lt;i&gt;&lt;b&gt;≈ R&lt;sub&gt;23&lt;/sub&gt;&lt;/b&gt;&lt;/i&gt;&lt;br&gt;&lt;/span&gt;&lt;/span&gt;&lt;/div&gt;" style="rounded=1;whiteSpace=wrap;html=1;fillColor=#fff2cc;strokeColor=#d6b656;" parent="1" vertex="1">
          <mxGeometry x="638.5" y="240" width="73" height="60" as="geometry" />
        </mxCell>
        <mxCell id="55TDIFbMitZlCRsvxrh8-47" value="&lt;div&gt;Relative&lt;/div&gt;&lt;div&gt;Pose&lt;/div&gt;&lt;div&gt;&lt;i&gt;&lt;b&gt;R&#39;&lt;sub&gt;13&lt;/sub&gt; &lt;/b&gt;&lt;/i&gt;&lt;span class=&quot;ILfuVd&quot;&gt;&lt;span class=&quot;e24Kjd&quot;&gt;&lt;i&gt;&lt;b&gt;≈ R&lt;sub&gt;13&lt;/sub&gt;&lt;/b&gt;&lt;/i&gt;&lt;br&gt;&lt;/span&gt;&lt;/span&gt;&lt;/div&gt;" style="rounded=1;whiteSpace=wrap;html=1;fillColor=#fff2cc;strokeColor=#d6b656;" parent="1" vertex="1">
          <mxGeometry x="870" y="180" width="73" height="60" as="geometry" />
        </mxCell>
        <mxCell id="55TDIFbMitZlCRsvxrh8-49" value="&lt;div&gt;Multi-view&lt;/div&gt;&lt;div&gt;Consistency&lt;br&gt;&lt;/div&gt;" style="rounded=1;whiteSpace=wrap;html=1;fillColor=#fff2cc;strokeColor=#d6b656;" parent="1" vertex="1">
          <mxGeometry x="486" y="120" width="73" height="60" as="geometry" />
        </mxCell>
        <mxCell id="55TDIFbMitZlCRsvxrh8-50" value="&lt;div&gt;Multi-view&lt;/div&gt;&lt;div&gt;Consistency&lt;br&gt;&lt;/div&gt;" style="rounded=1;whiteSpace=wrap;html=1;fillColor=#fff2cc;strokeColor=#d6b656;" parent="1" vertex="1">
          <mxGeometry x="486" y="234" width="73" height="60" as="geometry" />
        </mxCell>
        <mxCell id="55TDIFbMitZlCRsvxrh8-51" value="&lt;div&gt;Multi-view&lt;/div&gt;&lt;div&gt;Consistency&lt;br&gt;&lt;/div&gt;" style="rounded=1;whiteSpace=wrap;html=1;fillColor=#fff2cc;strokeColor=#d6b656;" parent="1" vertex="1">
          <mxGeometry x="720" y="174" width="73" height="60" as="geometry" />
        </mxCell>
        <mxCell id="FrmI1B2-mLSVceSW3Au9-19" style="edgeStyle=orthogonalEdgeStyle;rounded=0;orthogonalLoop=1;jettySize=auto;html=1;entryX=0;entryY=0.5;entryDx=0;entryDy=0;exitX=0.799;exitY=1.02;exitDx=0;exitDy=0;exitPerimeter=0;" parent="1" source="55TDIFbMitZlCRsvxrh8-33" target="55TDIFbMitZlCRsvxrh8-47" edge="1">
          <mxGeometry relative="1" as="geometry" />
        </mxCell>
        <mxCell id="FrmI1B2-mLSVceSW3Au9-20" value="&lt;font face=&quot;Times New Roman&quot;&gt;&lt;i&gt;&lt;font style=&quot;font-size: 20px&quot;&gt;R&lt;sub&gt;12&lt;/sub&gt; &lt;/font&gt;&lt;/i&gt;&lt;/font&gt;" style="text;html=1;resizable=0;points=[];autosize=1;align=left;verticalAlign=top;spacingTop=-4;" parent="1" vertex="1">
          <mxGeometry x="57" y="140" width="50" height="20" as="geometry" />
        </mxCell>
        <mxCell id="FrmI1B2-mLSVceSW3Au9-21" value="&lt;font face=&quot;Times New Roman&quot;&gt;&lt;i&gt;&lt;font style=&quot;font-size: 20px&quot;&gt;R&lt;sub&gt;23&lt;/sub&gt; &lt;/font&gt;&lt;/i&gt;&lt;/font&gt;" style="text;html=1;resizable=0;points=[];autosize=1;align=left;verticalAlign=top;spacingTop=-4;" parent="1" vertex="1">
          <mxGeometry x="60" y="258" width="50" height="20" as="geometry" />
        </mxCell>
        <mxCell id="FrmI1B2-mLSVceSW3Au9-22" value="&lt;font face=&quot;Times New Roman&quot;&gt;&lt;i&gt;&lt;font style=&quot;font-size: 20px&quot;&gt;R&lt;sub&gt;13&lt;/sub&gt; &lt;/font&gt;&lt;/i&gt;&lt;/font&gt;" style="text;html=1;resizable=0;points=[];autosize=1;align=left;verticalAlign=top;spacingTop=-4;" parent="1" vertex="1">
          <mxGeometry x="-60" y="200" width="50" height="20" as="geometry" />
        </mxCell>
        <mxCell id="FrmI1B2-mLSVceSW3Au9-23" value="" style="endArrow=classic;html=1;" parent="1" edge="1">
          <mxGeometry width="50" height="50" relative="1" as="geometry">
            <mxPoint x="-60" y="480" as="sourcePoint" />
            <mxPoint x="-60" y="500" as="targetPoint" />
          </mxGeometry>
        </mxCell>
        <mxCell id="FrmI1B2-mLSVceSW3Au9-24" value="" style="endArrow=classic;html=1;" parent="1" edge="1">
          <mxGeometry width="50" height="50" relative="1" as="geometry">
            <mxPoint x="-70" y="560" as="sourcePoint" />
            <mxPoint x="-20" y="510" as="targetPoint" />
          </mxGeometry>
        </mxCell>
        <mxCell id="FrmI1B2-mLSVceSW3Au9-25" value="" style="endArrow=classic;html=1;" parent="1" edge="1">
          <mxGeometry width="50" height="50" relative="1" as="geometry">
            <mxPoint x="80" y="249" as="sourcePoint" />
            <mxPoint x="80" y="269" as="targetPoint" />
          </mxGeometry>
        </mxCell>
        <mxCell id="FrmI1B2-mLSVceSW3Au9-31" value="" style="endArrow=classic;html=1;" parent="1" edge="1">
          <mxGeometry width="50" height="50" relative="1" as="geometry">
            <mxPoint x="80" y="127" as="sourcePoint" />
            <mxPoint x="80" y="147" as="targetPoint" />
          </mxGeometry>
        </mxCell>
        <mxCell id="FrmI1B2-mLSVceSW3Au9-32" value="" style="endArrow=classic;html=1;" parent="1" edge="1">
          <mxGeometry width="50" height="50" relative="1" as="geometry">
            <mxPoint x="81" y="305" as="sourcePoint" />
            <mxPoint x="81" y="285" as="targetPoint" />
          </mxGeometry>
        </mxCell>
        <mxCell id="FrmI1B2-mLSVceSW3Au9-33" value="" style="endArrow=classic;html=1;" parent="1" edge="1">
          <mxGeometry width="50" height="50" relative="1" as="geometry">
            <mxPoint x="79" y="192" as="sourcePoint" />
            <mxPoint x="79" y="172" as="targetPoint" />
          </mxGeometry>
        </mxCell>
        <mxCell id="CyaymzP_PxcqaUdQ-rHQ-21" style="edgeStyle=orthogonalEdgeStyle;rounded=0;orthogonalLoop=1;jettySize=auto;html=1;exitX=1;exitY=0.5;exitDx=0;exitDy=0;entryX=1;entryY=0.5;entryDx=0;entryDy=0;" edge="1" parent="1" source="CyaymzP_PxcqaUdQ-rHQ-3" target="CyaymzP_PxcqaUdQ-rHQ-8">
          <mxGeometry relative="1" as="geometry" />
        </mxCell>
        <mxCell id="CyaymzP_PxcqaUdQ-rHQ-22" style="edgeStyle=orthogonalEdgeStyle;rounded=0;orthogonalLoop=1;jettySize=auto;html=1;exitX=1;exitY=0.5;exitDx=0;exitDy=0;entryX=1;entryY=0.5;entryDx=0;entryDy=0;" edge="1" parent="1" source="CyaymzP_PxcqaUdQ-rHQ-3" target="CyaymzP_PxcqaUdQ-rHQ-6">
          <mxGeometry relative="1" as="geometry" />
        </mxCell>
        <mxCell id="CyaymzP_PxcqaUdQ-rHQ-3" value="" style="shape=image;imageAspect=0;aspect=fixed;verticalLabelPosition=bottom;verticalAlign=top;image=data:image/png,iVBORw0KGgoAAAANSUhEUgAAAIAAAACACAYAAADDPmHLAAAACXBIWXMAAAsTAAALEwEAmpwYAAAAD3RFWHRGaWxlADx1bnRpdGxlZD6Vs9eWAAAAGHRFWHREYXRlADIwMTkvMDgvMTMgMTc6NTY6MDCXwKpUAAAAEHRFWHRUaW1lADAwOjAwOjAyOjEyxtiOsgAAAAl0RVh0RnJhbWUAMDYw4AyCMgAAAA10RVh0Q2FtZXJhAENhbWVyYWj/7+kAAAALdEVYdFNjZW5lAFNjZW5l5SFdlgAAABN0RVh0UmVuZGVyVGltZQAwMDowMC4yNeJryEwAACAASURBVHgB7Z0JdJ3Fleev9PT09LRbsjZbXmR5ARuMCYFmDWCzGIcQsmAyCZnMme6ke5IcmHOSdIdDJp3uZqCT6TmdDJAmTYc4CcwkDoamG0wMBhvbobETdmzwho0XZFn7vkvz+5dUj8+PZ1vGEnbMV+eUqr766quv6v5v3XvrVn1PZmEIKRBSIKRASIGQAiEFQgqEFAgpEFIgpEBIgZACIQVCCoQUCCkQUiCkQEiBkAIhBUIKhBQIKRBSIKRASIGQAiEFQgqEFAgpEFIgpEBIgZACIQVCCoQUCCkQUiCkQEiBkAIhBUIKhBQIKRBSIKRASIGQAiEFQgqEFAgpMEYUyFi2bNmUMWorbCYFBdJSlJ0URZs2bYoNDAz8bWdn55daW1vvj8Vi9yxZsmT/SdG5U6gTJzMDfCs9Pf0HonV7e7vBCG91dHT8z/Ly8ocvueSS5lMIgxM6lIwT+vbDvJzZ/1Vu/Q/dHhoastzcXMvOzp5B+tOamprpFH9X98Jw/BRIP/4mxrYFwL+SFu9k9ucJfAWlkUjE+vv7h+rq6l53heGfMaHASSUBAP9qRnUfYOcPDg4mBijwe3t7Nxw4cODBr33ta8sTN8LMcVPgpLEBAH8mo1kB2POD4CMJjOsd3PvUueeeG87+44b80AZOCgYA/Cq69TBgL/BiX90cAX9XfzR6/QULFrx6aNfDq7GgwAm3AQB/IgO5k5mfCvy6vmj0G+cvWLAfs//aVrOK58yyxmLgYRvDFDihEgDwo3Tjl4B/Y1Dsp6WlGeZfe088vvRP5s3rHDD7OZw6jbJa8i3kd/eYNfWbrSQ29pptI21HjLwTAntsFDhhRiDgx+jqXxPfA76Yoaenp3veT36yENBvoJMC3wC+jHwZ6Ww9jJl4o0xFwO+ACTpbzNZR7xGun9kEgywx6+Z2GI5AgRMmAWCAhKPH633N/MG0tKGu5uZtB5qb58zo7ra5Dz5omStXmjrqY3A8qQYAU9QiIVpINxNXUGdtnlnoRQwSbiR/QiQA4B/i6PH9EviZzc2PzPrhD3OqJ0+e01VaapHGxgTwyWAHryUhuoj906ZZ7fz5Ze1FRWV9WVmzC3t6PpXW3V1bs23b+tiOHY8Utra+wHP7ie3+vR/mNEjDD4QOgC9Hz0NY+Pl+5rsXs9aPNjTsmn7bbUPxTZtmIOZd8Gmwoz4v8d8+ebJ1EvddeaU1zJtnkZwc687IsAziAKqku6vLxTjSJE79OD7l2Pbt/1H1xhv35z711LMfdsnwgUoAwE/p6BkC/Jy337aK++6bAvgZHuDDpeKMTuKWW2+19osvtkh2tqXHYlYgFQLo8RHPYVtbm3VzHcvMtIEo9mZ+vmXk5GTn1dYuyt+/f1HE7CBGwnqaeoS4luXFh05NeBoz/vENgD+TN7zH0TOEoyfW0mJTfvpTy0XfK6hTwejLlCo0zphhO774RetauNDYJZSv2GQ/NDc328GDBx0TsHfgypxdARP09vUZgNuC7dttxve+5/JqSxJGkoR4EDWyXkYk8VmkxT7dP9XDB8IAgD8LQv4Ksf+RoNgX+FHAn/bzn1suUSEIvO+cT3W/btYs2/LVr1r0ggsceAJfQTN///791ojNwLLSga9NJOX7+vutt7PTznr5ZTvjrrsS73APBv7oPWIGlpp1JP9CvBv2OqWXlkHaMt6xD4BfRavv8fKBkKV1dFjJww9b+Y9+lABFHfJRvfEdFDAHzjzTNn/725ZdVWURmMeDr3rd6Ph33nlHy0ddupCVlSV/gvVz76xXXrF5Se8ZqXZIMsxONE0p7zxA+juyj8IU/5pt1nZI5VPgwttY4zIUwE/p5RP4InDeW29ZWRIoqcBX57Z/+tP2xu23Ww7iPyMAPjuExjkB1/9MdL1iFH0v1dANM9Q3Ndlpb7xhZ/AeDda3nypVI8FyVEZ51OwzpL/AWHqkz+zzz998c6UVFbn3nQp/xo0Bdu3alYn+vTvZy+dmvkCrr7ea8nLr+8QnErPcE98D4QncdPbZ9ubixRYvKbGImGdE7Hdh4b8FEynu2bNH28WOAcQEWgX0DwzYAsrnr1iR8h2+fZ8mv1/XYlSlMMAi0gdnbNny4ltXXHHHxptvnmzFxf7RlCkSJA7TXJXy5klSOG4M8Pvf//4WtnBv9GC58Qo8Yj66eMqGDTYAYLXo8iDhk+mC6LXN115r+XPmOLHv21OqmS8mkKHXh5En8a+8Qi/gT4XJzv3NbywTBlE40ntchZE/wXo+7xlh4urVJVOWL791OoywA0bYIEaA2VIFnv3veCX/Zb9ZQar7J0NZ6p6PQc+wxgsEUCnOnIkTJ7oZKT2e/eqrVnTPPZb32mtWdtFF7k0iskJyqrJd119v3TBJLiI9CL7yAjwejxtnBx3wMvhgOuvHIMxC9J/75JMWGyX4HmC90wffH39PqaJC4erVpTlmt8bnzVta39//d8iCp6ifMBipJz3x31BO0Wvefcw9ezL9GTcGYCa+LcMMVWAtWPqlZeWWG0237GXLLBvwFbJ+97uUoHuCt02aZG8sWWLFhYWQ0JMeKx3AxQBOz/MOzXptHSttYe2fA+MtXLXKCp95xr1HQHowXUGKP0e7r0dUR0ysyN6D9iCs4y/+onpPRsay3o0b93QtW/bX+BKWU68T/8KF5KewiniWfWw2Mk/OMG4MwHAfZWn2HWbl1PqGButubbFL0vusZN2zbg0uYvqYTBpP6O033mh5s2db+ohYVz0xU21trTP0NPul771kkBoYgCEuQcUUMfvFMmOp49SewBfwSlu/8x07OH++DSJ59sydO7Xtiit+hor488Fly/5hJy4HqohRpj1ulvvxk9T1LN/IuISVK1d2XH311Vs6enoGu/r6pmTX1mZXrl5rxTt3prTGg50QA7Sffrq98KlPWSGGoq4VtNYX+Dol7HW+LH6Jft3rxaY4e+tWm/OTn7j6nsH8867wGP68K3OGZbhAl02i9OC3vmV7PvYx52FMQxqxj2GdSKrWM86o7D/nnKXx9vaz39mzJ4YkaK01u2eFGfbgyRfGUwLYLbfc8iREXLPu2mv/DRG9uAAvnWaPuE4v9gClIksPhlUmBA3OYKkU6XgBLpGvVEG2gIy+ChxB8x56KNHukdpP9c7kMj3vmUCpB7954UJ7BcmE88GyRlSR+qPYSb/fZtWSV12dV4bvIeO22+JTkQI8viW5/ZPhelwZQAPcZrak9LHHFmewFZOZ1p0QnyKoXi4IBbIntJ+tzRBYPn4FL+K1zJOel+4XsZWXodkNU+Th6ZPRl8myLxjUrm8zWH4s+eDM7wT8HZ/7nPWyr9CvVQjvlSpSlDTyjNCal2cdGLn5Dz9cUrJmzdqWu+76Z9r58YSAoXgsfRivusEJNi7v6Dvdrsn+NqbwpV3Wy2yRHJQUkBEln51SXSsEgRoSgRHrHnzdF/CK0vteCgzQJvrALn7pJStcu1bVEsEzlVKfT9w8QsbX96lngD5A3vmFL1j7lCmWx65jHiCrL1qKah9CqslLqX761E/fmlgB7fnkJ0tav//92zAKX2IT6w5oMOkIr/9Ab407A2RdY4XxucxyprsIKbB9FAOgIxOMIBHrgZqIITfEDBMDKMryb8XCVxvyJfTBHD2UxRD/F23bZpUPPODucdu14cHzaXK5ro8W9Kz6pP4qrcMm6eHddMhJH4GfAyPkw6zKC3ztQLLj7FSVW5IinbpQC3svvNAOLltWyibTrbTwAkzwEOccr6fZExrGVQW8wVp48HE7v/dlwH9meIaLqALRB+UVRWBFdQj3q0UhaAczqxCgJRk6W1utq67O4gCew0wrwp4oRufnYlTmbNzonlU9H/Ue5ZODL9N9H3yZrn25Ut8n9a8FT2TtaadZGjN9CA+gNrIUpIYkjaQCJJ1knEpViWmlEhTFHFSyupkzreSmmyz6wAPlvPMzuWYf5x2PIQX/ldMpa0tOwHZ0cOxuQGP5h/XvJyDevzF8U3TAkop0isGX6zoBPvmBM86wHejbGDMsh1kV3bLFYmz2RGCCNJaVmpWeefSs2h8sK7M0gInW1Lj2BaKif49Snyd7SF7XPugZte3f0QT4+847z7oBWWB3VFVZNxtNsv7hAJeKERSUuhUJM1/u6JHP2tw9rRQqkVblX/qSYy5UQqKfvOsgzPAip5p0lG0lkrEFegzwhpcqxpExgvRwnRzLP5vN7kXM/7m20PKJeM7cqRwBLdBkAKoDIrhCkAlUR0H3NBM9GMoHgdcz3ZwEkojdNnWqW45VwDDTd++2UjaBcvA8Bt9BdXedPHB/rfcFwd/JjH2btX6R1A2A67BJOjO6F2YY0KxGx3cx8/VcOvfEAJr9fl9iwoQJzjDUe8lYCUxczcaWVB9OIjdm3fJB7WisihorqkKMsZb+/S07a5B0bIOn89i2OtIanS5A57nDd02kIrIA85FsAgwNXFFGogYu5vBAk3XB19GF2lCdWjaTnsPabpBxCCAifDugvFFZaTkf/ahNQVXMevNNm/Lv/+7e5dtQ6kFXGiz3xG9inf8KbWjml+JaFviaxUOI+UwtR7nOhtm6kVLNBQXWhFGYhspS8LNfqwIf3MoF5tH7RHj/fn9fqb+n+6IDkq2UdCkT6dIavIrkb680G3al6oHjDOPKABByuxZynLtzG+n+FKYHT333RFAq0gkIAaCofHJQPUWBXwf4GwC/GyMsGzDcngDlYgTFQcT0gfIK6/qTC2wHjqVp2AyVbEJlcfzMv4vqiaAy/25JlReuusraALcCu2MC7avfquOehREGiHCcxbELotgl7VVV1qulIOUyDmUTeNUgqTBIjFBPQW0cLmh8GrvGqHcqUlbG9VJUxNn7zD5Xibqg+LjDuDJAh9nbEnNiAg1YVr+iSKBBSTr4QWrAhxCYa5V5JvCpiKN6jczOZxH7bczOKOJZulhWt4wxzT4tyQTAJBiggPstlD3PjmIh5wnmYThWPPecxVATDkzaU9CMEwP0IbYPAL6WcBW0eTptZTKzNfv17mDQ844RqBeDEXp4Jhvw1Q8Pvuo724RUZx81Fg+y0iMFP94AULN45692mi2uNnvrSM+O5l7yeEbzzKjr0Pmn4dh2DUJMIKNHgHsm0MFOiXxPEHXGD1hlPjoic+3AIdUznYjbPg5mZENonf/TjNMJIFnd/KKIY4BoRtRy4tnWvXePxZipEsFvIqofxVO3gfX8nqVLEwwm8H3cxwZUA0CWsKybxVI0CwZSH7T8U1AffdR4opSnydJHEqkP6k9Q9LtnkEh5GLBFf/VXri1P+OEWVSN18Pf1Pr1LjAAtZ2FQ/9NGs6mpnxp9qdoct/BpJisd/SIvKVTHNWgNSISWAygIeDCvOooius+TTYClskxALmRGNsMIfELmZpuWYCK8XMOy1iV2Y1k4j5qaLd7WYm/DJH1SDzyfS90aVg21qJAJ1M9APYjBWr/5TXuLbwu03i+BaSZIuiSF4MxWX+TwaeOwSh8OIjGkJNAhgT7FYKbpuKmjL7zgxq/x+jEfUvcoF2IEBZ6thj6Dd5s9OVzy/v6OKwM8yLcaXzJjq9wuVcc1YIHaD3F16lKG4WBFhfTnAPecueRnlgc+mQl4xDFCOjMz7/XXbfK+fe7YdyPgdkv/ct/PPq2/dSA0Vl9n+YBcx+zs4i2DRBl0JThsWqnTA3glzz9vfddcY/s//3nrkCOHmD6iWqRe1K4nvkspUx/17YHUUFtVlUXpQzL4qhOD6aay9V1w553vAd+3SbVE0DPBkHztaUQ682YcSj80w6f0/sK4MoC6dCOd5CXyBzgiNsyda2s52bt10SLbe8UV1vKxj7UNLViwomnq1PkZnOCJyvtH3VRR7SmIAP5+BJ8AH3tYHkBnA0Yv4jfCJtIQ+UwYojAv33JaWi1Gu/3MzAYAF5iSBJr5mYDciq3Qhd+hlBVDI32KcIglih3AZ+nWzsztok7vCOB6NhGGBq0T8Bsrp1gE51A0eeZTUUvDSfgwyr/+dddn9T3ITIm2jpDRMz5o3P4a6ZrD9dwv800kkoBPI489jDsDfM5sL538LINmH8TaNk2b9vIfZs6snHPWWVaMno3l5cW6pkzZtqesrKTlzDNz0ljLZ7KLpiDh64EOSgIRwBNBH5V0yLiTNPjtb22SdhzRxb3SxSWlnEgqs0gsy5r373M7dS2UCwDFCYCbAaNoOXcAe2Lq2rUWwfpvZws6KkaCCSQx2lE33TCY1EJnJMM6ADrKdS/2xf6SeZZeUWxZmRmHGH0071zWpRh90/iGwY/jWMDXM4cLaqePpW6stbUam2Dw79+nKhh3Bvi/2Gv/SVLQ7Eo6vW5pevojH7/oosVaKmkzRSEaiZzW0d6eWy8CA2YnlnrmS5sQwcOGX5ARPCE9E/QiUToR4TnoVt2LHjhg5YjbqTt2QJYB20ObA0iBtoF+izCT+7juA9QBqQKYJ092AwwQJe2inanr11uX2oRR5FPgSyJLR6JoeScbozaWaYNR7AuYoB1bIQL48Sy2gtMEybtB+xV5rAqq//EfLX3E8vfg+7772kcCWnVS3Vcb+zBk9/3pn1pRWlr1X27b9tQPcIv4NkebjjsDqCOfYfMDccWBMJv8s+zsrVdfeOFiechEUJ3wwWhL0wbKEADFIfgmPu5oqDrXCl4dwH38jjPOJAG8FPB5EbQdSZKFGsjA/esZRe+M4LgpfvFFq9y5Az09YPWIdW3hDgJkGsDrXd2kmYCfTT902ngA0AfpxzTsgVq+QWiBAWQP5PCBSYxnG7geRF2kZ8WxXSZZFlIjK5bxHvBlzcRpc+by5RbjRLL6mwy6+uiD7h0uBMFPrrcbF/VBHFUFhYW5uStXXnGL2RP/wAr5cG2lKv9AGODXTOT/gveKASx4uLh416XnnXddMTpTEqAIImoXTfv62lXT1qos6fisanttcLKV7OiFCfY6JhDAstRFFOUVW5mteewcwkWO0J4JVEcxA+YoQjpM2bvXimC2NL2Dd+czq+Wz19FxqQK5qmMAd1CHWDdtcvaBZjkfF1h6fp61wghaXci3nybbAgbOCjh6eNwFzXzZFZVsUBXecYfrowc/GUD/jNJU99T/VEF1xfxarvbzYewA48kdHCzKfe217jvMVqd65nBlHwgD6OVfGB7jafe1tPzq7LPP/uzkyZMnaKkmS13MIOLKk6cyraOHBnqsq5wlXm7Mivax28fiX+D7qFnVw6HRFmIu/n5dK4hoyien2kTKY2+gDFuhACaLAG4PPoF0YgmA5gCwQpxZ3owqqHz0UctgmZiTnmYcabM99K8Q5lF/xbha7/vVRmJZCPgZ1J0C+KXf+EaiTwJLIQjy4cBVvSPd032FIdTPW1df7aSa1JTUZvHWrefdUlPTjBTYNFzr6H99345e8zhrXIW0BhiMVTu4efPmHwtwEVPLJulafv/POXOU38fSrr6+ARugzjYWxNrePGehfgbGbaBoE0VQ4WW0Lup2KCpPlIPJM4jqy2Gk1EfdH+Q9ZY88Ymd+73v2UcRzKR+L1iNx6ljDx+lPNa7iGqRAG8ZoMfU68fDthjnyYJouJIUY1IMvP4PAdwyA9JDDSOqjBPDVDwGZDLrKUgEcLAs+Q3UXkp+LYFfEOB/ZSb8GYLp+JFP6pElRnG1n+WdGk35gEkCd+eUwRraDMGfOnBuQAoWaRXsRz/p2oFJWLWJV6kDXUwFh+oyyvt2RwcHC5/4jnkkbIqzEvAMXSaGNnzhHz1Wume+jJ1gqaeDLcjAUK9ats4rNm42PGKwcZog/+6w1chztjQULbCpEbmDWDyElSiFwL6lUQPDol96TjgTJhaFnPPigFSD21b5mlmIqMCk+JATBP+TGyMXh7neydG1BBWYxiWSbFGB0pm/YMPHPzO6/a4TWqdoLln2gDBB4ccfWrVvfnD179mVlZWX5kgIliF2BLwIrlV9fEqKsrDRzMJYV70cvF+OTF/gisNP1zMxuqQ+ekT/AM4EIlqhD3l8HU+W9vVCAwZiLemjiI5LdlLcD6BaMKxl559x7r8Wrq60WYzMTZnCzHykg3346/Y4z67XtPBmDL/v++xOzXsD7SDYR9N7jDb4NSaVBDqnol1TS6VMOxnNs1aoWJN3dPxqeI0d91YliABl7OwlbqqqqPsJMLxFhfZBfX3q2CWDEBHWAG/31r62SCjpToJqSBooZiO+D2AFaannQlfq8ZxgRzUfdU16pJMk+4l6iVInURATmm8172wF8AiK+AMZrO+cc60cCRLmOYjyWsKFUziqj/IknrPhv/sYysEN88DPfz36f6n4w7+snpx7gw5X7cWTg8yhADfSi/zuYQAU40uKPPy51+AsYoCX5+VTXJ4wB1BmWgDtXr179W5hgMobfXIEuleC2TiGygq5fZ4YVbtgwNAH6sZx0FnshaQFxIkxShvjuZBZ0MHMHkAoefKU+JjOCyj2hxQRqS21qhzJKG2WohXx0vpaD5XzCXoa6KEDlTGYXsWzNGiu5/XaL8+VRJAC8n/E+palECAIfzKuC70ei8hEywbrKR3QsDtHfwgaXziZkPfZYJ0z8zzDAqNzDJ5QBRsbZtH79+scB+jV28U5nJVAqHSsfgQzFLbhR71u+fNXnGxp2sCibqRkqUa9tZoGlmAtg8utPgAB4FZ2nbkDikXvJ0Yt9Ec9HSRLNWtUVOGpb+QhOpQ7c1hmI+Sirh3yAj/3hDxahT7qv55NnO0Upg+oeb/CM5fut9pQfRPrlIg1y+SgGuRqBRk9hA+wczfuSmXE0z4xnnTIav/jyyy+/DpUwgXX6zlWrVu2n7JdPm32Zwf6dBuxB0qxFKjiVICAU+GVRa4d5tNmkqNktLod5XOrzug6WqdxHtaWo6yHEq9b72UghMYbUjysnVRgtAdXvYPDXPvX3kq99ufqzH6OvUSsV1E8mPg3P3JoUiqrTQITJv3smtCJ71CAanEyhls6sWLNmzYrkTgFkvQivICJpwHJ5aUkoJ463DeTSLeJazDGJKCY4QFR9Pa8BS4J48JX6vO4Ho6RFP7ZJN86WGAygpabKgkwgBhDhj8QIyaAmX/P4YYOvK7BfQc/vwIG1i/RCViz6gQ2NRVHj0xJZih9GnUYyquBpOqrKJ7LSTRyIhBivELuJM+h4TETRDNfABY7yKtOgBIqAEiNoP5oNE+vSshGjMeg19LPIp7SdmFlk3fKqEyMzB4K7a5W53LvpyKVLPCOoneSQXJZ8fbj6qqeYhXTLRBptJ85AxcUQ+yoX+JoIYmSNF79H0S1mP71n2AVCyeGD7+/ha5yEd54Y/rWO/0rnLwXsyQJbQcDLSJRdoG0mgS79rnIRym3dsnRrwlbQTBGQelbRSwKlutYzXjL0cmiklA0mte3LfN5fq76I6SPZRNC7fQjmfVkwDd5X3kdfp5dlb5v8EfhOdDhVY9ARuzaijFhNBFYzzfSDs8xucUPJ4YP6+0cbfsuJWQZwGfG7ADDPM4IGJOAlAfj4wjGC9LfA0oDlGRQDSN+0EiVCFVIyAuvr3nPPtVI8fALdLT1J1dZYMYEHIRl8XnEIA/j76q9Uka41FoGu/ojha4iEPto8f+4oDo7quT/asBi3Mp1fvmr4uPTFEOWTDPx6gMkTYaQSRByBJhtBUdJBwJUQNWM0e2RL1BOlSjSjROCgBNAnaGpHRNd9tac0VRATKXqwPLiq68t8qjLdT75OVa46quvBVx2NT31XqCBKCqiPjDFK/ZlkXyQeMfxRM4Af2dXDk1mG44onUQ+An1APIpii9KTADkoFASkmkLoQQ4iYNTh/3IEPvGqOEXD89ODzF3N4BhAYYoAguFw6ID0DKE0GV3UUgoAPlwzX1TPdH/mI26TSwZUy9iUyUVd6r9pS6vugVEyuZ7QSUl+18Nc1fWsk3Uj2qOGUYIDgKK/iJDLXTz81/EHFZRDDqQcBplnsDSapBAEvqSBG8DZDEWA3ExsoE0G7cQezTemILaILPM8ASgWMiK6gdygv6aFU93wkmwgqCwbV7WLvoea669wHLY3apoYBqhcutGr8DhV4QT3gmvWKGocYwEs0STC9XwxO++tmcSSf7FFDcl+O+sAfW4XVfFBBny8mJtSDB05AefBlKygvMERIEbgRzyS7VlxwDoDfNdI9+dy3sSrYyo5lLoxSQdkk4ulEWeCaUa5eIBWRg4T213p/J/sMOy+/3LZzFG2Adp2lj7Uvb2ivvKE4uKaw3JvJD2sN1NQ4SaS+tfGhaTHeSfUbo89JL/WfNpto/7LZZu/6pik/XAj263B1TplymGERg0moBwGloFQSQbMpnzhCSHLQn1VDHVvOTeQ1C2vZh/8BYnkzKiIYvsmmzLV8qDKJ1YI8cgLXM4KIrLxP9Zyu6z/7Wdt0+WWWXjmZa1zgSBpthCnKE6oDK9p+TmNvYv7dd1uEH8DQck+/SxSHWQqee86GOK8og1Ztq9+k/wvw/5LsqMIppwKONOorRtQDOkLf211GdOpBxJN6kJ7XbBIjaGZJnOqDEvkRpGO1Ymhjy3ozrmCFC/j5uhkzZuzlp/CeG8rMvPrVqVMLG9mencT+QOkvfpGQKB54gS7GUFRZN27rSNUMK2A3MwNbQz8qoXIdWYvABDqOrutsNqPiMKLCzvPPdwdV4mxCadNK4CvIsKXu20SduRh1+FAxgKfKopHVA4ygjy21ergJUK4XMNKr0rGaaZIKshFULvEu1dHPOpxtSm1f8ztWp//94sWLn+BAyI/5ObzCWkR0bPp067jkEjuIf34mZwtGdLIDUu2I4CNg2ST+E0o+YLfqJDKbWQO4efuIUYDN084ejp6c3bstigow6r6tLWnOP2TAgHHqiFnV15H2egH/2+j+PRSNOnwoGcBTZ9HI6gFGeBwmuBaNez1ElHOpUoTVrJdU8MCJIbDKn+e0yvlf+cpXujnUsoWfhqlgI+s0nWPQSaZmtq6zcR2vZ3duCP9BpS14vQAABHVJREFU+erV7syiZr+IrTZ5l2OmDFRFHlFqZwgm0G8QD+LmTcfPH3n6aVdP+l7qpxGRP8Rx9UlsSGWx+6mZL6mlNhXp948A/1dkjynwXBiCFIAZSiDKnxG/DmEnCTjNfAUYoWOV2W1rrrzyf3/hhhuQwL2ahL319fV8QTbgjrTpNJPOMOj/E+hXUpv4NP28B39jRU21TgqoPRFdbYqxNHulu5Uq6r6kUGdO3Do7OIZGXiuScuJkoiSKlrNaoQh4MSVtPclzN8wc1lKUjD6ojTAEKLBoeP/ozmfMfsZsvQiwnHoQMMxcOVjS58+dG9HXv5xfyOE0U47OMeiDVP2zikI2a3RvG78Ekk/5xDPPssYv8rXw//m+A1ftKEiyyHGjVBIhOmMakqPC0s/mhydLiq18y1Zr+n8PJzyVWuuLQTz4nnnozw76+K33Az7NOSZSGoYkCiwc3kRc8eyIegCk6wHvPKpl6eCqDoJqpitK/EsC6BibP9Siz9P5V/f8RG6Z9U4ssp43r7TMJ59yS8zgq/rm8kuoNy21rNNmubOGubRb8epmy3titasmCTCHqOWm900IfEkNwi7Av2HWKJd8w48c+jeUAIfS4z1Xlw5P0oe48dDvUAno3my+Y/gyS7QqXxkV4H6ufvr06VZVVeWWb/rWgSNvjilKYISh2XMsHQYAMCcJJLrlhYz19FrWwXobRGVk1dZZxs5dlrZqjZvp2CSGP9+tQvaRyh7w4NNOPfFWwH+Z4vcdQgY4BtJdNPIjj+WPP35v6cSJ3+efWTuwdaqZw602E+eMJIPW7hiITjrIJihmPR+jXKB7BlAq4kd37rbID+91wEoVCGQFga9ZrvQdooxHV5+UIPC/BvjLhy/f/18xVBiOkQKI9xe2b9+eUVFRcbFOM+uLJjGAgA8G2QLuFDFreFn7Obh1PYhKVVuMIOAVBbIMQNkFWob6ctXxM59sDarolrEAn7Zcu0rDcGwU4FdiO57jLOPrHGY9nS+bSnWSWWcZdcRdblxF2QpSD3948cUDJY8+2pvf0hLXjBawPhXgwah7GHYuCHQPvKQB5TsB/3rAHzYQhqsd118xVxiOjwJlPH7xkiVLrquuri6CCWbzoesA7tydDQ0NL69bt24j/87mpXVmP4jyP4cEKCC6KOIrCnAPOllXplT1eEapfkDjDuouA/y3dG+sQsgAY0XJd9uR81B4Soq78AK2Huv2Tdmc0vGi3zOCB8AzgK4FvALSoI78AzyznZXAPw2Xju1f//6xbTVs7T0UeIZ/HgWQ/xlR/kkYIVcMIGbwYAsIvI81qIbfk9VO3kbym89kqUd+3ELIAONG2tQNb+SHMgD+YkT7AOkQcSYgNCIB9gH4b047Rl9+6reEpSEFQgqEFAgpEFIgpEBIgZACIQVCCoQUCCkQUiCkQEiBkAIhBUIKhBQIKRBSIKRASIGQAiEFQgqEFAgpEFIgpEBIgZACIQVCCoQUCCkQUiCkQEiBkAIhBUIKhBQIKRBSIKRASIGQAqc8Bf4/xgmlHpAKN5kAAAAASUVORK5CYII=;" vertex="1" parent="1">
          <mxGeometry x="-560" y="690" width="140" height="140" as="geometry" />
        </mxCell>
        <mxCell id="CyaymzP_PxcqaUdQ-rHQ-25" style="edgeStyle=orthogonalEdgeStyle;rounded=0;orthogonalLoop=1;jettySize=auto;html=1;exitX=0;exitY=0.5;exitDx=0;exitDy=0;entryX=0;entryY=0.5;entryDx=0;entryDy=0;" edge="1" parent="1" source="CyaymzP_PxcqaUdQ-rHQ-6" target="CyaymzP_PxcqaUdQ-rHQ-8">
          <mxGeometry relative="1" as="geometry" />
        </mxCell>
        <mxCell id="CyaymzP_PxcqaUdQ-rHQ-26" style="edgeStyle=orthogonalEdgeStyle;rounded=0;orthogonalLoop=1;jettySize=auto;html=1;exitX=0;exitY=0.5;exitDx=0;exitDy=0;entryX=0;entryY=0.5;entryDx=0;entryDy=0;" edge="1" parent="1" source="CyaymzP_PxcqaUdQ-rHQ-6" target="CyaymzP_PxcqaUdQ-rHQ-3">
          <mxGeometry relative="1" as="geometry" />
        </mxCell>
        <mxCell id="CyaymzP_PxcqaUdQ-rHQ-6" value="" style="shape=image;imageAspect=0;aspect=fixed;verticalLabelPosition=bottom;verticalAlign=top;image=data:image/png,iVBORw0KGgoAAAANSUhEUgAAAIAAAACACAYAAADDPmHLAAAACXBIWXMAAAsTAAALEwEAmpwYAAAAD3RFWHRGaWxlADx1bnRpdGxlZD6Vs9eWAAAAGHRFWHREYXRlADIwMTkvMDgvMTMgMTc6NTY6MDJ5zst4AAAAEHRFWHRUaW1lADAwOjAwOjAyOjE5UQpXOgAAAAl0RVh0RnJhbWUAMDY3fmgXkQAAAA10RVh0Q2FtZXJhAENhbWVyYWj/7+kAAAALdEVYdFNjZW5lAFNjZW5l5SFdlgAAABN0RVh0UmVuZGVyVGltZQAwMDowMC4yNntimfYAACAASURBVHgB7Z0JfFfVlcdP9n0jJGENYVNAFlfUFgsoLtiKFWu1TgcZEbGjtbU6TtWxrXWWTm1nWh1Hx4FitXVHK21tLSpTrYhUEWVzYQkYSAJZSMie/POf7+8lNzz+JCEqhoDvfD4397377rvvvvM759xzz73vH7OAAg4EHAg4EHAg4EDAgYADAQcCDgQcCDgQcCDgQMCBgAMBBwIOBBwIOBBwIOBAwIGAAwEHAg4EHAg4EHAg4EDAgYADAQcCDgQcCDgQcCDgQMCBgAMBBwIOBBwIOBBwIOBAwIGAAwEHjkgORB2RvT5COr3aLDGdvq4kxZJGmUWfbFbXWfcfM0uYahYzsIvrnd1zKMoCATgUXIxoY7tZXrTZfIq/Rh7XykGYBLOjEIQtpCYJRBwpdPLJFv/GG+FmsxHUSaBobZPZkj1mf0Zgijj/VCkQgEPI3p3twAP6vHizAnKB7iU9xs9sHVdfeqltIaW1tFgMKZqU/d57lvj669b6wgtbW8x+WG/2wpBPURD8fVIfA/oYHNiCMieafRetvhIVLoihDSUxV0LgSFbAkY5Dw4ZZxaxZVokVqBg92sJRURbb2moJDQ2WUVxsqe++a0nPPbc1vHr1nTuwChORGXf/ocoDAfiEnNwK+JjyH6Lx35X9lmlXctof2byAd0nXBEBo1Cir+vKXrWjkSNuZn480JVpKcrJFh8OWtXOn9fvrXy3hvvv+VFddfQPWYIPuO1QkQQ3oY3LgbcbsZLM7EAAPfITAG9fFVAmAXwgEtF/b/McxFRWWsmKF5axbZxlNTda4Z49VqT6iFUpKsmhSYlLSyKg1a2YuMCu+5xALAY8K6ONwYJPZPxSj0DhsYVx7OXLhEAmnr9Oka0qM7V5SfX9SubteM2FCuOq888K106eHcQq99svJGW7q15rd+nH6G9xzCDnwvtk3tjMmC3wcNQ9QAY95PyBFCkSkIDiBUO4XCAGv1Nieash3kTYjBOsDITiEaH6EplZg5Rn3b0Pz9wgQgSNAOwM+sswvCD0RAr8ANPAMpb0kCQGWYPd7Zl/5CF0PqnbHgZcYz/G087urswbwqfNvZQAg4B2gkUB3de7qK3cCoNxvATqzAnqWwJelUV5LqiB9aFZaaDa8uz4f7Jr8lIDgQOpPf3pB8qxZb8Hgx5lrHRfJlFLm+ENw+NJw+LK4iONnAOklAO8R+R0///HBblZdJYFVzSyhcNIkaxg40FLNcim6H8HMJ/9YFAhAO9t2tbQU75g5syzq0ku/CmNfQuueQuOGMOeKem/ChNubx41bSVj3FgTAAwJNNa4b9QyhMcy1N70j+8gUKQz+cwe+8hDTw81Dh9qHKSm2bQjiGBsrITgnx+y6j/zQ9hv8z/q4bRw19z2+atWIgs2b/23k6tVfzbzrLsVh76s999zyzMLCf8oiQtdK0Kb8ggs8IJLKyy3j1Vct8cknDTPugS+LIIYqDuAY63KKPHLWwuWR5e48Mld9aWvJ8OG2FvBHVVbaIKaNOI0SxAb8kX8eZfYvkfcd7Dyyfwerf9RfPyccTrltyZInE1eunLlr924bQVRu4Icf2u5582wPzG9mTu6YFtfcbCnV1dZv0ybr9+c/W/wzz3iAOLAEmOq6+n7Q/cedMbWr6xKy+qwsS0AAVEfCJyvEsLWbfPIYs0JOe0yubz2+4WiuiGefQxDnyr3XX//3Raefnp8BqMN27LDi2bOthLBtKBSyJAVmoveNnArfiokJhHBztm61AffdZ7FYBoHSXUTQz8euwPaXu2Pl/qR2NPwQh5AQ3McM4R/PMGOy0DMKBAA+YeoHAOmVLZdcsqBq5sz8yvh4G/Laa5aQmmpbpk+3esbaVhZq9u7da6mUpaWl7ScEHqsRBAlGGlG9oc8+ayn332/yE8RgRQZ7wmgHstde+x9X5s/9x6omKyABEOrkPx1vdhOHPaKe9KtHDR2plZhSDS+dMuWZur/7u0nlgwZZc329jXnkEaubMsV2HnOM1cfEWAvh2TAzfQlADOcZGRmeIAjwKIAXKRcw0VyPo41Bb7xhOTfe6A0JEoBIIdBdDkgOO8hf1t2x/5puli+AHyDLs5u2T2VasFXlByP16zNJaE3O1wYP/vamG264u2z27DF7BgywuKIiG3fnnZZcWGg7v/hF25WQYE2A2Yp59wBGCBIo07lSLJZBpGte0gl1WhCCGqZp8ePGWfqyZR1AC3SXVNV/rPOeku4Tufs1IDUee6y1sKKYVlSUwspky4/M/uRVOsgf19ZBqh09l9GSnG3Dhs0vmzNnQdPxx+e3oM3RNTWW99Zblr9kiaXgWcvRqpk2zdZ+7WtW3r+/xUmrWZiR9jvQa7hH/oDzCfzWQNyShibgMxyLNUn57//2zLQDLJLpfm3u6ti1qdyR6gr8Goap1y6+2GKYHYzessVyvvOdQt5hAtNWGYVuqU2Eu61ydFwsM8tmTP5G4TXXzC8555z81sxMi2tstFwcPQGfuoEZv49S/+//bALavO7yy62e4Esimu8HWX6AhECan8j83FkB14RAbkRgtlx2mR2DX5Dw2GOeYLnrPcnVhl8gnOC4Mu8ZEyZ44DcNH27p+Ce19JW4QAYLR7ncHgiAGI25zy6aO/eBmjPOmF1JIKUV0z2Aqd2w3/3OUpjH+0lMdSkV4RgPuJu+9S1rxjGMQiAcxXOeQkCmniFClsGRhMSR2qmh3pa5c20kU8Z4BE3WRaRrkbSv9X1XVC+y3F8Wov1KLFE6fVN5A4JpEyZkxa5dO5nTLfta6vzoqLYAROhyNg8ePH/FNdcssMmT8+thVpi19lwctJH/8R+WAHiO/IAIQp0rpT7/vI0cPNi2MRw0ArhfCGT+W5gd1NXVeU6hswLKHan+HqxN0SWX2AgEQBQJqKvbVa7WuronSn1C6DQ0xZBrWhqjZDa6q/b85UelAGwmbr973Lh5K2bPXtB64on5YQCIB6i8V16x/F//2tKI6jlyULncXy5BEIPSfvELK4Cp2xGChggh0LSwtrbWGggYSSAEvt8iqD0JQTnjc/qPf2z9b77ZswICtLNnqr6fHPBdCUEswpfJDSGfdWq/f5i/na6O99murmocYeWAP2Pvaaf9tvw735ltkyZlMEBbHub+2KeessH33GMJhHBFYqg/eYW+Mp37r8fiJCajZXsZc1txCHVNJMClfbICmirKIshh9FsB1WtFOxsIJmXhN8SuX7+fU6jrXZF7jq67YycUymPYMlZ26qlWy6wjkefG8fycF16w2pKSfleYLbq/LU7UVfOegHd58Ui6wHw+Z1Ny8rzdP/7xNxtHjBhUjkZGv/++HbNtm434z//0Nlo6Bkbmek9X5t5Z52KwclkCaUoKlmDw8OG2Y+pUzyfQlE+kcb8/s4W6ulocw1qTf6DkFwK104ig7GY9Ycjjj3v34Zt0xAcin9/WslfN64P/XKU6d2X96UcTY3+YfqQg4Gwdk5VJp83+VOvWETzihwC8nLyWUaPmvzZnzvzwxIn54XQmPwRsxr75pg377W8t/Z13xC+PHJNdrkL/cVutA/+qjoRADM+8/XYWhe+wHdOmWRMgExDwbqhvaLQmtogkJWIleH46/Yi0BCG0s3jECAv98pc25IorPCugNjvrg8ocwN4DuvijOtFYuAaczDQEIHv1ai8ohP/Tjza0SnhTF7d6xUesALwL8GjlfNK85oKCgijG4mwYkYbWZ/zpT5bBOO+YqNwlxwydH4xcHY/J7ZV1nPn971vDwoW2k0CP6sj0NzaErLQ63vKSiQiGmq2J6KF8Af/UUXUVHi5jF3AO08PY9qmhe47LqeKR13Ynx+1FHVkOu4bLzjjD+mH10n/2M2PTirEmYBl8bNJRqYuDyGd2Ua3vFG8CeDo9H42cl2BWoI0Z0k4lSbM757ADdL2k/0X9x6rXExLwStJ3me7688+392+6qc0KIAANWICiIoWM2UQwJAbwY71hQALgnxpKWKIZq4e9/bblXHWVt2jEe3j976pfeq7I9cGfqz9KzfgmsViYho0b7S3OAd+SzO6aYHYzh13SEWMBCgGet5gPk+bR6QJ13KUmXv5DxuVdhHPzWL0by4pcV8zsqlxM7eoalzquSdBUN/G55yz9oouslBBsNI5gdHSU5ebG2Ga80FCIxaPWZs8hVJBITqJfCDQrqCEekYvjFsUHIBIotdsTcn10QuAEIHrtWs+67KQRTW7FLOoctNk+LQDwMo+XuJzY9mDe52LepkAMYOT1PqJrOu442zxtmr1HDLy+Xz8vWlfCnL0VBo9jNS7y7R3zuP0A6u6av7LquXYH/fznFmbBRyZdawRhdglmZzfYjh0VLBjFemXNGptx0Pz+gObrTdnZ1vSFL1gCDqEEoKfPV18iwdewolRH2k0aSHJ95LBb6pPTQPa9x32PnbcAfS9m7FI6+TkYlCnznqzXmTjRtn7lK/YmZrgI8DX+p6Bp8ZjWJObpJVgCy8vzAj7u7R2DXe7Ke5qL6ZEUtWuXxeN1f8gevWQ2aRTvLGYWUIb33+JFCDUTkOZrH4F/VqCyVgRGXwClLV3qgdeVJkY+VxrvBECCo6T9ANp/oI9JtCqYStJ7wrfX7zV7nsMuqavndnnDp32BTRkD6NT1pFv0EnohSTNWwEslTKNWzphh1XjZyTAxFSZrXJWZdQs2MQR+NgBKGo5WPo6WY5ja0/HHEYLIe9QnpeS//MVy6dMepoECNikp2QsRa7VQs4EsBKORNQclt2bAbV4fmhEAd3ywfrl3UC4hcOBL892GEKbCltJ+XcpCn98n65b6lAAUscERqX0Ap2iYXlQvpxfRSzWOH2/vnnOOfTh5sjXB3DQ8bDFZgRenaVTzzqVxUTB+pTxjtmulEfpVe6JIINtKP/pftSMBEBhDX3rJyvAF6ggtJ2hqCKlPEsjdbCsbyFivvqpfmhloWIhCYGMQXJHa0lFk31QWmRz4zuwLfCcAKpNI6R4BS3uVZN2S3qFP0DYieLBuIS8wzEm3XkImv5mxfvn8+bbjvPMslU0bSWi+SMwUUzXlkhXQsZjrReN0DUuwimXSmkkTvfpijMjlbWcH/u3uuv+aswJJf/yj5RJwSuSDTgV/1AcBrtCw8gpWA9U39Uv9VFLouIk+igSqn/QMxwN/7kBXLsuopOO9WpnkuW2tdQgmHy3Z66RuqU8IwEYCFkC6mDRULyyG6GUkzbIA2mDB3MrSGd/j0ByZVZl8kXIxVwyVydXqnEAQk1Mxxy0nnGgfnHlWB5P9AHoNdPInUhM7qdIhRGKg6g9k40cSADswZfId2OqXhFQCoL6qnD8Wz8ZOva/rkwNeoKrcD7g7dsArx+SXbB0//plnZs+uKTv3XM8x1vPVH/JFo3uwQfSwCwDgjyR2dxPaP8RJux983sVqAT+6Xbt0rrFUnrW0y9MkmCutE5N1rnV6ARAKtXg7eraefIptvPZa3eoxW4x2TPcKe/DHf4+7V7mYLSYmE3U8btUqa0Hb47BQmhUIcPUrD4dU1kB9U7/Ub90bo6Vkcg0aakNlAlBgy6z7wXbncvYqTj/dNt12m/311ltvn7pu3ey3ExOvTtuz534HJve/RLU7SAcld89BKx7KCr/5zW9YtPbs03D0+CkYMEwvruTMfrsTo2pWi+aj1t6x+yOGOlMqRgt85wtIy2QZNES0tDR7mzsLJ59q1ceN824Xo/3JtdlVrrqO3HFkrt4NYIl5DENBKxqfgYCmIrRaoFHeiiCk0OcQ/QxxrH2DacTsRQLBAS+AldzYrlznEopKwsjv3XCDbfr2t61w/PiKjf37L6PYfrNw4aNsY1+i+T91dyM49/OmPdoZ3GZH1Uov0JIlS/KIkc9Hg2et+P3v52V+8Ys3IwnHi5lioEDXmC+t8MPdAAO1zu1IJl6AC2gdO5Mv0N2QoDJpnIRA8/P43FzbcN23bPy991gq274cgPtada3vy10dlUQeu3OXC0RZsLE/+pEN09T0hBO8WUEL+wwTCgqsBXMfh08SwjpFM23VNwVJTzyxn5Y7C+iUQblIzygivYjm559yivVnG1vpunUv33HTTdt0HUZIYOrow7/Aw0Wn93BDqG7tFQFYunTpUEziXLT2SsAvEEgEax5MOP/8SVFE1ASCzCBzfg98Mu+lHTgZME/bsgWqIwe+1uMlDI4888r4qutKIl3XvXUA88HZZ9sJCIBIjFWLLleZIweszt1xZO7urWXKuf2006yYoapVAklfZZ0EcjrmP6SlYqxYOvsGEhi+stl+1oxgNtJ3xitPu9W2EwCX69layvsr6QnSWGYTE2iHDR/lmZmZt1PUQXBg5XlmKzoKenjwqQvAW2+9lVhZWfk9NP8q9UmM8YBJTT2xkVBqGgIg8OXwSfP9JKaIyZks8DSXlloY588JQTJWQeOsxlQXZHHhVg0JIgmD6mscVtJzK48bb1mXXWrDHnvcq+Oe4cD1Ctv/uDJ/7uq35OTYuq9+1eoBMYPnxGLqcwC3mhlLK6be2znEs/dyrbKqygauWOEFjSqxAonEC2q5v0mO7fbtlsAKnnrsgNextF9u/O9J/0oagvDOOf54z/fhnVdeddVVbVLMNRHgO4PRVtDDv5+6D3DCCSc0lJeXL0ILdzjwvL7BmNqxY63p1ls98LvrSCKOVSJa5H9DmXY5VwOI+mmejUZ4gAt8JReBE/Caj8vqtOAU9mNTxsYvzbK9Jxzfof0OYMcznXeWdF39rCUSuQnhbSb83B8wvY0YCHYKc/7UkhKLpW9aH5DVakXo5K/kILzalDKKVcRYlqpT/vAHSyEKWMrQVAkfFMaVtispoLOd9F8kgS+6iCmw3hXwmzZs2LC4rfST/41Uuk/eYictPPnkk0UXXnjhWrR2KsBoocqjMMDUFxRYljxnlm/FdGl8JMVgOltZPCkh5u5iALIkAlnAShiUsDTeNFD367oETrkEQsc5/XIst3+OxaSmWeXeKst7fVWnz/PuVxs6aCf1q45Fp/XEFTYQjMrC+ihA5RdcHYcl2Irzk4dIrfp2kK+M4hHEVLS+mV/+Esieh68+Eqjag3PXxHs0YSnk8Enzf0l6jOToCvYPSADwa5bOnTv3B678k+b+/n/Strq9f9asWcuiYuJ+1rZ3tb0qDGjClLNj1xpnzuzQyM4aKmA/X8MHH1g1wiBy1kS5kkAW2I5k7iUcGiZEEhYNF6qr7dMtF11i66++2rumu2RdlHeWmgnzrr7mGnuRjZ2NgDgS59KbpbjnKed5tWjzbrS5kWfUYLFSAX4807WROIbJDAFyZsVwgcyGDW/VTp57Le3VsVlVb6byIpIf/JNOOskGs8gF+JWkH3D5kFGvWADX2+vjqgaFB6Vd2po6ALDFaoCEefraNQbPNp25tFfm/d33R9oXK/OKKd2MdqXCaJlYJwSqKXCVBLoD363ACXxRU3OTZWdle3XiGa+3Eq7N27rZEuVfeDXa/uhYz/S0HnO/mbWHBoabfJxJLbR0aI2AR8tb6FfV8OFWVVBgdbRZiVYPZI1gJCt9sYWF3pSuhemh+lbHEKH4rCyAzL5Aj+X5dN4TQgHCYljdn9smRZyZnXnmmcZQKgH4r4svvvhXXuEh+tNrAkDAJzt0bMpDWUO35jaknGyt8XxM0a5BYnQjQhCPiUtE00Uqc+SOM9jsEE0ouJShIBkARU4INAQoCijHT4C7cV9WQUnlraG28GxiAmv01A/TRmVtjQ0kgCNQ/ULQwvi+fs4ce5Npl/e7fe3PaqEt1Y1uB766oMD7kccarEQI65SN1o/71a9sINvJQ4oAUldJgJfhxO1G20MMCwJezp7sk4IiEiyl9vPvPspKKKeaGI2ZwneKONFbNm/efN3y5cu16HfIqNcEgClAdtLYmltCxesSWt/LsvDIERbGPDtw9YFDDczM7MQfcHX01umY1g8ws4mYYqfZEgIlzQwUJVTuAQ5IsgZOKOrq66x6bzXK1haW3ctxIX3QPF3bqpwAtMTG2Nqv/629gqDJYUnULIJcY7cEIIFUgzNZxsejNVikaq43oPXj/+d/bACrj6wA7Qd8hxBQpwnwpfmZpHxSHolIqDcT0tCgxPDy0GJ+GZTDZ0lvE0quYKZzy1133YUeHVrqNQG4zmyabW+c2/wa2rNqpcViWptgfIcVgKkhCQSal8J39jEyiz5yQhBbVsaKwVDbguevX9N0FkBVJRBu3JcFUAxee/adAGi6KF9BQ4FmBDrmBu/LmhHayoPwSQg2/u0c2z37K9aE8DTJ0si6YKLr5Wdg7vUZVi19UKitivsGYbXGyatHiASg5+CRO+CVOy9f7eeSBpHkRAoAWQM5fvIHuLeMOr9+0IwOeUZiA7Oo5954442dnB9yij3kLXbRIGbzWBeclMMVi5mMAexWPOsoNFWkvJTz6Ouus8Gs/olZDnivQvufkXxhsxfgdn/pS5bFvgBsvCcIMvVOIAQ6Y2aHY6jpoD7l0nWVy19QnWZSHoIShYMp4Brzcm3raafb0Kx+3mfhO0qLrZbxPw7gUySgHDciFPLuc/khiMFaBGI7lu4VgDLrSk4IJBACX++S054U7dQwovoCXgKA81dKnf8l/WKaHfBpt27/VKjXLMC1BLJ4g1mSOAU8oouLLb2k1JqmfH5f4IRyAd7InD4VbYtr39LthMDl0RprmTKVaC8+DqFbg3fg04Sn/S5CKKB1TVZBJH9B5xoemnjOJJ6TwocfAq6UL22jL7wIH4Pv7YjnV+Gdax6fxnNi8VNqqB9NJHHsT35ieXxbGM2uIGm4APfnAl7AykoI8JEkCUA8SeIuR3A3ScMKde8lmzuVsP6DbTLBae9QrwnAAoY9ALwiGkY2Mg+PHTPCUs6fbqEPtlljQQED376vbeQP1I4ZY+mESeNw/CT+DnyXayjIY6zdRDStBWD8QiBwpfHSdA0JGhpk/nWscpGEop7jAgTxWG3Lwvyr7dIzz7LYUyZ7Gip/QULSwlqCQrxVhYXe52WjiF4mKpxLfQe6O3Yaz8+1eP3OIx9KkoMnEuAMYs7klyIMd/N+d05v28mtKr1KvTYEwKBtMLiOyFhyTPkuS77lm1Y/5XRLnHGRxeX0t8pp07y5tN5eQ4GmhhVEvwY+/fR+DPELg0zvFL7ufRkNjUNgkgDZkZaLNSRICEQuTiArIMvQQErB9B//4otmmH9ppTceM6QktGIZ8BPqmxr4pAvgt26z0ThwE/kd/yRW8GTB1KpyZ/IlCErSegnSQFJ/krRf56pfQZIAYPpLeI+FpEVnmhVSdNioNwVgD/DsiiovL2i94Hxr+MLnbcuqd2zAniobwG/qVPBT6dr0sZ8/gKMYfffdNuD66/ezAn5uZTIOn4RVWYVZj2N2EIu2i6T1+ikXJZEcQkUKZR30My5hBOBUQrKpy5d7Y7TqCKj4uhqr5BeAFcKt3LLF+iEcE/n+biiCJrAd8AJfyWm+xnON9RLB0SRN7dSe7pE1kMnXvdRfRjZ/OgpBftip14aARQg+w0Ac8JwTDVdKCgqs31NLrRkmpxIkYUODNfKPE/RjiGKcKAxQDYzzmZj7WBaE/Nrv6qheOuHVOITgPXwH/bCTftEjkmT+FSeQSW9mHJ/I0DKaaZtMtrTftVc1arTtZGqXy4cbx+CoKpfnH8fMRGA74JU7jRfAamMAaThJ5l59lTXQOC/wEY5SXvvn3Pf9s9pC/ZQefjqQU59in3AE34UJFydVVvTLXPeupbEKJiaKmRmY2BY2fuoXLrRv3pH8gSZi5TLXMWijyIHl6ug8i7ayybcBVhNmXKZe2i5yswOV1TAk5DKWn/TwwxbGkZSGigSg+pGIX5HL+J6Dxiv62MpQUoNlSuLZAlX1JAjSeJlzHWucF/A5JJlUvZPGeSWEo1jAc9+1M8yefrht9zZX+gb1qgAcHw63ZLW0XBD9yivDE9F4MUtQy3Qq5JW0YgVxrzHWiBD44wMuVJzWRaiYWz2hSEOrh2FNGORtKxpfiwBEYQ0U9fNEQYKF03cafkU8mi2gHPACX8IQxvGMIVwrsEUxTPca9OEHAiqwZcal2Zq+qc5IkjRfpl/3yxrsIrWP9Zupc+FZZo8+1MvePV3oEfWqAHxzxoxsllBvia2vz9DqnwRAHRDjxNwkvPIkNHQv4ddWBXlw4kQCr47IHz99YqnswHVl3kHEH2ltf0K7+QhCNmDzb1asCmHYg9mv5NophGizmb4JSIHuTxIGkZ7nknpQwRq/ho56ZgoC3ml9AcfyMFRHFkHAy9wz9Sulzs84vBGt30jeZ6lXBeBXixfXfWHWrPUsgaYmrl8/VtovIRCzpTkShFTMs/bMN7PPvjXSH0AI5A/ERfgD3LYfqb14Ionp/BDD0JdftqEIW5amjWj20Acf7IjWOfAFfJuo7WtGZeqPN87jSFYhACEESMNMAUkevrRewiDvXnFL3oG5g7eEL3P/DFoveejTJF71Or0C/5C8VcTwhsv0SxCkQTKtcqDE5Gp+1KGCDztEzhLoBxAy2EGT/8ADFk/o1bvm/d3/j/+lBKySyhyoGnIErgTAge9y1XWCIfBVt/TEEy2NNYgCnE31T/1VHTcUKKf/iuT9/Gz+nwCnRwz1qgVwXFkMX/8G0wgjp1LGZ5Rt2iTGyhJIqzKIsUfhCzRqauiGAnLnD3S3dMztHWALaIErwASoksoEtJLIHSt3dTVEaBzHnFsu08cCLIqb02vmIO9eTh7XS2TuufdawP8dRUcUHRYBEId+yWLHHEVlNS3kPK49SVM1zoYYbzNwyBrYCetNDZ0QcK27pWMBKIAlREpO012ZX+u53AG+jnWv7nHWSAKAlbJB+A8J5LrunDwJBkKyjOxCmfuH+6iTR/+6pcMmAOrV5WZb0Jyz6cQAdcQJga5pXG3CkctMS7fmkSO8r2mdae9s6dgPvLRcQDqwdU3JkdqJTLqu+6T5EgCZfu04GETSWK8yOXnqF4Lhds+RswAABTtJREFUzek5/D5av538iCXH08P2Ai+bjYLBf0gh1/gqZu8tGGXbL59t6dM/ZzlvvW3NsSzK8AMQ2oThSEGiPELBuXyjb8QABLa0XMnVigTZ3etymXw3NPiBF9iySv1JEkyN8RIIyovJFnHfonMOcwiXfhwSOqwWQG+wGKW6lBkgfsDZYro61PoP19rAq79u/YnJ1/zueaveVeH980R98y9SgEfgVrKc3MgSbTJf5zqNF6i6prb8KbJM56rrTH45s45CfI6KkpIdmP1GnNMUjfUajgQ+x96cHuAfffgINfe8xgEk/+uw01ZWxMYy3AL+bepM0tPPEgY2K1+zzkKPPWPxbKUKMw43Dx9usUTmmljLL+OHGXbgmJ3CFM+N8/4XEcCdJYEuCyHNr2WWUfS5z9luws0VRAm3EW28IxR65C/vvJMN6Fe2WxRvnZ7qi89jyCI/qqhPCMDVDL0vmd2Dif0S3J3U+uY7lkgKp6Z7s4B4VuDCpFq0dAfBoArAr2RPwFA+u8pZscLTYqf5QkfAi5wAyBIIdNUR8DUsGu1go2clu23rWDvQ/v0YhCq1mWl8SspfGA4uVz3q30n2C4AvJD8qqU8IgDh7Jo7VMrNLAO2PnI4QYHFJCZaI969jgZl832Ir/cZ8rECcTWAtYfirKy2G6aI01YGtXEAriZTrfiXVq1qwwDay5rAG6zEerU8naRhgg4Dt2bPn93e99toL1Lua+743s00AdPWopT4jAOIwHvUHz5v9PSAu5HSIIm/yxAWiNDIxarN9Pnm5peWx23ZTjSVsaNuKxaUDQHfAKxfwDfyc6jYsyGaiibEIVSNTTIGuEK8WibZv375p3bp1P2AXZh0S+DeAf0h336qPfZH6lACIQefyo0bLzeZithfRuWGai6uTmiJG5/GjSwm1Fttc5n1b78AVwNJi5e2mu0NopPm1fLi5i+/4tgN2GvsCh7GhcwS7et2u4rKysg/WrFlz2bPPPvsO1fWd3WcCfL1rnxMAdWp6VNSLy269dVW/5cuHxTPGa34usGPe5KdgGqqsNo1hYeWH3vRM0zddE+E3ei+kl9Kxxv7Kr3/dilhcagb4oawtZLPWL4133wpsgoqLiy976KGHVlP9M0d9UgDufuKJhOb09L0VmOtEBCATWDS2SxBa1q/1gjUCXdotkPUS/tyVF/FTrg1nnWXx7BFgN0gH+JpG6te9d+3atezVV19d8Mgjj2ylic8k9UkBuP6SSxqXvvLKN6tyc59Ec6fn1NbenAs8Cscq+R0+HftJgqH5u0K1a5jijUfjo9gfEK+dQmi+zH51dXXpsmXLFt57770PUG076TNLkfzrc4z4R3y/kWZf7mf2TwjBcUQMO0LG6ry03VkDd6yX2ELY/uUbb0yfzq9xCnjtAgb8Uo7/FwuwaMaMGYWq91mnPmkB/KD8e1t4/rH7zZbT2al4Z99jZnAcRt0z/U4I/OBr/CekvPSN998fw49JDudTsV18IfT0qFGjFs6bN6/Q3/5n/bjPW4BIgB5lCx7gTgHki5gZnEnKpk4rL7KXVEFK4/ogBOInU81+xDXNJNv3ZUa2FpwfcQLgh2wpwoAg6IOTVoaBGvJKwE8jn0y9DWfZAZ9Y+W8PjgMOBBwIOBBwIOBAwIGAAwEHAg4EHAg4EHAg4EDAgYADAQcCDgQcCDgQcCDgQMCBgAMBBwIOBBwIOBBwIOBAwIGAAwEHAg4EHAg4EHAg4EDAgYADAQcCDgQcCDgQcCDgQMCBgAMBBwIOBBwIOBBwIOBAwIGAA0ccB/4faMAul+M07VMAAAAASUVORK5CYII=;base64,iVBORw0KGgoAAAANSUhEUgAAAIAAAACACAYAAADDPmHLAAAACXBIWXMAAAsTAAALEwEAmpwYAAAAD3RFWHRGaWxlADx1bnRpdGxlZD6Vs9eWAAAAGHRFWHREYXRlADIwMTkvMDgvMTMgMTc6NTY6MDnuHBLwAAAAEHRFWHRUaW1lADAwOjAwOjA0OjAwFKaBAwAAAAl0RVh0RnJhbWUAMDk2jvc7yAAAAA10RVh0Q2FtZXJhAENhbWVyYWj/7+kAAAALdEVYdFNjZW5lAFNjZW5l5SFdlgAAABN0RVh0UmVuZGVyVGltZQAwMDowMC4yNeJryEwAAByDSURBVHgB7Zx5cF3FlcaP9PSenvbdsiRblmy84N0GDGEPi4PDEhKGkIBTMyRDhUlSgT+y1VRlaphUhpok4yKTuEgGKiQkMyxmCZCwmc0GEgM2xoDlRbItL7JWa9+Xp/l9V2rnWWDHGEc2THdVq/v27dvd9/vOOX26+z6Z+eAR8Ah4BDwCHgGPgEfAI+AR8Ah4BDwCHgGPgEfAI+AR8Ah4BDwCHgGPgEfAI+AR8Ah4BDwCHgGPgEfAI+AR8Ah4BDwCHgGPgEfAI+AR8Ah4BDwCHgGPgEfAI+AR8Ah4BDwCHgGPgEfAI+AR8Ah4BDwCHgGPgEfAI+AR8Ah4BDwCHgGPgEfAI+AR8Ah4BDwCHgGPgEfAI+AR8Ah4BDwCHgGPgEfAI+AR8AicGAQSTky3x6/Xhx56KD81NbUgJyfnc21tbfMHBwfvu+KKK35//Hr4eLf0kRKAzZs3R/v6+rKHhoaWDA8Pz4eaM2Ox2DzSgnA4nEqZNTU19ba2tv4hKyvrgWXLlj308abvw7/dSS0Ar7/+er7IJS4lTobgZT09Pdnp6enF8a+ekPCX1xgYGDCExPbt27f3xRdfnH/33Xe3xtf1+UMRSDr08sRdQXYyvecQlxAD7SadB7kFiYmJgXZzbSkpKeYIx9wr3wThjUlJSc/s3bv3M52dneUSAtK3PPlC7MjhhAlAnHZ/jiGeRSyHzBzie7SbsoB0iO3FChxob2+vCYVC87EG34lGo488+OCDLStXruxesWJFDYLw40gkYpQ/eeRX93eFwLgKwKpVq75SVFQ0F3JOgchg7o7Xbg0ojmxdNkF2I/Wfraur21tQUPDUAUJNTc2yKVOm3IPjN+n888+vUUWFdevWrSwrK9syefLkMO2uHSl9799+M1mbTGIuk0cicTrxL/OI2RD3tg+bdQLQ/ve28PEpiX/pv+lb3X777cmZmZmv4ZwtyM/PN8gzHLegTzlv/f39PWh4Cqa7D9P+w+bm5o3FxcXvLF26tJFK3fGDe+CBB/K4fiM3Nzc7mpW1+LwlS6rj78fnO82ikJjNiy5JHJ1ayJcTRb6mnBhpavwzykN+F4n63UC+jfQJ0pdo66DAUfaRD7z7+AXM9H1o+Bfw3A3y+nDmdpA+iiCsq62treru7v48pv1WtHjhmWeeuedII3v0/vv/JzU9/frchISfn3755StG6w43XXVVVlNZWXpPNJo190c/WsgL3kDMDpkdMrUcqe3D3UMAGogvc/9R4ku0+ZEXhnGdAgCtUiZeob6+/pXrr7/+arIo6UhAQF7F3N92oKXl65R8V6U9aLAIJC4hTkWLJ5NO6//pT89LzM62hI6Ob1DnH2qXLw8PpqYm9KemWqS3d3j6unVD2JdAsyHteIUJ9H8N7V0TQxgGEALy/xYx23y8OhjvdsZVADD1+6X9mHtjbpeJPUi+XvyX5eUbvlFfv7svFvvH2u9/vyLvBz+YRPH1EgAGeogGDx44YNtOP93qysos8sUvpsvxm/bKKzZl1SoLtbQEE7omcgWel0k/ZJJX2dEEPTc2jrY3gfTzfSxR20eswm9wKh4+mjZPpjrjKgBs4PyGJdsBBOBqBOGxeCCYbAuTPv3pGw/cfHPWYFlZds4zz/xag4snCq2zFuKG226zgRkzbID1ftb27TZ73z5LRbBSf/e7gKz4dh15KnNtjRJ48Dq+vvLuGfXn8irXdd+ppzb25eWl9hQW9uCxqjgBwb6AeovrGhquKnj55RVMDZt046MQHCYnbKyYgCJM9VcYwFcgvGzsgNx146xZduDKK63rjDOsOyvLipqaLOuBByzl8ceDsUOM7Tj3XGvGwcQkW1Zzs2W1ttqEigpLe+edoI7acoS6dl3qykWyi/0TJlgsN9dqTjvN6rKyeruys0M9ZWXPDUYiSbGEBK0k9NhIGB5OiPb3d5z+yiv5xffeu4K550F362RO3fufkDE2s/yC9AchTM5aoJFoT5DGD6z+4out8sYbLbmgwLIhNu+ppyzp3nuDtZoGvpN7b5xyijUlJlpycrJlZWTYEBYhNjRkkfZ2K+rosFQ2h0qxFMV/+pNFq6sDkh17mioc6SrrXbbMOsrLrR4fY4CVSl80as3E3qQkG+zu7hqORutCqamNCeFwHz7NSDOsZLAIiQmx2MCCt98uLH/yyU0Z27b9GJ8hsAbcLaLpJb1ma1LMTprdyXicGd/4BRbX+ZC9GjVaKPDjBUBCoOimgAMXXGBhyAih9cOvvmo4XyOaDCnbv/xl2zpnjg1CVAvCoaUljqSxmjD5G9oVTIQ41v6W2d1t5ViFyXv2WPGf/2zhqqpAiCQA7fSx9/LLrRknEmfSCtrarKunJxAMbLwlT5liicReBKqTfjoYy0As1hULh+sSo9HGRAlDYqKEIcGoP3XPnsJZL7wwkP3SS/8O6blYue8N4sDuNvvBXLN/od5JEU6YALDGuxKCHxfRaElAqAajvMoALIgkAeGAZ4ojCAdzsW1futS2MDUkimy0nWWksRMI/sOBAOBzGBtCloZVKO7qshTIZ5PBqgsLbd7u3bZgxYqgzbduucVq5s61ZKaPfgQmBfInNjQEauoASqOPUF5eIGAx9jB609LYQEiwfoSkHYe0A6cWgajDBHWEwuF2xqQpoWXJCy8sTLv//jxUPo3YX2+2/DNmq/ReJ0MQ1ick3Gr2LUg+TZ074h3YIllaKcLxsoOovMqcuX7rS1+ytzH7SRA8BKk6ABLZWg0oVZQViGANMiE/t7HRujQtQFoKglENgZMpT2C6ePXSS20IrVdbIQQon1VERm+vtSI47CdYK5Gliw10dtogFiCGcAzynNGG2k/HT8jOz49kZGTkZmZkTLTBwfyB3t5wx8BAzvbi4sSuqVMnFNCmNTe/dAGWgNc4aYKs7LiHnWaXYvavFZlOAkW+EwBNCYoiXakEwgkFWYvhCyRAehoEiiCRrblfUVaggzlfUwG7joEvoHqYYRuQ1451YJ/AcjlU2nrWWbbwj38Mphq1rykjQp1kyO6lzRpNB1xrCshVH9zXPkYnbferHfqSkB0UNgRC12nZ2WmxwcG0bgSmleminhXLIP3NePrpucObN89mFBV6j5MhOPzHbSzvmuWh1ffRcalAlwQqaiAy/y44IQiIoTD+OgHg819/3cr37rUciGhBA/tECkLRjvkWSYoiIwnSSijrl/aPNq6+0rECPWh7Ef5AAv5FYxE+Gm0lUxaDtG7ysgA0ZDHI1zIznfY1nma0n7W/9SFI8jE01ehkUqmESFOQngusD9NFDgKbXFxs7fPmpSdFIpev2LJl721mW0aHc0KTcbcALPvOwYmbK0dO23TSejfvK6+o4IhX6mJwgz8Hidy2zUL4AGeuXm2DaHvt1Km2FzKbEQZZl16mBU6FjLNk60YY2tBCpUmQlgt5qK5tZ1k559lnrREHr4U5fhgC2yFSWp9E7IdIjW+QuhIcHD1LwDJI60W6BEBWR8Imq6OoI2v5IvHWIUzbho9RW1palpOa+ruB3/72CZrbSpuVvPOLxBquxz2MuwBA3kwRqlMWR6xL5fgFIJM6QRDZuh8fdE9lWvvDgmU+91zwXCFlc1gRtM2ebTXl5VaDZZCW90JqI6TUElMkFFxPYUnI50VWCyl9aPoilofyBWLUiaHhYRxGgSMBUH8y+8Pkw/SXh/AM0ba0XfdEtiyOpiD5IGlMBRIQCUswdu4phBGWdGJKQ0MK7/n5kdLg1iFnDJSPmzCMuwDQoab2ABhlOoiyBjpuyyKyRg7IdEKhVELgtF6gKUor+9Gq1P37gwal8YEl2bzZCogTuJYwtE+fbjGIKSgpsRAO3Ly1ay1aX29h9gLUduSzn7VtZ59t565cadMQmh1sL0dZJaTh3UvDNT6tMERmP+Y8Af8gjesi4iD1RLo0Xfdl9gPCZT14NglBSaadCL5ABL8k74UXLJmxhd56i1YPCRruNaOxgXd9i3Ze4z1/QausmP92YdwFAN95tjx7rctFqt5uF8DXLFgQeOrza2ttNvNyBACdxx+AOlqfZMQko+UDgJ/F/n8gUaPlatMJQyJg5wpwyiYS902ebLvwG9h4CpxCxmIJNTW2E9JnL1pks5hK9tHuMNNIC1MK3qQl4WTmQ3QOGp+MdUiEXM3xeAcWQfMVND5pdwihyKG9dJaYafQbYRcytHFjUMfVO3hx+IzOGJYq0u5NvMurvNOjWMw1jGjf4R87tjvjKgAVYAYZS6TlCjvmzbMnIaU1M9NyAX0Pc+tuPOYWlkzz3n7bojt3BuBK410Q2LpunzjRophpEa4yka5yWQHF98vnQ34290SeLI4cuV5IjkHotnPOsXN+/nObvGOHVeBXDDE9lDKmTJzDLFJpuOb3JKLqD2IJkqiTjFVJZbyFrCYilZWW9MYbtPr+QWPSWF2Iz7syl47em8i7BJYBoW1sMfsVnssPcVdlmI5LGFcBYDU9hPbHNNd347C9iuZ3MN8mA2gfjtRUhEFm9H554dOm2ekIwOEGqHV/BDPOUXBAttAQaI74w6USDgkL2hRYhp4tW2wpZwqNWIFmHMJZTzxhDYwhhH+Rw1lABMIT0exhNDyZDR9tLSfJpLOvkL5pkyXzrIL6UzgSqSM1/vL3r9XVfY1VKTgUoDjfZfwLas2+jRCwoPrw4XD4fviW36eFenBHCPKltdWY3C4AzoV8OUxypPi+Xx+K2ATKB0N46DnZNu3BVe8BVWDrSLmP6JxGdedIEMmKY4XAlbnywIxTL8xhUR7zeCf9F6DBS5mjEzlYYl0XaDve3siq4AjaTTMHgyPWpQdvHCFzuLoqd/c0bsZ8GdPn9B2k08yqjtDkUd0aVwGA+BgmbHgQh2yXdtLwmNPRMDlRinzPH5jZiZj33XuqbVfuYsss6LfMxscCEOKB6IMcLdMkAI5YvbEj15Upjc+Pva9rCeQAPscwY2KuDdqM4lvIV9B9BbWh/t21ysYGNz5Xrrpjy9y9+PRIdVx/ro6u0/gghuuvkv12fDvHktd7jVsA3C48/kY5XpM3bLBUnDhpvSKfhxnfDAZeNd/0Wyvz6kBmvm0uO3uEIEYpx1EOJEJkvQiA1vlBfvSeVhOujuopf6So+i5q82cYf0AOpcokCPpiRe3oWuUyx4rO7xApYyNFQXDlY69deXzq6iiNL3d5lYt4kdUzc6btuvlmG7j66i+xp7JA9z5MGFcLcClYPj+y8bE4mXlWhA8w92sKkADo9fllT7D8mjChkFO8Ids+LdnmdZdZZHN1ALwDv5P6AyzxMvC0FeItQbzGK++iQHRAjq0zLAuAUElgdE/AqC+liiIjvg+1o+BS5eMJ0/XxDOqncflyexVntQ3cZkajhbNCoYd6Hn74U/gGO4+1L73ruAY0qQrtWr8xN/enqVpisRGjjRO+AraGxgOY4pTgemgoZuEQv/BBx7f2TAiAdmCLmNTaWmvVJg55aWi85o/Vfl27Mld3rGXoAdRuxuPqufuq76LKlJc1iLcIR2sVeCwITlDeL9U76sxC95R3Aq/rDixlK4Kfz1i1B9F10UWnUOdb1WZa0R5TkFCPa7iOnUAGfeovSkufWjhr1tWcoAVbpzq4yc/Pwxcw27t3d2AF2tqaLD3abXN66i2fvQEFSawGHWWKSASobpzHRKzIWLAEnIsCz+XjAY0v68Uv6WUMqaw8RKgjR3Xctavv7o1NqXrwOd0bGzTGseXx1y7/Jmb+TfZFsni3dE1Now1l1tVZOqunTratteOoE8mCLVvOSKytTf6R2bNj+zua63G3ALzM7wGy4s21a9fwYWin2z5VqqVdXd2+wAKUlpbawoWLbMqUGZacOvKZVx5vVEQsGU2n4jSmsU5vnj/fWllCDjCVOMIcWdLUeA12mu202d3jLN/65VdQX1ZAaQsfiVR94Qu2Hqd0J9ec5wfLTi09XT3XTrxVEGEiW1EAKyofWA0EzV2rTEH1NV6lwbMIdjX5+1gKd9O3exf5TqX33GNT2WQaRlO0/xDCl2I/4+/+a2Rly1MfLIyrD6ChXWVWu9rsTrKc2nY0QXy6+4BD++k6SJF0b+djz0UsFfPzktf3N++bjkOWJSC0fscLHvlYBAEo4Ki3lWVjPdpQy9o9pjU6fkSYbdgIhApkByzZQJtVpujIUarTQgmByNd1J8RvRNNWA/ZzrPmXlpXZ+WwFX0h/RYxNKwRZIhf1jPJK1V83GtxUONF6JuSzvEyzXgS0nymLX79YOqeTiWj2wnXrLIsvkzQWWRkFPTunutpSsGqtOl5G6yWkCro3yL3Mxx6znvJyy2O5OiqAm745srcV1Psgf8ZdADQ4nMFgM7yysnLl/PnzfyxnUEepWAST5mdnZw91dXW9S1lLe0fH85Ge3n8V+fLKnaZp0hMJKQCaimbIMpyKBehCgOoQhhqOXztx7MIAmcbev4hx5KgtBZeqXOQPMAaB3c928DY+NnkcchLZa7j+uussjbl3HRtBjVxfgXDpszJtaIl0gahU14oitJ7zhbU4bBnhmLW18TVSaoal4WPoHTvZ60jEzD9PLOeD09mPPGIRzjScL5FI+3xSdlDznQCLbAno8Jo1NhFBtPXrrY7rBn61RHJMQeM+YQEtr5w1a9a1JSUl+s2/QXqwCYQ/kMjPwjqqqqpWvl1ZOT1rw4azijhUERACyZnogCyuRWRABPsCOm0rwAqUYh0KsSgRBCKKEAxCsIRHIQHzGezpk3fgDnCwNARBKSxBG7EkLzP/am9fFkkWqhyN64a8atpqKppoKTyYOTo/q3/XjrMsGQhjJu2k8S1A2oSJTGOploxl05I3hekuwhiGabuWKSxh0iTLfvnl4L30fm6cZIP3leCrD007Wp6y/LM2BGYfaQ2RPt+412wt2Q8cTqgAMNruDRs29CMEF/Jjz4h+L+iOUlka5m3duvWiV9avnz+zqipaSmWBoCCwHfkSBoEicFQmAHVfm0Q60SuAtHzIz6EsOPzBrDag3d06n4fwJOpopy8mYtDuJEjdCVEVOITFeNr8Ajk49nW/Z5zJs+WLFltl3gzL2N1roY69B8cS7w8MY5VyOB+YsK/WcvFt+OWKZZIm0X8YAdAmWEgCgWVJoCx31y7rZ2Uj/0LvpLZcexIAd3ZRy7lEFRZCH8IOMDWxBLRpZm/+7BidwBMyBTDmgwGA77zrrrts+fLlPznjjDPYG0oOPrLQUSz3Mray/SqtUhCxChIElQVO1WheAtBBlAnW1ADEh+TlN2inYQJWppQPSdoQgAYETuf8IcCPUc5HnIEgrcO5moTzNcS1+7pIn5lJe7FM7FYmWUph2HbMybfM/SOCp2lEUY6ixuXGkLp2jaURJYAa2/CFF/KNcK5pN1SOnM4+kjlEirz5ZvBsvDBLoAOtp24tVqKeqbIWodyKkH4aoS3iPVI0zfHLKaoeU3DYHtPDx/mhSy+77LJvzpw582J+IZyyZ8+e+tWrV79GH2/9GhyKzM5FABYAcomAljBo8PGRy4PXMm0uigzOIAJSlErqXRsCWFqnk0GBX0n8w7XX2lxOBBv4+JOfpQfmfzZ+wRYOjrBUwbZ1ZVWlpSeU2Bl3PGb59ieeGulb5EtbZaZljTSGrNISSxbZSXw1VLkr+F26BFLjUh31LeHltM96EDztSbRAeLt8BkUEr4NUn6zNRCjPZqk6hU/ad+HbSEhONaum33lzRrql5OjDySQAGrUsmqx9GXEbsZp4MDyNAnNxHvGzDPwi0hxgjToyVTFeIOLzqiMynGbKQig6B07ESXvXENd/7WtWgseOIB48m+B/E9h+5l2dV+jgSiJYzBI19uAbNvsZFmEE9SdCA3M9vdzCN96ApSiwFJzSEIdbut/V0ma1q35v2c+8GHwSp34lhAeuuSYguxaL1ALR/fSh+imk5Zj8mUR9pVSA49dG2VYsQRp7AsWsBCZVVzejEKctGYMXj//VcMKngDEjlDKKeMX3hMsChzf4AebDCEMhAGlpOId4DZUvhOASPSTgZCHcVOGuRY40Rp1IGGSSFSUI7rob7SvWNwBonUy+LICIV9SBlaYoRZ1GNjXwfUF+R9Cf+lBQe4XEorxc654xzQazswJro3sK6Zxwzph7qrUgANJ81U/U8pUVgRzOWfgJYZaJaZCdz7STh7lPYkXQRvkmpq13+HlcLumFfNtQXl1t3UR+YZXLu36dpr5N/EDhZBOAox48wlBPZcXtxEefxTpA8GIJBemVpIcIhIRBwQmDrp32yfSrXGDoyx59GCoy2JjqZiq6fe7cuSkcU/8z/4bOtHOpVB+tRBGQjCw+AB19Xm0oitS0dRss6+nnrWvRfAsl81sF5nrN9ylNzZby4stWS50DRPUdRcim8GGqjrcHIL0H096PY7gPLa9Ay7VKCCOUn0AQclmKRvlYJoTPAPGB9Rjt80aA+MUMvrOh+KiDnv1YhucQCKxAIBC8YCAQTAMl0nRZBwX38poelFesUPze92wuXyaxEtG/p1nEsrSF/0zzbkVFRbm+CtI0UAg5JRATxTSX3XGHhTiUim9Pc5ksi8qcgJAN+u4jleRWEfuZWnrQaH2R3EoM4yDy4xLLop8pOKb5COQUfA/9KCXEdwtaEeh5WTONW1FB70X+ulkf8EepH1kLELz1Ef5cMjJdMFME4YHnEQi0/jwim5HBv4dZBGiBQ+msg8CcwjT97oED3ZBfwI5kAauAX2ENvsiexT04hf92Ol8O6eRSO5V89989u69vTUpFxTL14oRIeQmZlnEq07SjaycgIq8X4am75BILaS7n+jSRrcjSLpm2h7RbyC6k/AM5h2pLQWOMFypdi3zabOM9Xif7gcLHVgDGonBxnP+gexIIpoDzADNwKEm1UpOv3Va1YcPbpyxYcJm0HIdvKcT/cNOmTTvZobyDfYom4ikcW0/aXVMzuHD79tUQvJRnQyLGRU0vjiylChICRd3Lx9xfwSojWb9tgOwwFkSaLaKl5RJKJzR63lkR177SUa1X3XryP5t5DE6g2vl/H14cdSgBYg5gn/MTNKnwpptWfPKTnyzRnC+Tv3v37o3kb7rllls2jAKWect3vnPHuS0tF066665yR3Y8QY5E1Xfl0n4FkadpQsIgol1w9eJT3dO1+nCk0w47wHaA8kdI755+DOTzXNCuUh9GEYAMuWvi5Ku33nrrf/LPqtL0AxDN/fgC9UwJrxAfZVpY9/rGjf8xsaLiU1PuvDNdjp+0NF4QJABjhUANK6pevFZzGQRHvC7GEK7ZoJX7MvPv0MZ/k2+CePmRxxzUnw+HR+Cfbrjhhp9ccsklqfx/w0AI9PWSzgYQAn4Q3pXZwVfE5b/8ZeD5i1BFaakLY4VA5U4AnDbHC40TAJ7TjNDiCCf/v8RWCN9PetyCF4C/DuWlixcv/nsswdXsAqZxcBUcWunbhV27d/cOPv9862c2bVrPOcMi/IcSZwkkCE7bnRVQqqByBdUl3wcJ2hJoJO4k6qRUvwraRdpyvAmnzUOCF4BD4DjixSe4O5WDq+kcUolL+WpPEbWBuP81nEoIXUxMImag3fhkOmYaIZy0E7K3cZmgMgXqJaD9O8lqSd/KGl57VD54BDwCHgGPgEfAI+AR8Ah4BDwCHgGPgEfAI+AR8Ah4BDwCHgGPgEfAI+AR8Ah4BDwCHgGPgEfAI+AR8Ah4BDwCHgGPgEfAI+AR8Ah4BDwCHgGPgEfAI+AR8Ah4BDwCHgGPgEfAI+AR8Ah4BDwCHgGPgEfAI+AR8Ah4BDwCHoFRBP4Pv+L+m0xkALUAAAAASUVORK5CYII=;" vertex="1" parent="1">
          <mxGeometry x="-560" y="950" width="140" height="140" as="geometry" />
        </mxCell>
        <mxCell id="CyaymzP_PxcqaUdQ-rHQ-8" value="" style="shape=image;verticalLabelPosition=bottom;labelBackgroundColor=#ffffff;verticalAlign=top;aspect=fixed;imageAspect=0;image=data:image/png,iVBORw0KGgoAAAANSUhEUgAAAIAAAACACAYAAADDPmHLAAAACXBIWXMAAAsTAAALEwEAmpwYAAAAD3RFWHRGaWxlADx1bnRpdGxlZD6Vs9eWAAAAGHRFWHREYXRlADIwMTkvMDgvMTMgMTc6NTY6MDnuHBLwAAAAEHRFWHRUaW1lADAwOjAwOjA0OjAwFKaBAwAAAAl0RVh0RnJhbWUAMDk2jvc7yAAAAA10RVh0Q2FtZXJhAENhbWVyYWj/7+kAAAALdEVYdFNjZW5lAFNjZW5l5SFdlgAAABN0RVh0UmVuZGVyVGltZQAwMDowMC4yNeJryEwAAByDSURBVHgB7Zx5cF3FlcaP9PSenvbdsiRblmy84N0GDGEPi4PDEhKGkIBTMyRDhUlSgT+y1VRlaphUhpok4yKTuEgGKiQkMyxmCZCwmc0GEgM2xoDlRbItL7JWa9+Xp/l9V2rnWWDHGEc2THdVq/v27dvd9/vOOX26+z6Z+eAR8Ah4BDwCHgGPgEfAI+AR8Ah4BDwCHgGPgEfAI+AR8Ah4BDwCHgGPgEfAI+AR8Ah4BDwCHgGPgEfAI+AR8Ah4BDwCHgGPgEfAI+AR8Ah4BDwCHgGPgEfAI+AR8Ah4BDwCHgGPgEfAI+AR8Ah4BDwCHgGPgEfAI+AR8Ah4BDwCHgGPgEfAI+AR8Ah4BDwCHgGPgEfAI+AR8Ah4BDwCHgGPgEfAI+AR8AicGAQSTky3x6/Xhx56KD81NbUgJyfnc21tbfMHBwfvu+KKK35//Hr4eLf0kRKAzZs3R/v6+rKHhoaWDA8Pz4eaM2Ox2DzSgnA4nEqZNTU19ba2tv4hKyvrgWXLlj308abvw7/dSS0Ar7/+er7IJS4lTobgZT09Pdnp6enF8a+ekPCX1xgYGDCExPbt27f3xRdfnH/33Xe3xtf1+UMRSDr08sRdQXYyvecQlxAD7SadB7kFiYmJgXZzbSkpKeYIx9wr3wThjUlJSc/s3bv3M52dneUSAtK3PPlC7MjhhAlAnHZ/jiGeRSyHzBzie7SbsoB0iO3FChxob2+vCYVC87EG34lGo488+OCDLStXruxesWJFDYLw40gkYpQ/eeRX93eFwLgKwKpVq75SVFQ0F3JOgchg7o7Xbg0ojmxdNkF2I/Wfraur21tQUPDUAUJNTc2yKVOm3IPjN+n888+vUUWFdevWrSwrK9syefLkMO2uHSl9799+M1mbTGIuk0cicTrxL/OI2RD3tg+bdQLQ/ve28PEpiX/pv+lb3X777cmZmZmv4ZwtyM/PN8gzHLegTzlv/f39PWh4Cqa7D9P+w+bm5o3FxcXvLF26tJFK3fGDe+CBB/K4fiM3Nzc7mpW1+LwlS6rj78fnO82ikJjNiy5JHJ1ayJcTRb6mnBhpavwzykN+F4n63UC+jfQJ0pdo66DAUfaRD7z7+AXM9H1o+Bfw3A3y+nDmdpA+iiCsq62treru7v48pv1WtHjhmWeeuedII3v0/vv/JzU9/frchISfn3755StG6w43XXVVVlNZWXpPNJo190c/WsgL3kDMDpkdMrUcqe3D3UMAGogvc/9R4ku0+ZEXhnGdAgCtUiZeob6+/pXrr7/+arIo6UhAQF7F3N92oKXl65R8V6U9aLAIJC4hTkWLJ5NO6//pT89LzM62hI6Ob1DnH2qXLw8PpqYm9KemWqS3d3j6unVD2JdAsyHteIUJ9H8N7V0TQxgGEALy/xYx23y8OhjvdsZVADD1+6X9mHtjbpeJPUi+XvyX5eUbvlFfv7svFvvH2u9/vyLvBz+YRPH1EgAGeogGDx44YNtOP93qysos8sUvpsvxm/bKKzZl1SoLtbQEE7omcgWel0k/ZJJX2dEEPTc2jrY3gfTzfSxR20eswm9wKh4+mjZPpjrjKgBs4PyGJdsBBOBqBOGxeCCYbAuTPv3pGw/cfHPWYFlZds4zz/xag4snCq2zFuKG226zgRkzbID1ftb27TZ73z5LRbBSf/e7gKz4dh15KnNtjRJ48Dq+vvLuGfXn8irXdd+ppzb25eWl9hQW9uCxqjgBwb6AeovrGhquKnj55RVMDZt046MQHCYnbKyYgCJM9VcYwFcgvGzsgNx146xZduDKK63rjDOsOyvLipqaLOuBByzl8ceDsUOM7Tj3XGvGwcQkW1Zzs2W1ttqEigpLe+edoI7acoS6dl3qykWyi/0TJlgsN9dqTjvN6rKyeruys0M9ZWXPDUYiSbGEBK0k9NhIGB5OiPb3d5z+yiv5xffeu4K550F362RO3fufkDE2s/yC9AchTM5aoJFoT5DGD6z+4out8sYbLbmgwLIhNu+ppyzp3nuDtZoGvpN7b5xyijUlJlpycrJlZWTYEBYhNjRkkfZ2K+rosFQ2h0qxFMV/+pNFq6sDkh17mioc6SrrXbbMOsrLrR4fY4CVSl80as3E3qQkG+zu7hqORutCqamNCeFwHz7NSDOsZLAIiQmx2MCCt98uLH/yyU0Z27b9GJ8hsAbcLaLpJb1ma1LMTprdyXicGd/4BRbX+ZC9GjVaKPDjBUBCoOimgAMXXGBhyAih9cOvvmo4XyOaDCnbv/xl2zpnjg1CVAvCoaUljqSxmjD5G9oVTIQ41v6W2d1t5ViFyXv2WPGf/2zhqqpAiCQA7fSx9/LLrRknEmfSCtrarKunJxAMbLwlT5liicReBKqTfjoYy0As1hULh+sSo9HGRAlDYqKEIcGoP3XPnsJZL7wwkP3SS/8O6blYue8N4sDuNvvBXLN/od5JEU6YALDGuxKCHxfRaElAqAajvMoALIgkAeGAZ4ojCAdzsW1futS2MDUkimy0nWWksRMI/sOBAOBzGBtCloZVKO7qshTIZ5PBqgsLbd7u3bZgxYqgzbduucVq5s61ZKaPfgQmBfInNjQEauoASqOPUF5eIGAx9jB609LYQEiwfoSkHYe0A6cWgajDBHWEwuF2xqQpoWXJCy8sTLv//jxUPo3YX2+2/DNmq/ReJ0MQ1ick3Gr2LUg+TZ074h3YIllaKcLxsoOovMqcuX7rS1+ytzH7SRA8BKk6ABLZWg0oVZQViGANMiE/t7HRujQtQFoKglENgZMpT2C6ePXSS20IrVdbIQQon1VERm+vtSI47CdYK5Gliw10dtogFiCGcAzynNGG2k/HT8jOz49kZGTkZmZkTLTBwfyB3t5wx8BAzvbi4sSuqVMnFNCmNTe/dAGWgNc4aYKs7LiHnWaXYvavFZlOAkW+EwBNCYoiXakEwgkFWYvhCyRAehoEiiCRrblfUVaggzlfUwG7joEvoHqYYRuQ1451YJ/AcjlU2nrWWbbwj38Mphq1rykjQp1kyO6lzRpNB1xrCshVH9zXPkYnbferHfqSkB0UNgRC12nZ2WmxwcG0bgSmleminhXLIP3NePrpucObN89mFBV6j5MhOPzHbSzvmuWh1ffRcalAlwQqaiAy/y44IQiIoTD+OgHg819/3cr37rUciGhBA/tECkLRjvkWSYoiIwnSSijrl/aPNq6+0rECPWh7Ef5AAv5FYxE+Gm0lUxaDtG7ysgA0ZDHI1zIznfY1nma0n7W/9SFI8jE01ehkUqmESFOQngusD9NFDgKbXFxs7fPmpSdFIpev2LJl721mW0aHc0KTcbcALPvOwYmbK0dO23TSejfvK6+o4IhX6mJwgz8Hidy2zUL4AGeuXm2DaHvt1Km2FzKbEQZZl16mBU6FjLNk60YY2tBCpUmQlgt5qK5tZ1k559lnrREHr4U5fhgC2yFSWp9E7IdIjW+QuhIcHD1LwDJI60W6BEBWR8Imq6OoI2v5IvHWIUzbho9RW1palpOa+ruB3/72CZrbSpuVvPOLxBquxz2MuwBA3kwRqlMWR6xL5fgFIJM6QRDZuh8fdE9lWvvDgmU+91zwXCFlc1gRtM2ebTXl5VaDZZCW90JqI6TUElMkFFxPYUnI50VWCyl9aPoilofyBWLUiaHhYRxGgSMBUH8y+8Pkw/SXh/AM0ba0XfdEtiyOpiD5IGlMBRIQCUswdu4phBGWdGJKQ0MK7/n5kdLg1iFnDJSPmzCMuwDQoab2ABhlOoiyBjpuyyKyRg7IdEKhVELgtF6gKUor+9Gq1P37gwal8YEl2bzZCogTuJYwtE+fbjGIKSgpsRAO3Ly1ay1aX29h9gLUduSzn7VtZ59t565cadMQmh1sL0dZJaTh3UvDNT6tMERmP+Y8Af8gjesi4iD1RLo0Xfdl9gPCZT14NglBSaadCL5ABL8k74UXLJmxhd56i1YPCRruNaOxgXd9i3Ze4z1/QausmP92YdwFAN95tjx7rctFqt5uF8DXLFgQeOrza2ttNvNyBACdxx+AOlqfZMQko+UDgJ/F/n8gUaPlatMJQyJg5wpwyiYS902ebLvwG9h4CpxCxmIJNTW2E9JnL1pks5hK9tHuMNNIC1MK3qQl4WTmQ3QOGp+MdUiEXM3xeAcWQfMVND5pdwihyKG9dJaYafQbYRcytHFjUMfVO3hx+IzOGJYq0u5NvMurvNOjWMw1jGjf4R87tjvjKgAVYAYZS6TlCjvmzbMnIaU1M9NyAX0Pc+tuPOYWlkzz3n7bojt3BuBK410Q2LpunzjRophpEa4yka5yWQHF98vnQ34290SeLI4cuV5IjkHotnPOsXN+/nObvGOHVeBXDDE9lDKmTJzDLFJpuOb3JKLqD2IJkqiTjFVJZbyFrCYilZWW9MYbtPr+QWPSWF2Iz7syl47em8i7BJYBoW1sMfsVnssPcVdlmI5LGFcBYDU9hPbHNNd347C9iuZ3MN8mA2gfjtRUhEFm9H554dOm2ekIwOEGqHV/BDPOUXBAttAQaI74w6USDgkL2hRYhp4tW2wpZwqNWIFmHMJZTzxhDYwhhH+Rw1lABMIT0exhNDyZDR9tLSfJpLOvkL5pkyXzrIL6UzgSqSM1/vL3r9XVfY1VKTgUoDjfZfwLas2+jRCwoPrw4XD4fviW36eFenBHCPKltdWY3C4AzoV8OUxypPi+Xx+K2ATKB0N46DnZNu3BVe8BVWDrSLmP6JxGdedIEMmKY4XAlbnywIxTL8xhUR7zeCf9F6DBS5mjEzlYYl0XaDve3siq4AjaTTMHgyPWpQdvHCFzuLoqd/c0bsZ8GdPn9B2k08yqjtDkUd0aVwGA+BgmbHgQh2yXdtLwmNPRMDlRinzPH5jZiZj33XuqbVfuYsss6LfMxscCEOKB6IMcLdMkAI5YvbEj15Upjc+Pva9rCeQAPscwY2KuDdqM4lvIV9B9BbWh/t21ysYGNz5Xrrpjy9y9+PRIdVx/ro6u0/gghuuvkv12fDvHktd7jVsA3C48/kY5XpM3bLBUnDhpvSKfhxnfDAZeNd/0Wyvz6kBmvm0uO3uEIEYpx1EOJEJkvQiA1vlBfvSeVhOujuopf6So+i5q82cYf0AOpcokCPpiRe3oWuUyx4rO7xApYyNFQXDlY69deXzq6iiNL3d5lYt4kdUzc6btuvlmG7j66i+xp7JA9z5MGFcLcClYPj+y8bE4mXlWhA8w92sKkADo9fllT7D8mjChkFO8Ids+LdnmdZdZZHN1ALwDv5P6AyzxMvC0FeItQbzGK++iQHRAjq0zLAuAUElgdE/AqC+liiIjvg+1o+BS5eMJ0/XxDOqncflyexVntQ3cZkajhbNCoYd6Hn74U/gGO4+1L73ruAY0qQrtWr8xN/enqVpisRGjjRO+AraGxgOY4pTgemgoZuEQv/BBx7f2TAiAdmCLmNTaWmvVJg55aWi85o/Vfl27Mld3rGXoAdRuxuPqufuq76LKlJc1iLcIR2sVeCwITlDeL9U76sxC95R3Aq/rDixlK4Kfz1i1B9F10UWnUOdb1WZa0R5TkFCPa7iOnUAGfeovSkufWjhr1tWcoAVbpzq4yc/Pwxcw27t3d2AF2tqaLD3abXN66i2fvQEFSawGHWWKSASobpzHRKzIWLAEnIsCz+XjAY0v68Uv6WUMqaw8RKgjR3Xctavv7o1NqXrwOd0bGzTGseXx1y7/Jmb+TfZFsni3dE1Now1l1tVZOqunTratteOoE8mCLVvOSKytTf6R2bNj+zua63G3ALzM7wGy4s21a9fwYWin2z5VqqVdXd2+wAKUlpbawoWLbMqUGZacOvKZVx5vVEQsGU2n4jSmsU5vnj/fWllCDjCVOMIcWdLUeA12mu202d3jLN/65VdQX1ZAaQsfiVR94Qu2Hqd0J9ec5wfLTi09XT3XTrxVEGEiW1EAKyofWA0EzV2rTEH1NV6lwbMIdjX5+1gKd9O3exf5TqX33GNT2WQaRlO0/xDCl2I/4+/+a2Rly1MfLIyrD6ChXWVWu9rsTrKc2nY0QXy6+4BD++k6SJF0b+djz0UsFfPzktf3N++bjkOWJSC0fscLHvlYBAEo4Ki3lWVjPdpQy9o9pjU6fkSYbdgIhApkByzZQJtVpujIUarTQgmByNd1J8RvRNNWA/ZzrPmXlpXZ+WwFX0h/RYxNKwRZIhf1jPJK1V83GtxUONF6JuSzvEyzXgS0nymLX79YOqeTiWj2wnXrLIsvkzQWWRkFPTunutpSsGqtOl5G6yWkCro3yL3Mxx6znvJyy2O5OiqAm745srcV1Psgf8ZdADQ4nMFgM7yysnLl/PnzfyxnUEepWAST5mdnZw91dXW9S1lLe0fH85Ge3n8V+fLKnaZp0hMJKQCaimbIMpyKBehCgOoQhhqOXztx7MIAmcbev4hx5KgtBZeqXOQPMAaB3c928DY+NnkcchLZa7j+uussjbl3HRtBjVxfgXDpszJtaIl0gahU14oitJ7zhbU4bBnhmLW18TVSaoal4WPoHTvZ60jEzD9PLOeD09mPPGIRzjScL5FI+3xSdlDznQCLbAno8Jo1NhFBtPXrrY7rBn61RHJMQeM+YQEtr5w1a9a1JSUl+s2/QXqwCYQ/kMjPwjqqqqpWvl1ZOT1rw4azijhUERACyZnogCyuRWRABPsCOm0rwAqUYh0KsSgRBCKKEAxCsIRHIQHzGezpk3fgDnCwNARBKSxBG7EkLzP/am9fFkkWqhyN64a8atpqKppoKTyYOTo/q3/XjrMsGQhjJu2k8S1A2oSJTGOploxl05I3hekuwhiGabuWKSxh0iTLfvnl4L30fm6cZIP3leCrD007Wp6y/LM2BGYfaQ2RPt+412wt2Q8cTqgAMNruDRs29CMEF/Jjz4h+L+iOUlka5m3duvWiV9avnz+zqipaSmWBoCCwHfkSBoEicFQmAHVfm0Q60SuAtHzIz6EsOPzBrDag3d06n4fwJOpopy8mYtDuJEjdCVEVOITFeNr8Ajk49nW/Z5zJs+WLFltl3gzL2N1roY69B8cS7w8MY5VyOB+YsK/WcvFt+OWKZZIm0X8YAdAmWEgCgWVJoCx31y7rZ2Uj/0LvpLZcexIAd3ZRy7lEFRZCH8IOMDWxBLRpZm/+7BidwBMyBTDmgwGA77zrrrts+fLlPznjjDPYG0oOPrLQUSz3Mray/SqtUhCxChIElQVO1WheAtBBlAnW1ADEh+TlN2inYQJWppQPSdoQgAYETuf8IcCPUc5HnIEgrcO5moTzNcS1+7pIn5lJe7FM7FYmWUph2HbMybfM/SOCp2lEUY6ixuXGkLp2jaURJYAa2/CFF/KNcK5pN1SOnM4+kjlEirz5ZvBsvDBLoAOtp24tVqKeqbIWodyKkH4aoS3iPVI0zfHLKaoeU3DYHtPDx/mhSy+77LJvzpw582J+IZyyZ8+e+tWrV79GH2/9GhyKzM5FABYAcomAljBo8PGRy4PXMm0uigzOIAJSlErqXRsCWFqnk0GBX0n8w7XX2lxOBBv4+JOfpQfmfzZ+wRYOjrBUwbZ1ZVWlpSeU2Bl3PGb59ieeGulb5EtbZaZljTSGrNISSxbZSXw1VLkr+F26BFLjUh31LeHltM96EDztSbRAeLt8BkUEr4NUn6zNRCjPZqk6hU/ad+HbSEhONaum33lzRrql5OjDySQAGrUsmqx9GXEbsZp4MDyNAnNxHvGzDPwi0hxgjToyVTFeIOLzqiMynGbKQig6B07ESXvXENd/7WtWgseOIB48m+B/E9h+5l2dV+jgSiJYzBI19uAbNvsZFmEE9SdCA3M9vdzCN96ApSiwFJzSEIdbut/V0ma1q35v2c+8GHwSp34lhAeuuSYguxaL1ALR/fSh+imk5Zj8mUR9pVSA49dG2VYsQRp7AsWsBCZVVzejEKctGYMXj//VcMKngDEjlDKKeMX3hMsChzf4AebDCEMhAGlpOId4DZUvhOASPSTgZCHcVOGuRY40Rp1IGGSSFSUI7rob7SvWNwBonUy+LICIV9SBlaYoRZ1GNjXwfUF+R9Cf+lBQe4XEorxc654xzQazswJro3sK6Zxwzph7qrUgANJ81U/U8pUVgRzOWfgJYZaJaZCdz7STh7lPYkXQRvkmpq13+HlcLumFfNtQXl1t3UR+YZXLu36dpr5N/EDhZBOAox48wlBPZcXtxEefxTpA8GIJBemVpIcIhIRBwQmDrp32yfSrXGDoyx59GCoy2JjqZiq6fe7cuSkcU/8z/4bOtHOpVB+tRBGQjCw+AB19Xm0oitS0dRss6+nnrWvRfAsl81sF5nrN9ylNzZby4stWS50DRPUdRcim8GGqjrcHIL0H096PY7gPLa9Ay7VKCCOUn0AQclmKRvlYJoTPAPGB9Rjt80aA+MUMvrOh+KiDnv1YhucQCKxAIBC8YCAQTAMl0nRZBwX38poelFesUPze92wuXyaxEtG/p1nEsrSF/0zzbkVFRbm+CtI0UAg5JRATxTSX3XGHhTiUim9Pc5ksi8qcgJAN+u4jleRWEfuZWnrQaH2R3EoM4yDy4xLLop8pOKb5COQUfA/9KCXEdwtaEeh5WTONW1FB70X+ulkf8EepH1kLELz1Ef5cMjJdMFME4YHnEQi0/jwim5HBv4dZBGiBQ+msg8CcwjT97oED3ZBfwI5kAauAX2ENvsiexT04hf92Ol8O6eRSO5V89989u69vTUpFxTL14oRIeQmZlnEq07SjaycgIq8X4am75BILaS7n+jSRrcjSLpm2h7RbyC6k/AM5h2pLQWOMFypdi3zabOM9Xif7gcLHVgDGonBxnP+gexIIpoDzADNwKEm1UpOv3Va1YcPbpyxYcJm0HIdvKcT/cNOmTTvZobyDfYom4ikcW0/aXVMzuHD79tUQvJRnQyLGRU0vjiylChICRd3Lx9xfwSojWb9tgOwwFkSaLaKl5RJKJzR63lkR177SUa1X3XryP5t5DE6g2vl/H14cdSgBYg5gn/MTNKnwpptWfPKTnyzRnC+Tv3v37o3kb7rllls2jAKWect3vnPHuS0tF066665yR3Y8QY5E1Xfl0n4FkadpQsIgol1w9eJT3dO1+nCk0w47wHaA8kdI755+DOTzXNCuUh9GEYAMuWvi5Ku33nrrf/LPqtL0AxDN/fgC9UwJrxAfZVpY9/rGjf8xsaLiU1PuvDNdjp+0NF4QJABjhUANK6pevFZzGQRHvC7GEK7ZoJX7MvPv0MZ/k2+CePmRxxzUnw+HR+Cfbrjhhp9ccsklqfx/w0AI9PWSzgYQAn4Q3pXZwVfE5b/8ZeD5i1BFaakLY4VA5U4AnDbHC40TAJ7TjNDiCCf/v8RWCN9PetyCF4C/DuWlixcv/nsswdXsAqZxcBUcWunbhV27d/cOPv9862c2bVrPOcMi/IcSZwkkCE7bnRVQqqByBdUl3wcJ2hJoJO4k6qRUvwraRdpyvAmnzUOCF4BD4DjixSe4O5WDq+kcUolL+WpPEbWBuP81nEoIXUxMImag3fhkOmYaIZy0E7K3cZmgMgXqJaD9O8lqSd/KGl57VD54BDwCHgGPgEfAI+AR8Ah4BDwCHgGPgEfAI+AR8Ah4BDwCHgGPgEfAI+AR8Ah4BDwCHgGPgEfAI+AR8Ah4BDwCHgGPgEfAI+AR8Ah4BDwCHgGPgEfAI+AR8Ah4BDwCHgGPgEfAI+AR8Ah4BDwCHgGPgEfAI+AR8Ah4BDwCHoFRBP4Pv+L+m0xkALUAAAAASUVORK5CYII=;" vertex="1" parent="1">
          <mxGeometry x="-560" y="820" width="140" height="140" as="geometry" />
        </mxCell>
        <mxCell id="CyaymzP_PxcqaUdQ-rHQ-16" value="view#0" style="text;html=1;strokeColor=none;fillColor=none;align=center;verticalAlign=middle;whiteSpace=wrap;rounded=0;" vertex="1" parent="1">
          <mxGeometry x="-520" y="790" width="40" height="20" as="geometry" />
        </mxCell>
        <mxCell id="CyaymzP_PxcqaUdQ-rHQ-17" value="view#1" style="text;html=1;strokeColor=none;fillColor=none;align=center;verticalAlign=middle;whiteSpace=wrap;rounded=0;" vertex="1" parent="1">
          <mxGeometry x="-520" y="920" width="40" height="20" as="geometry" />
        </mxCell>
        <mxCell id="CyaymzP_PxcqaUdQ-rHQ-18" value="view#2" style="text;html=1;strokeColor=none;fillColor=none;align=center;verticalAlign=middle;whiteSpace=wrap;rounded=0;" vertex="1" parent="1">
          <mxGeometry x="-520" y="1060" width="40" height="20" as="geometry" />
        </mxCell>
        <mxCell id="CyaymzP_PxcqaUdQ-rHQ-27" value="" style="endArrow=classic;html=1;" edge="1" parent="1">
          <mxGeometry width="50" height="50" relative="1" as="geometry">
            <mxPoint x="-490.28999999999996" y="850" as="sourcePoint" />
            <mxPoint x="-490.28999999999996" y="820" as="targetPoint" />
          </mxGeometry>
        </mxCell>
        <mxCell id="CyaymzP_PxcqaUdQ-rHQ-29" value="" style="endArrow=none;html=1;startArrow=classic;startFill=1;endFill=0;" edge="1" parent="1">
          <mxGeometry width="50" height="50" relative="1" as="geometry">
            <mxPoint x="-490.28999999999996" y="973" as="sourcePoint" />
            <mxPoint x="-490.28999999999996" y="943" as="targetPoint" />
          </mxGeometry>
        </mxCell>
        <mxCell id="CyaymzP_PxcqaUdQ-rHQ-32" value="" style="shape=image;verticalLabelPosition=bottom;labelBackgroundColor=#ffffff;verticalAlign=top;aspect=fixed;imageAspect=0;image=data:image/png,iVBORw0KGgoAAAANSUhEUgAAAIgAAAB3CAYAAADYfgieAAAABHNCSVQICAgIfAhkiAAAAAlwSFlzAAAOxAAADsQBlSsOGwAAEKNJREFUeJztnX1MU9cbx7/lrUwQkCil6lQmFByIi1D2Yib7x6BYIYYtAQNEjIkxEJ0kbhBCmdnUqMOwoDNZ8mMumy/MZEaN86WEzagY3jZBZExRImwMEBRQKjR09/dH07N7oT29ra3cwvkkTc4p55x7yv3e5zzn5Z4j4ziOA4NhBY+prgBD2jCBMKh4iU2o0Whw48YNhy8UERGB+vp6h/NPZ7Zs2YKffvrJ4fx+fn74+++/nVij/xAtkOfPn2NoaMjhCz179szhvNMdvV7/Uv/b8fFxJ9ZGCGtiGFREWxA+kZGRSE9PtyvP3LlzHbnUjODDDz9EVFSUXXl+/fVXXLt2zUU14sGJJDExkQPAAeBSU1PFZmO4iJKSEnI//Pz8XHYd1sQwqDCBMKgwgTCoMIEwqDCBMKgwgTCoMIEwqDCBMKgwgTCoODTU7ir0ej36+vpI3N/fX9QQ/dOnTwWTXXPnzoW/v79L6jjTkJQF+fbbbxEWFkY+33zzjah8ubm5gny//fabi2s6c5CUQOrq6gTxhIQEu/N5eHggLi7OqfWayUhaIPHx8TbzDAwM4MGDByQeExMDPz8/p9dtpiIZgQwODqKtrY3EIyMjERQUZDNfQ0ODIC7W6jDEIRkn1dEb7Wiz5Ew6Oztx7949AEBUVBQWLlz4yuvgKiQjkNraWkHcFQIZGxtDdXU1rl27hr6+PgQGBiI2NhYbNmx4qQVNhw4dwpEjRwAAV65cYQJxBY5YAo7jBAuhZ82ahejoaItpz58/j+3bt6O7u3vS37y8vKDValFQUABvb287ay6su1qttju/lJGED8JxnOCf7O3tjRUrVtjM19XVhd7eXhKPi4uDl9dkzR8+fBipqalEHH5+fli5ciUUCgUA06JfrVaL9evX270AeGxsDLdv3wZg8pvmzJljV36pIwmBdHV1oaenh8TfeustyOVym/nEWB2dTofdu3cDAAICAlBRUYHh4WE0Njaip6cH9fX1WL58OUlbVFRkV92bmppgMBgAAG+//bZded0BSQjEUUdz4ns2E/MZjUZs27YN//77LwDgxIkTyMnJgYfHfz87Pj4eOp0OoaGhAICDBw/aNdDG952YQFyEsxzUiTfowoUL6OjoAACsW7cOGo3GYjkKhQJarZbEjx07Jur6ABPIK8ERC2I0GgVd45CQECxatEiQ5n//+x8JZ2dnU8vLzMyEp6cnAODkyZMYGRmxWQfgv7r7+voiNjZWVB53YsoFYjQa0djYSOIBAQFQqVQ287W1teH58+cknpCQAJlMRuIcx+HmzZskvnLlSmp5s2fPRnh4OADTpOHvv/9usw5PnjzB/fv3SfmO9ICkzpQL5O7du4KnVa1WC3wEa9jyP9rb2/H06VMAgFwux9KlS22Wye8iTxy4swTf8r3zzjvUtO3t7WhpaUFLSwsePXpks2ypMOUCcdRBvXXrliA+sf3v6uoiYZVKRZoPGsuWLSNh88goDX7drfkf4+Pj+OSTTxAREYHly5cjIyPDpe/SOpspHyhzRCAvXrzAmTNnBN9NnNjjrw8RM6czMZ2Yl81tOagDAwPIyMiATqcDAHz00UeoqKhwq7UqkrMgYmZwy8vLSfMBmLaWCA4OFqThC0TMmMrEdMPDw9S0/ME9hUIxyUFuamqCWq2GTqeDTCbD/v37UVlZ6VbiACRgQczdUMDUE1iwYAE1/eXLl1FYWCj4zpLV4QtErPPo4+NDwrYE0tHRgf7+fgAm68F3kCsrK7Flyxbo9XoEBQXh1KlTWLt2rag6SI0ptSAvXrwQ3IjR0VE8fvzYYtrR0VF8/vnn2LhxIxn4MmPJvPPbebFtvj15LDUvZn8jPT0der0eMTExaGhocFtxAFNsQeRyOTw9PWE0Gsl3a9aswY4dOxAREQFfX188fvwYdXV1+OGHH/Dw4UN4eHhAoVAI5mAsWZDAwEASHhsbE1UffrqAgABq2okO6nTwNywxpQLx8PDA6tWr8csvv5DvmpubsXXrVovp3333XRw9ehS7du0iArE2seeIQEZHR0nYlkDMFkQmk0Eul0OtVguay8LCQrcXByABJ7WsrAxvvPGG1b8HBwdj69atqKmpwc2bNxEbGysYo1ixYgV8fX0n5eMLxJY/YYY/HjN79myr6QwGA5mv8fb2RlJSkkAcAOye9JMqU+6kxsbGorm5GdXV1bh//z76+/sRHByM0NBQqNVqqFQqgQPo6ekpGEG1Bn8B0L179zA6OmpRSHz4N5nmLN+5c4dYJYPBAIPBgKioKHz33XdISkrC4OAgLl26hOvXr+P999+3WVcpM+UCAUzrMzZs2ODUMqOjo+Hj4wODwQCj0YiWlhabXei7d++SMG1ofuLkYkpKCr7//nsEBASgsLAQn376KQCgoKAAN27cEAjc3ZjyJsZVyOVygSD48z2W6O3tRXNzMwCTlaLNzPIdVK1Wi7NnzxKfJS8vD/PnzwcA1NTU4OLFiw7/BikwbQUCAFlZWSRcUVEBjrLr+PHjx0k4KSkJISEhVtOaLciSJUuwZ88ewdzRrFmz8Nlnn5F4UVHRpG65OzGtBZKZmUme7Lq6uknD82Z6enqwb98+Es/NzbVaJv/1DGtWZvPmzYiIiABg6pWdPn3aofpLgWktEH9/f5SVlZF4dnY2Tp06JbAkra2tSExMJD0djUaD5ORkq2Xye1DWBOLt7Y29e/eSeHFxMVmW6G5Ma4EApqc5JycHgGk8ZNOmTYiMjMTGjRuxatUqREdHk5nbmJgYwSIjS4hdQZaWlkZeAX348KHNciWL2P0y3XmfVKPRyJWWlnI+Pj7kN0z8pKWlcX19fTbLSklJ4QBwXl5enF6vp6a9evUqKV+pVHIjIyPO+kmvbJ9USXRzXY2Hhwfy8/ORlZWFyspK1NTUoLe3F0qlEiqVChqNxuaKMzPnzp0Tfd01a9ZQHWN3YEYIxMy8efOQl5eHvLy8qa6K2zDtfRDGy8EEwqDCBMKgwgTCoMIEwqDCBMKgwgTCoMIEwqDCBMKgwgTCoMIEwqDCBMKgwgTCoMIEwqDCBMKgwgTCoMIEwqDCBMKgwgTCoMIEwqDCBMKgwgTCoMIEwqDCBMKgwgTCoMIEwqDCBMKgwgTCoMIEwqAimbf7+/v7BdtbKhQKvPbaa3aX093dTXbz8fT0xOuvv+60Os5EJGNBysvLERYWRj4//vij3WX88ccfWLx4MSnjq6++ckFNZxaSEYj5aFIz/D1LxcBxHHbs2EE24VcqlSgpKXFa/WYqkhVIS0uLXfnPnj2LqqoqEi8tLaVup80Qh2QEEh4eLjjQxx4LotfrsWvXLhL/4IMPkJ6e7tT6zVQkIxBPT0+8+eabJN7Z2Sl6E/4DBw6gs7OTlHPkyJFXsv11Z2cnqqqqUFVVhb/++svl15sKJNOLAUzNDP840tbWVpunST58+BAHDhwg8Y8//lhweqWZsbExVFdX49q1a+jr60NgYCBiY2OxYcMGwcb/9nDo0CEcOXIEAHDlyhUsXLjQoXKkjOQEwufu3bs2BZKfn09OXlAqlYITtM2cP38e27dvR3d396S/eXl5QavVoqCgwO5zb/l7tqvVarvyuguSaWIA+3syly9fFmxLWVpaOukgoMOHDyM1NZWIw8/PDytXroRCoQBgOkZMq9Vi/fr1dh1XOjY2htu3bwMAIiMjMWfOHNF53QlJC4TWkxkbG8POnTtJPDExcZJjqtPpsHv3bgCmE6QqKiowPDyMxsZG9PT0oL6+nlxTp9PZdQhQU1MTGZCj7bjs7khKIEqlUnC8Kc2ClJWVkS20LTmmRqMR27ZtIyctnDhxAjk5OYKTGeLj46HT6RAaGgoAOHjwIDlJyhZit+R2dyQlEJlMhpiYGBLv7u4WnI9rpqenB1988QWJ79y5U5APAC5cuEBOkFq3bh00Go3FayoUCoHfcuzYMVF1ZQKZAP/ME/4plc5mYjNj6Yj04uJiMm9jbcSUv3l+dnY29ZqZmZnk6PaTJ08Kzq6zhtlB9fX1RWxsrM30zoZ/D1y53bdogTx69IiEHzx44JLKAJMF8ueffwrit2/fFtz8L7/8cpJjynEcbt68SeK29mGfPXs2wsPDAZgG3fhdbUs8efIE9+/fJ2Xb2/txBq2trSTsyqNGRAskLCyMhFUqlUsqA9AFwnEc8vPzyROTmJiIjIyMSWW0t7eTpkkul2Pp0qU2r8sfO+GfCWMJfvfWVje8vb0dLS0taGlpETxkLwv//yT26HlHkJQPAmCSL9HV1UXC586dI2fs0kZM+XlUKhVpPmgsW7aMhC01a3wmHqpsCfMp3BEREVi+fDkyMjLs6kZLBckJJCAgAIsXLybxvr4+ACYzau6yApYdUzNDQ0MkHBQUJOq6/HTPnj2jprXloA4MDCA5ORmHDh0CYDqF+9atW6IsmdSQnEAAoRUxn7BdXl6O9vZ2AEBoaCh1Kp8vELHml5+ONgfEcRyxIAqFAosWLRL8vampCWq1GjqdDjKZDPv370dlZaXbnsItSYHw29fe3l4MDQ0JurWWRkz58AUi1oH08fEhYZpAOjo60N/fD8BkPfhNXGVlJd577z10dHQgKCgIP//8MwoKCti5uc6GL5DHjx/j66+/xuDgIABg9erVFh1TPvy2Xmy7LzaPpebF7G+kp6dDr9cjJiYGDQ0NWLt2rahrSxlJTdaZ4QtkfHyczNZ6enri6NGjNp/IwMBAEjZP5NmCn45mnSY6qAMDA8jIyIBOpwNg8jcqKirctkmZiCQFEhkZCS8vL/Ikm5uMHTt2WHVM+TgikNHRURKmCcRsQWQyGeRyOdRqNRmxBYDCwsJpIw5Aok2Mj48PoqKiBN+FhoYKTrSmwReI2EVH/NFTa0sVDQYDmavx9vZGUlKSQBwA7JrwcwckKRAAuHPnDjiOI59//vmH+mTz4S8AunfvnsA6WIN/oxcsWGC1TmaLZDAYoNfrERUVhdraWtJNvnTpEq5fvy6qnu6AZAXyMkRHR5NeidFoFLUAmj9zbG1onu+gAkBKSgpqa2uRkJCAwsJC8n1BQYHbH4dqZloKRC6XIz4+nsQbGxup6Xt7e9Hc3AzA5AhbGx3lO6harRZnz54lVi0vLw/z588HANTU1ODixYsv9RukwrQUCABkZWWRcEVFBfWJPn78OAknJSUhJCTEYjqzBVmyZAn27NkjWFsya9YsgY9UVFQkmAF3V6atQDIzM8nTXVdXhzNnzlhM19PTg3379pF4bm6uxXSDg4Noa2sDYH3+ZfPmzYiIiAAANDc34/Tp0w7XXypMW4H4+/ujrKyMxLOzs3Hq1CmBJWltbUViYiLp6Wg0GiQnJ1ssjz/Da00g3t7e2Lt3L4kXFxe7dCr+VTBtBQKYnuicnBwApvGQTZs2ITIyEhs3bsSqVasQHR1NZm5jYmIE60wmInYFWVpaGuLi4gCYXsmglekWcCJJTEzkAHAAuNTUVLHZphyj0ciVlpZyPj4+pP4TP2lpaVxfXx+1nJSUFA4A5+Xlxen1emraq1evkrKVSiU3MjLizJ/EcRzHlZSUkGv4+fk5vXwzkhxJdSYeHh7Iz89HVlYWKisrUVNTg97eXiiVSqhUKmg0GpsrzgAIXq+wxZo1a6ZNN3faC8TMvHnzkJeXh7y8vKmuilsxrX0QxsvDBMKgwgTCoMIEwqDCBMKgwgTCoMIEwqDyf9eZ18KoJJrAAAAAAElFTkSuQmCC;" vertex="1" parent="1">
          <mxGeometry x="-490" y="700" width="33.14" height="29" as="geometry" />
        </mxCell>
        <mxCell id="CyaymzP_PxcqaUdQ-rHQ-33" value="" style="shape=image;verticalLabelPosition=bottom;labelBackgroundColor=#ffffff;verticalAlign=top;aspect=fixed;imageAspect=0;image=data:image/png,iVBORw0KGgoAAAANSUhEUgAAAH4AAAB4CAYAAAA0ekaVAAAABHNCSVQICAgIfAhkiAAAAAlwSFlzAAAOxAAADsQBlSsOGwAACqZJREFUeJztnVtIFF8cx7/u6mqaYkukdrN/5qXyUtlqPZS+iBFdoULfJHorvEGpiFqoSFRkWD0EFVFQ1oMIXQRF6SqahdcuVkoa5v0StV5ym/+DzGFHXXddZ3dmPOcDi/sb58z+dr/7O+fMzM58wVlJVFQUB4ADwB08eNDazTBEIicnh+jh5uZmdn0VGFTChKcUJjylMOEphQlPKUx4SmHCUwoTnlKY8JTChKcUR6kTmAu9Xo/e3l4SL126FMuXLzfbbmhoCCMjIyRevnw5li5dapMclYqsK/727dv477//yOPGjRsWtTt58qSg3fv3722cqfKQtfC1tbWCOCIiYt7tVCoVwsPDRc1rMaAo4bdv3262zcDAAL59+0bi4OBguLm5iZ6b0pGt8MPDw/j06ROJAwMD4enpabZdXV2dILa0l6AN2U7urBXQ2uFBTDo6OtDa2goACAoKwurVq+2egzlkW/E1NTWC2NbCcxyHO3fu4PLly5YlOAcXLlxATEwMYmJi8OHDhwVvzxbIVnhrBOQ4Dm/fviWxq6srNm/ebLZdc3MzDh06hISEBDx//nz+yU7DOHedTrfg7dkCWXb1HMcJPjwnJyeEhYWZbdfZ2Ymenh4Sh4eHw9FR+BabmprQ1taG7u5ufPz4EVVVVWhsbBQt9/HxcdTX1wOYmpcsW7ZMtG2LiSyF7+zsRHd3N4m3bNkCZ2dns+0s6SXy8/NRXFy88CRN0NDQgImJCQBAZGSkzV5noVgtvEajgaurK4CpihQTa8dp425+rnYajQZarRbbt29HdHQ0Kisr8fTpU+uSnYbx3MSewqvVaqIH/3curBZ+YmICer0eAPD3719rNzMrYk3sZvvg7969C0dHRzg4OJBlX758sSLL2ZFKeIPBQPQwfm+mkGVXb03FGwwGwS7gihUrsHbt2hnrid07TYfP3cXFBaGhoTZ9rYUgu1m9wWDAu3fvSOzh4YGAgACz7T59+oTfv3+TOCIiwqJvvpgMDg6S3mPbtm02/5ItBNlVfEtLC/78+UNinU4Hlcr899PS8d2WGPdUO3bsmHPdr1+/YmxsDADg7u4OX19fm+Y2HdlVvLUTu+rqakEsxYzaOHdTrz85OYkzZ87A398fISEhiI+Px+TkpL1SJMiu4q0RfnR0FI8ePRIss+SEjtiYm9gNDAwgPj4e5eXlAICjR4/i1q1bkvxWQPYVb4mARUVFGBoaIrG/vz+0Wq3ouc2F8UEnLy+vGRPLhoYG6HQ6lJeXw8HBAQUFBSguLpbsByKyq/j29nby3MXFBatWrZpz/bKyMmRkZAiWSTG+t7e3o7+/H8BUtRtPLIuLi3H8+HHo9Xp4enri/v372LNnj91zNEZWFT86Oopfv36ReGxsDH19fbOuOzY2htzcXBw+fBj//v0T/E+K8X22bp4fz+Pi4qDX6xEcHIy6ujrJRQdkVvHOzs5Qq9UwGAxkWUxMDBITE+Hv7w8XFxf09fWhtrYW9+7dQ1tbG1QqFby8vATH6KWe0UdGRspqPJ8NWQmvUqmwe/duVFVVkWWNjY04ceLErOvv3LkT165dQ0pKChHe0hM6YsNXvIODA5ydnaHT6QTDVkZGhmxEB2TW1QNAYWEh1q9fb/L/Wq0WJ06cwJs3b/D69WuEhoYKjtiFhYXBxcXFHqkSJiYmyA86nZycEBsbKxAdADIzM+2akzlkVfEAEBoaisbGRlRWVuLLly/o7++HVquFt7c3dDodAgICBBMntVotOGInBU1NTRgfHwcw9SWYmJhAUFAQ7ty5g9jYWAwPD+PZs2d4+fIldu3aJWmuPLITHgDc3Nywf/9+qdOwmOknlQ4cOIC7d+/Cw8MDGRkZSEtLAwCkp6fj1atXdj+UPBuy6+qViPHELjs7GyUlJfDw8AAAnDp1CitXrgQAvHnzBk+ePJEkx+kw4UWAr/h169bh3LlzgnMLrq6uOHv2LIkzMzNn7H5KARN+gRj/DNzU8YOEhAT4+/sDmNpLefDggd3yM4Usx3hb0tbWNuOXr9+/fyfPu7u78fjxY8H//fz8sHHjxlm3Z7xHYUp4Jycn5Ofn49ixYwCArKwsHDlyBBqNxqr3IArW3ldNqfe5u3z5Msnb0kdaWprJ7eXl5ZH1Xr9+bXI9g8HAhYeHk3WvX78u6vti97mzM/zEztHREVu3bjW5nkqlQkFBAYlzc3PJT6WkgLquPjk5GcnJyaJtr7S01OJ1Y2JiwHGcaK+9EFjFUwoTnlKY8JTChKcUJjylMOEphQlPKUx4SpHl1bKM+bMorpZlzJ/5Xi3LunpKYcJTChOeUpjwlMKEpxQmPKUw4SmFCU8pTHhKYcJTChOeUpjwlMKEpxQmPKUw4SmFCU8pTHhKYcJTChOeUmR7tWx/f7/gblZeXl5YsmTJvLfT1dVFPGLUajXWrFkjWo5KRrYVX1RUJDAGfvjw4by38fHjR/j6+pJtXLlyxQaZKhPZCh8SEiKIW1pa5tWe4zgkJiaSe8H7+PggJydHtPyUjmKEb25unlf7kpISVFRUkPjSpUtwd3cXJbfFgGyF37Bhg8Brbj4Vr9frkZKSQuLo6GjExcWJmp/Ska3warUamzZtInFHR4fgluZzcf78eXR0dJDtXL16VRZ3k5QTshUemNndW2LQ29bWhvPnz5M4OTnZIn9ZMejo6EBFRQUqKirw48cPu7ymtShKeEu6+9TUVHJDYR8fH2RnZ5ttw4nkJK0EF2meRSV8WVmZ4C5Uly5dIveUNYWYTtJKcJHmkfXVsvOZ2Y+PjyMpKYnEUVFRMyZ0tnSSltpFelFdLevj4wOtVovBwUEAc1d8YWEhWltbAZie0NnSSVpqF+lFdbWsg4MDgoODSdzV1SWwGePp7u5GXl4eiZOSkgTtjNFoNPD29sa+fftw8eJF7N27V5RcpTITthbZHqvnCQkJwYsXL0jc2to644PNysoix/XnOkJnSydppQkv64oHZo7znz9/FsT19fW4efMmiS9evGhyQufk5GSz/XmluEjzKFp4juOQmppK7g8bFRWF+Ph4u+YHKMtFmkf2Xf30sbqzs5M8Ly0tJVZlUh6hU5KLNI/sK97Dw0Pw4fT29gKY2qs4ffo0WT7XhM7WKMlFmkf2wgPCqueNBYuKivD161cAgLe3t6SnXC1xkd67dy8uXLgAYMp1srq6Gn5+fnbLcTqKEN54nO/p6cHIyIhg982SI3S2glOYizSP7Md4QCh8X18frl+/juHhYQDA7t27JZnQ8SjNRZpHcRU/OTlJzr6p1Wpcu3ZN0lOuSnOR5lFExQcGBsLR0ZFMhkZGRgAAiYmJkk3oeJTmIs2jiIrXaDQICgoSLPP29hYY+UnFbC7SvOiA/FykeRQhPDB1Zo3jOPL4+fOnZBM6HiW6SPMoRng5Mt1FWq/XIygoCDU1NfD09AQA4iItN5jwC2A2F+mamhpEREQgIyODLE9PT5eN7RgPE34BKNFFmocJvwCU6CLNw4S3EqW6SPMoYj9eLMR0klasizSPte7FSnSTFtNJWi4u0jzMTdpOKNVFmoeqrl5MJ2mlukjzsIqnFCY8pTDhKYUJTylMeEphwlOKrK+WZVjOorpalmE5i+pqWYbtYMJTChOeUpjwlMKEpxQmPKUw4Snlf7RYo6zhZMhXAAAAAElFTkSuQmCC;" vertex="1" parent="1">
          <mxGeometry x="-470.00000000000006" y="850" width="30" height="28.57" as="geometry" />
        </mxCell>
        <mxCell id="CyaymzP_PxcqaUdQ-rHQ-34" value="" style="shape=image;verticalLabelPosition=bottom;labelBackgroundColor=#ffffff;verticalAlign=top;aspect=fixed;imageAspect=0;image=data:image/png,iVBORw0KGgoAAAANSUhEUgAAAJkAAABrCAYAAABkBiCoAAAABHNCSVQICAgIfAhkiAAAAAlwSFlzAAAOxAAADsQBlSsOGwAAEFhJREFUeJztnX1MU9cbx7/ltfI2xmAF50Q3eclAndo6JQgsgNMtsiyAkcw/cNnMdMY3MoJDRWGGEHSy6PYHm84lS5AtavzDiZPoIqBWiuNlTCdvggtW3oSBpUXK+f1BOL9egfbette19HwSkj635zn3Ub4897nPue0BsZDY2FgCgAAg77//vqXTMSwkJyeH/j48PT3/63AIIYQ4gcEQGSYyhugwkTFEh4mMITou/3UAfNBoNOjq6qK2l5cX/P39Tfo9fvwYAwMD1Pb394eXl5coMTKmxy4y2Q8//ID58+fTn+LiYl5+n332Gcfv9u3bIkfKmAq7ENmtW7c49vLlywX7OTk5YdmyZVaNi8EPuxSZXC436dPb24uWlhZqR0ZGwtPT0+qxMUxj8yLr7+/H3bt3qR0WFgZfX1+TfiqVimPzzX4M62Pzhb+5YjH3EmtNOjo6cO/ePQBAeHg45syZ89xjsAVsXmRKpZJjW1tkhBAolUrU1taiqakJg4ODkMlkkMvliI+Pt+hutLCwEMePHwcAXLp0iYnMXGbNmkVrHalUanFAz2JORiKEoLq6mtoeHh6IiIiYNE6lUiEzMxNXr16dch5PT09kZGQgKysLs2bNEhg5N3aFQiHY3xzc3Nzo78NmalBLFz/FXCAfGxsjgYGBdH5XV1ei1WpN+rW3t1MfAGTVqlWTxly7do24u7tzxgUEBBCJRMI5BoAoFAqiVqsFxa7VaombmxsBQMLCwgT5WgJbIBfIgwcPoFarqf3mm2/C3d3dpJ+p7Nfc3IykpCTodDp4eXnh5MmTUKvV6OrqwtDQEKqqqhAXF0fHV1dXIyUlBU+fPuUde11dHUZGRgAAb731Fm+/mYhNi8zc4t3wUjmVX25uLvr7++Ht7Y3q6mps2rQJMpkMwPilNSoqCleuXEF2djb1qays5N0EBri1JBOZDWOtot/wl9zR0YGSkhIAQF5eHsLDw6ecQyKR4MCBA5yeXGFhIQghgmNnIrNhzMlker2e0/Z4+eWXMXfuXGprtVpIpVIEBARg69atRudycXHBrl27qN3e3o47d+4Iil0qlWLRokW8fGYqNisyvV6Pmpoaavv4+CA0NNSk3927dzE0NETt5cuXQyKRUDs0NBSnTp1CamoqXF1dTc63ePFijt3c3GzSp6+vD01NTQCApUuX8jrPTMZm+2SNjY148uQJtRUKBZycTP9NmKrHACA5ORmrV6/mFcfs2bM5Np/i3zADr1ixwujY5uZmaLVaAIC3tzeCg4N5xWVP2GwmM7fov3HjBseerh7y9vbmNZ/h+icAvPHGGyZ9DGOf7vyjo6PIzMxESEgIFi5ciLS0NIyOjvKKyd6w2UxmjsiGh4fxyy+/cI7xWUw3RlVVFX0tk8mwYMECkz6miv7e3l6kpaXh8uXLAIDU1FScPHlyxj7rZjeZjI9Yjh07hsePH1M7JCQEfn5+Zseg0+lw+PBhau/du9dkfUUIobHLZDLOTQcw3j9TKBS4fPkyJBIJ8vPzUVpaOmMFBthwJmtra6OvpVIpXnnlFaPjy8rKsGfPHs4xSxfFs7Ky8M8//wAAYmJisHnzZpM+bW1t6OnpATCexQxvOkpLS/HRRx9Bo9HA19cXJSUlWLNmjUUx2gM2mcmGh4fx77//Ulur1aK7u3vKsVqtFnl5efjggw8wNjbGec+S/lRxcTGKiooAjNdhZ8+ehZubm0m/qS6VE/XXhg0boNFoEBkZCZVK5RACA2w0k7m7u8PZ2Rl6vZ4eS0xMxPbt2xESEgKpVIru7m7cunULP/30E1pbW+Hk5ASZTIZHjx5RH3Mz2ffff49PP/0UwPhl+uLFi3jppZd4+T5b9Dta/TUlli5+irVA/vbbb09aqJ7uZ+XKleT27ducWFxdXcnw8LDg8x45coTOsXHjRqLRaAT5r1y5kgAgEomEVFRUkPnz53NivX37tuCYhGCLC+Q2K7K6ujry2muvTSssPz8/8vHHH5Pr16+TsbExMjo6Sjw9Pen7crlc0Pn0ej3JyMggAIizszM5evQoGRsbEzSHTqejT3a4ubkRDw+PSXGvXbtW0JxCsUWR2eTlEgAWLVqE+vp6XLlyBU1NTejp6YGfnx8CAwOhUCgQGhrKKaqdnZ05nX4hjIyMID09HSUlJfDx8cGZM2eQkJAgeJ6GhgbodDo658jICMLDw/Hjjz/inXfeQX9/Py5evIiKigqsWrXKrFjtEktVau9fuDI4OEgSEhIIADJ79mxSV1dn9lzffPMNJ2slJSWRgYEBQgghBQUF9HhUVJTgLMkXW8xkNnl3+bzo6+tDQkICysvLERERgZs3b1q0mG1Y9O/fvx/nzp2Dj48PAGDbtm10ier69eu4cOGCZcHbEQ4rss7OTsTExECpVCIuLg6VlZV49dVXLZpzon0xb948HDx4kLPW6uHhgQMHDlA7Ozt7UstlpuKQImtpaUF0dDQaGxuRlpaGsrIyXh+zM4bhR/em68+lp6cjJCQEAFBfX4/Tp09bdE57wWYLf7EYHh5GdHQ01Go1JBIJ7t+/j/j4ePq+Xq83+qRFTk4O1q1bN+m44TNs04nM1dUVhw4dwvr16wEA+/btQ0pKCq8mrz3jcCLT6XT0cwOEkElPbZiit7d3yuN8n4RNTk7GsmXLUFNTg9bWVpw4cQJbtmwRFIO94ZCXSzGYKPpdXFywZMmSacc5OTkhPz+f2nl5edBoNKLH91/icJnM19eX93P6Qjh//jzvsYmJiaLEYKuwTMYQHSYyhugwkTFEh4mMITpMZAzRYSJjiA4TGUN0mMgYosNExhAdJjKG6DCRMUSHiYwhOkxkDNFhImOIDhMZQ3SYyBiiw0TGEB0mMoboMJExRIeJjCE6TGQM0WEiY4gOExlDdJjIGKLDRMYQHSYyhugwkTFEh4mMITpMZAzRYSJjiI7Nf3VUT08P56vTZTIZZs2aJXiezs5OuvG8s7Ozxd8Py+CPzWeyY8eOYf78+fTn559/FjzHnTt3EBwcTOf4+uuvRYiUMR02L7KFCxdy7MbGRkH+hBBs376dblgaFBSEnJwcq8XHMI3diezPP/8U5H/u3DmUl5dT+8iRI7x37WVYB5sX2YIFC+Du7k5tIZlMo9Fg165d1I6Li8OGDRusGh/DNDYvMmdnZ86+3x0dHZy9MI1RUFCAjo4OOs/x48c5+zGJRUdHB8rLy1FeXk43ZXVkbP7uEhi/ZP7xxx/U/uuvv7BixQqjPq2trSgoKKD2zp07ERERwRlDCIFSqURtbS2ampowODgImUwGuVyO+Ph4s/ekLCwsxPHjxwEAly5dwpw5c8yaZ6ZgNyIzpLGx0aTIdu/eTXdsCwoKwv79+znvq1QqZGZm4urVq1P6e3p6IiMjA1lZWYJbJoZ7LCkUCkG+MxGbv1wCwu8wy8rKOF95fuTIEbqRFgBUVFQgOjqaI7CAgADOpfTJkyfIzc1FbGwsZzdgU+h0OtTW1gIAwsLC8OKLL/L2nanYpciM3WHqdDrs2LGD2rGxsZxiv7m5GUlJSdDpdPDy8sLJkyehVqvR1dWFoaEhVFVVIS4ujo6vrq5GSkqK0a1wDKmrq6NNX0v2QJ9J2IXIgoKC4OfnR21jmayoqAj37t0DMHWxn5ubi/7+fnh7e6O6uhqbNm2CTCYDML6TW1RUFK5cuYLs7GzqU1lZieLiYl6x8t3+xqGwdMPM57WpakxMDGfD0r6+vkljHj58SLy8vOiY3bt3c95vb28nLi4uBAApKioyer6nT58SuVxO5woODua1EeqHH35IfVQqlbB/pBVgm6pawLOXzIlsZci+ffvoOudUnX2tVgupVIqAgABs3brV6PlcXFw4Pbb29nbcuXPHZJwTRb9UKrVog9aZhN2K7O+//+bYtbW1OHHiBLUPHz7MKfYBIDQ0FKdOnUJqaipcXV1NnnPx4sUcu7m52ej4vr4+NDU1AQCWLl3K6xyOgF20MADjIiOEYPfu3XRTrNjYWKSlpU05T3JyMlavXs3rnBPbOU9gqvg3bF2YarE0NzdDq9UCALy9vREcHMwrJnvEbjJZZGQkx37w4AF9ff78edqO4NPZ57t22dLSwrENVx6mwlBk0xX9o6OjyMzMREhICBYuXIi0tDS6eD9TsRuR+fj4cP7au7q6AAAjIyP4/PPP6fEdO3ZMEqS5VFVV0dcymQwLFiwwOt7UnWVvby/effddFBYWAgBSU1Nx48YNvP7661aJ11axG5EB3Gw20SA9duwYrZUCAwOt9hiPTqfD4cOHqb13716jNRYhhGYymUyGuXPnct6vq6uDQqHA5cuXIZFIkJ+fj9LSUrOXruwJuxKZYV326NEjDAwM4Msvv6THnu3sW0JWVhZd3I6JicHmzZuNjm9ra0NPTw+A8SxmeLkuLS1FVFQU2tra4Ovri19//RVZWVnPZbHeFrBbkXV3d+Pbb79Ff38/gHEhTFfsC6W4uBhFRUUAxuuws2fPmtyMfqpL5UT9tWHDBmg0GkRGRkKlUmHNmjVWidNusLTR9ryasYQQUl9fz2nIvvDCCwQAcXZ2Jg0NDVY5x3fffUckEgkBQORyOenu7ublt3PnThpXeXk56enpIYmJifRYamoqGRwctEqMxmDNWAsJCwuDi8v/uy4DAwMAgO3bt1ul2P/qq6/wySefgBCCjRs34tq1a/D39+flO5HJJBIJ3N3daf01wZ49exyi/poSS1X6PDMZIYRERkZysllgYCAZGBiwaE69Xk8yMjJoVjx69CivJaQJdDodcXd3JwCIm5sb8fDw4MQIgKxdu9aiGPnCMpkVaGhoACGE/jx8+NCiYn9kZAQbN26kNw1lZWXYuXOnoKK8oaGBPrs2MjICjUaD8PBwKJVK+Pr6AgAuXryIiooKs+O0Z+xOZNZkaGgI7733HkpKSjB79mxUVFQgISFB8DyGRT8AJCUlQalUYvny5dizZw89npWVRVclHAmHFVlfXx8SEhJQXl6OiIgI3Lx50+wFbcNO//79+3Hu3DmaXbdt20aXp65fv44LFy5YHryd4ZAi6+zsRExMDJRKJeLi4lBZWWnRJ8onMtm8efNw8OBBODn9/7/Vw8MDBw4coHZ2djbGxsbMPpc94nAia2lpQXR0NBobG5GWloaysjJaN5lDf38/7t69C2D69cr09HSEhIQAAOrr63H69Gmzz2eP2M1TGNZgeHgY0dHRUKvVkEgkuH//PuLj4+n7er3e6JMWOTk5WLduHeeYSqWir6cTmaurKw4dOoT169cDGH/uLSUlxWSDd6bgUCLT6XRQq9UAxtcab9y4Ici/t7d30jG+j1snJydj2bJlqKmpQWtrK06cOIEtW7YIOr+94nCXS2szUfS7uLhgyZIl045zcnJCfn4+tfPy8qDRaESPzxZwqEzm6+tr9RaC4UfvTJGYmOiQLQyriuz333+HXC4X5BMcHIwzZ85YM4wZwxdffIHffvtNkE9nZ6dI0ZiPVUU2MDCAmpoaQT6GX3DH4NLa2ir4/9MWYTUZQ3QszmSJiYkWfaFIUFCQpSHMWKKjozlPnQjF8Cu3/kskxBErUcZzhV0uGaLDRMYQHSYyhuj8DwpzBQuhAJmWAAAAAElFTkSuQmCC;" vertex="1" parent="1">
          <mxGeometry x="-540" y="970" width="42.9" height="30" as="geometry" />
        </mxCell>
        <mxCell id="CyaymzP_PxcqaUdQ-rHQ-35" value="" style="shape=image;verticalLabelPosition=bottom;labelBackgroundColor=#ffffff;verticalAlign=top;aspect=fixed;imageAspect=0;image=data:image/png,iVBORw0KGgoAAAANSUhEUgAAAMsAAAB2CAYAAABmr2eYAAAABHNCSVQICAgIfAhkiAAAAAlwSFlzAAAOxAAADsQBlSsOGwAAGMdJREFUeJztnXtMVFcex7/DzDC8oUYBabUvhqEF6foY6ppWSBpD6w6oWy3QtLiaNaZAQGugSyiIVeP6QNmqmKxWqxUJ27goVsRlA3HNQBFQFMQWWIyYFkbk4bIijDPc/YPM2XthHhccZu7I+SQT7rn8zrm/+c393fP6nXPB8CQiIoIBwABgVqxYwTcbhSI4tm7dSu5ld3d33vmcQKFQeEGdhULhicTeCpijuroaBQUFJJ2amgq5XG5HjSjTGcE6S3t7O6Kjo9HT00POlZeX48cff8QLL7xgR80o0xVBNsP6+/uhUqmIo7z22msAgJaWFqxevRpPnz61p3qUaYrgnOXp06f46KOPcOfOHQDAhg0b0NTUhKVLlwIAKioqkJSUBIZh7KkmZRoiKGdhGAapqakoLy8HAKxYsQL5+flwdXVFSUkJ3nrrLQDA0aNHsX//fnuqSpmGCMpZDh48iCNHjgAA3nnnHRQWFkIiGe1WeXt749KlS6RJlpaWhpKSErvpSpl+CMZZSktLsXnzZgBASEgISkpK4OrqypGZPXs2Ll++DF9fXzAMg48//hgNDQ32UJcyDRGEszQ1NSEuLg4jIyOYM2cOysrKTI54BQYGoqysDJ6ennj8+DGio6PR2dlpY40p0xG7O4tOp0NeXh7Cw8OxbNkyXL58GS+99JLZPPPnz0dJSQnee+89KBQKfP3117TDT5ly7D7PIpFIcOzYsQnni4yMRGRkpPUVolBMYPeahUJxFKizUCg8sXszjM3g4CAePHhA0h4eHpg5c6bFfH19fXj06BFJz5w5Ex4eHlOiI2X6Iqia5cSJE3j11VfJ569//SuvfElJSZx8169fn2JNKdMRQTnLtWvXOOnw8PAJ53NycsLChQutqheFAgjcWRYtWmQxT09PD/7973+TdGhoKNzd3a2uG4UiGGfp7+/HTz/9RNIKhQI+Pj4W89XV1XHSfGsjCmWiCKaDP9mbfrJNN2vR0dGBlpYWAEBwcLDFCVUKF0eyn2CcpaamhpOeCmcZHh5GRUUFrly5ggcPHsDb2xthYWGIjo7mNepmjL179+LQoUMAwCv64HmBYRicOnUKvb29JKZvMjiU/fjubDHVu7vExMSQ8gEwNTU1FvOMjIwwfn5+JI+bmxvz9OlTo7Lnz59nAgICONcwfCQSCfPVV18xWq12wnqHh4eTcnp7eyec3xFpbGwkv9ez3gv2sN9kd3cRRM3CMAynhpBKpWTtijnu378PjUZD0gsXLiQh/Wz279+PLVu2kLS7uzsUCgV++eUXaDQa6HQ6ZGdn4+rVqygtLTVahjGGh4dJ1LNCoXgulzs3Njaivb0dXV1duHPnDiorK3Hr1i2rlO1o9hOEs9y/fx9dXV0k/Zvf/AYymcxiPj5NsPLycqSlpQEAvLy8kJeXh7Vr18LJaXRso66uDuvXr0djYyPKy8uRmZmJ3bt389L75s2b0Gq1AIC3336bVx5HY+fOnSgqKpqSsh3NfrxHw5ydneHm5gY3NzdIpVKrKjHZTnptba3ZfHq9Hhs3bsTIyAgAoKCgAOvWrSOOAowOT5eXl8Pf3x8AsGfPHt6Tmux+liP82JPF2dkZ/v7+UKlU2LdvH5YvX26Vcu1lP7FYTO5lNzc33vl41yxarRaDg4MAYPUNI6zVuR9r8AsXLuDu3bsAgA8++AAqlcpoOX5+fsjOzkZiYiIA4MiRIzh69OiE9H5eneW7776DRCKBSCQi51pbW61Str3sp9fryb3M/l6WEMQ8y2RqFr1ezxlu9vX1xdy5czky33zzDTlOSEgwW94nn3wCsVgMADhz5gweP37MW28XFxeEhYVZlLcH169fx+rVq3H//v1J5ZdKpRO6oSaCI9iPjd2dRa/Xo76+nqS9vLwQFBRkMd9PP/2E//73vyQdHh7O+VEZhoFarSbpBQsWmC3P09MTgYGBAEYDOm/cuGFWvre3lzxhFyxYYPWmqbUYGBjA2bNncfr0aXurwsFR7MfG7s5y+/ZtzlNcqVRy+hSmsNRfaWtrQ19fHwBAJpPh9ddft1hmSEgIOR47SToWdm24ePFis7JtbW1oampCU1MT7t27Z1EPaxIeHg4PDw8UFhba9LqWcBT7sbG7s0y2c19dXc1Jj23zspsdQUFBpIlljjfeeIMcG2aVTcHW21R7W6fTIT09HXK5HPPmzUN8fDx0Op1FPayJq6srYmNj0djYaPEBYEscxX5sHNJZnjx5gu+//55zbmzQJXt9C58Ys7FyAwMDZmUtdU57enqwfPly7N27FwCwZs0aVFdX86rhrE1aWhrEYjESExOh1+ttfn1jOJL9DAjOWfhEGh88eJA0sQBALpdjxowZHBm2s/CZsxkr95///MekHHsS1c/Pb9zAws2bN6FUKlFeXg6RSIRdu3ahqKjIbgvSFAoFkpKSUFtbiwMHDthFBzaOZj8Ddp+UNAztAqOjIi+++KJZ+bKyMmRkZHDOGauN2M7Ct/Po7OxMjs05y927d/Hw4UMAo09F9sBCUVER1q9fj8HBQfj4+KCwsBDvv/8+r+tPJXv27EF9fT3S09Ph7u6Ozz77zG66OKL9ADvXLE+ePOHclENDQ+ju7jYqOzQ0hO3bt2PVqlVkktGAsWqc3bbl287lm8dYE8LQvo6Li8Pg4CBCQ0NRV1cnmB9aJpOhuLgYgYGBSExMxJdffmm3Jpkj2g+wc80ik8kgFos5P9qyZcuQkpICuVwOFxcXdHd349q1azh9+jTa29vh5OQEPz8/TkyYsZrF29ubHA8PD/PShy3n5eVlUm5s57Snpwfx8fFkj+Y1a9bg+PHjdm82jGXWrFlQq9WIiYnBzp078f333yMzMxPx8fE2Hbp1VPvZ1VmcnJywdOlSVFZWknO3bt3CH//4R6Pyv/3tb3H48GFs3ryZOIupoMvJOMvQ0BA5NucshiejSCSCTCaDUqnkNCczMjJ4/9AbNmxAcXGxTUd5DNdqaWnB2rVrkZOTgxMnTiAiIsIm17em/WyJ3fsseXl5WLVqFdrb243+f8aMGfj973+P9evXY/HixRgZGeEMgb711ltwcXEZl4/tLOb6H2zY8z2enp5GZbRaLYkdk0qliIqKIqETBjIzM1FaWsrrmiEhIejo6LBpk6izsxPNzc0ARm9YpVJpsa9oLaxtP1tid2cJCwvDrVu3UFFRgdbWVjx8+BAzZsyAv78/lEolgoKCOB1AsVjMmbk3BXsxV0tLC4aGhow6FRv2083UzdPY2EhqKq1WC61Wi+DgYJw8eRJRUVHo7+/HpUuXcPXqVbz77rsW9dy0aRM2bdpkUc5aNDQ04He/+x1EIhHWrl2LjIwMXhET1sLa9rMpfBe+ONqrvYeGhhhnZ2eic21trcU8YWFhRL6kpMSozOHDhzkLx2JiYphHjx4xDMMwu3fvJueXLFnCjIyMWPU7PSs3btxgPDw8GBcXF+bvf//7pMvZuHHjpO8FIdiPvtp7DDKZjDNnw44/M4ZGoyGLmsRisclZZXbnNDs7G8XFxaR/k5ycjICAAABAVVUVLl68+EzfwZp0d3dj5cqVkEqlqKysxKpVq+yih6PaDxDApORU8umnn5Lj48ePm91p/9tvvyXHUVFR8PX1NSpn6Jy+8sor2LZtGyeOzc3NDTk5OSSdmZk5bpjbXiQlJeHevXvIz8+3GIs1lTiq/QA8v80whmGYgYEBxsvLi+hdVFRkVK6zs5Mjd/HiRaNyfX19RCY2NtaojFarZeRyOZErKCiw2veZLGq1mgHAREdHW6VpM9lmmFDsR5thRvDw8EBeXh5JJyQkoLCwkFPDNDc3IyIigoyYqVQqkysB2aNwppppUqkUO3fuJOmsrCyydNZe5Obmkr8TXZvS3t6OH374gfNhR/52dXWN+7/h5bljcVT7Efh6lSPWLAwzugPMunXrOJ1KuVzOrFy5klmyZAnnfGhoKKPRaEyWtWPHDiKrVqtNyun1embhwoVENj8/fyq+Gi/6+voYiUTCKJXKSeU/cOCA0R1xzH2++OILo2UJxX60ZjGBSCTCsWPHkJubS2K/Wltbce7cOVRVVRG5Dz/8EBUVFSb7KsD/O6cSiQTz5883Kefk5IRdu3aR9Pbt28fNJdgKtVoNnU6HuLg4u1yfjSPaj42IYfi9Xy4yMhJXrlwBMPrK7XPnzk2pYlNBd3c3ioqKUFVVBY1Gg9mzZyMoKAgqlcriSkpHpaOjAydPnkRKSgpnonY6k5OTg23btgEY3RaLz7wdIIBJSVsya9YsJCcnIzk52d6q2Iy5c+ciKyvL3mo8Fzz3zTAKxVpQZ6FQeEKdhULhCXUWCoUn1FkoFJ5QZ6FQeEKdhULhCe95FsMu+gD/3VIoFCFi2EUfgOPtok+h2BKH3kWfQnEEqLNQKDyhzkKh8IQ6C4XCE+osFApPqLNQKDyhzkKh8ETwi7+qq6tRUFBA0qmpqZDL5XbUiDJdEbSztLe3Izo6Gj09PeRceXk5fvzxR7zwwgt21IwyHRFsM6y/vx8qlYo4ymuvvQZgdN/i1atX0ygCis0RpLM8ffoUH330Edl/asOGDWhqasLSpUsBABUVFUhKSjK7wySFYm0E5ywMwyA1NZW82GbFihXIz8+Hq6srSkpKyLtYjh49iv3799tTVco0Q3DOcvDgQRw5cgQA8M4776CwsBASyWjXytvbG5cuXSJNsrS0NJSUlNhNV8r0QlDOUlpais2bNwMYfclPSUkJXF1dOTKzZ8/G5cuX4evrC4Zh8PHHH6OhocEe6lKmGYJxlqamJsTFxWFkZARz5sxBWVmZyRGvwMBAlJWVwdPTE48fP0Z0dDQ6OzttrDFluiEIZ9HpdMjLy0N4eDiWLVuGy5cv46WXXjKbZ/78+SgpKcF7770HhUKBr7/+mnb4KVOKIOZZJBIJjh07NuF8kZGRiIyMtL5CFIoRBFGzUCiOAHUWCoUngmiGPXz4kLOTuZ+f37hRMD78+uuv5MU3YrEYc+bMsZqOFIogapaDBw/i1VdfJZ+//e1vEy7jzp07ePnll0kZf/nLX6ZAU8p0RhDOMm/ePE769u3bE8rPMAxSUlKg0+kAjM7FbN261Wr6USiAQJ2lqalpQvmLi4vxz3/+k6Rzc3Ph6elpFd0oFAOCcJbAwEDIZDKSnkjNMjg4SGb9gdHhZCG8Eo7y/CEIZxGLxXjzzTdJuqOjg7w92BK7d+9GR0cHKefQoUMTfiMvhcIHQYyGAaNNsRs3bpB0c3MzFi9ebDZPe3s7du/eTdKbNm1CSEjIlOk4lo6ODrS0tAAAgoODLUYdULg4mv0E5Sxsbt++bdFZPv/8cwwPDwMY7dRnZ2cblRseHkZFRQWuXLmCBw8ewNvbG2FhYYiOjsbMmTMnrfPevXtx6NAhAOAVovM8wDAMTp06hd7eXk7zdzI4nP34vgM8IiKCvDt8xYoVE3rvOB/Kyso471LfvHmzWflLly5x5M+cOWNU7vz580xAQIDR97VLJBLmq6++YrRa7aR0Dg8PJ2X19vZOqgxHorGxkYmJibHaPWAv+23dupVc193dnXc+weyiP5ERseHhYaSmppJ0RESE0U79/v37sWXLFpJ2d3eHQqHAL7/8Ao1GA51Oh+zsbFy9ehWlpaVk3QwfhoeHydIAhULx3O0J0NjYiPb2dnR1deHOnTuorKzErVu3rFa+Pe032V30BVOzjIyMMDNmzCDXCAgIMCn75z//mciJxWKmsbFxnMw//vEPxsnJiQHAeHl5McePH2f0ej35f21tLTNv3jxSTnp6+oT0rampIXkTEhImlNcRiI2NNVobW+sesKf9JluzCGI0DBjd+j80NJSkf/31V/T19Y2T6+rqwo4dO0g6NTWVkw8YfaXAxo0bMTIyAgAoKCjAunXr4OT0/6+7aNEilJeXw9/fHwCwZ88eXL9+nbe+NTU15Pjtt9/mnc+RcHZ2hr+/P1QqFfbt24fly5dbrWxHtJ9gnAUY3xQzjJSwycrKInFkpmbqL1y4gLt37wIAPvjgA6hUKqPX8/Pz4wwKGJYz88ERf+yJ8N1332FoaAidnZ24cOECtmzZYtVYO0e0n6Cd5eeff+akGxoa8M0335D0vn374OXlNa4ctkxCQoLZa37yyScQi8UAgDNnzuDx48e8dL127RoAwMXFBWFhYbzy2Jrr169j9erVuH///oTzSqXSKZ2vcgT7jcVhnIVhGHz++edkNWRERATi4+PHlcEwDNRqNUkvWLDA7DU9PT0RGBgIYDQagD3XY4re3l60traS8oX62sCBgQGcPXsWp0+ftrcqHBzFfmMRlLOM7Xuwn4jnz59HZWUlAPMz9W1tbaSvI5PJ8Prrr1u8Lnsis66uzqK84akIwOJcUFtbG5qamtDU1IR79+5ZLNuahIeHw8PDA4WFhTa9riUcxX5jEZSzeHl54eWXXybpBw8eABh9n2VaWho5b6xTb4DtYEFBQaSJZY433niDHBvrJ42F/WObam/rdDqkp6dDLpdj3rx5iI+PJ1HRtsLV1RWxsbFobGzk9RCwFY5iv7EIylkAbu2i0WgAjK53aWtrAwD4+/ubDb9/9OgROfbx8eF1TbbcwMCARXlLndOenh4sX74ce/fuBQCsWbMG1dXVvGo5a5OWlgaxWIzExETo9XqbX98YjmQ/NoJzFna/RaPR4NGjR5yh4tzcXKOdegNsZ2FHMpuDLWcpgJNhGPJk9PPzw9y5czn/v3nzJpRKJcrLyyESibBr1y4UFRXBw8ODly7WRqFQICkpCbW1tThw4IBddGDjaPZjI5jYMANsZ+nu7kZ+fj76+/sBAEuXLjXaqWfDdha+HUdnZ2dybMlZ7t69i4cPHwIYfSqy+01FRUVYv349BgcH4ePjg8LCQrz//vu8dJhK9uzZg/r6eqSnp8Pd3R2fffaZ3XRxRPsZEHTNotPpSFSxWCzG4cOHLQ5nstu1fNu4E8ljrAlhaF/HxcVhcHAQoaGhqKurE8wPLZPJUFxcjMDAQCQmJuLLL7+0W5PMEe1nQHDOolAoODFahpoiJSXFZKeejbe3Nzk2RCRbgi1nrokHjO+cCrV9PZZZs2ZBrVZj8eLF2LlzJ958802cOnXK5q/ucFT7AQJshjk7OyM4OJgTSOnv74+cnBxe+SfjLENDQ+TYkrMYnowikQgymQxKpZJECwBARkYG7/b1hg0bUFxcbNNRHsO1WlpasHbtWuTk5ODEiROIiIiwyfWtaT9bIzhnAUYjXicL21n4rrZkz9qbW7uv1WpJ/JhUKkVUVBQGBwc5MpmZmSgtLeV13ZCQEHR0dNi0SdTZ2Ynm5mYAozesUqnEiy++aJNrW9t+NodvxOVURx1bi/r6ek5E8pMnTyzmiY+PJ3lycnJMytXV1Y2Lvg0ODmZqamoYHx8fcu5f//qXNb+S1bhx4wYTEBDAiEQi5g9/+APz888/Tyj/xo0bn+keEIr9HD7q2FqEhISQ0S29Xs9rpxj2BhnmwmPYnVMAiImJQU1NDcLDw5GRkUHO/+lPfxLcJuUNDQ1499130dvbi7Nnz+LEiRMICgqyqQ6ObD9AgB38Z0Umk2HRokUkXV9fb1Zeo9GQRU1isdhsBCy7c5qdnY3i4mLSx0lOTkZAQAAAoKqqChcvXpz0d7A23d3dWLlyJaRSKSorK7Fq1Sq76OGo9jPw3DkLAHz66afk+Pjx42afUt9++y05joqKgq+vr0lZw5PxlVdewbZt2zjrY9zc3DiDEJmZmWQ9jb1JSkrCvXv3kJ+fbzEWaypxVPsR+LbXHKXPwjAMMzAwwHh5eRF9i4qKjMp1dnZy5C5evGiyzL6+PiIXGxtrVEar1TJyuZzIFRQUWOX7PAtqtZoBwERHRzMjIyPPVNaz9FmEZD/aZ2Hh4eGBvLw8kk5ISEBhYSGnhmlubkZERAQZMVOpVGZXArIDEU011aRSKXbu3EnSWVlZZKNye5Gbm0v+TmR9Snt7O3744QfOhx3129XVNe7/hrdLG8NR7ceBr1c5Us3CMKNr+tetW8cZeZHL5czKlSuZJUuWcM6HhoYyGo3GbHk7duwg8mq12qScXq9nFi5cSGTz8/Ot/dV409fXx0gkEkapVE4474EDB8yuwTf2+eKLL0yWJyT70ZplDCKRCMeOHUNubi4ZHWttbcW5c+dQVVVF5D788ENUVFSY7asA/++cSiQSzJ8/36Sck5MTdu3aRdLbt28fN5dgK9RqNXQ6nSC2s3VE+41FxDD8xugiIyNx5coVAKPvpj937tyUKmZNuru7UVRUhKqqKmg0GsyePRtBQUFQqVQWV1I6Mh0dHTh58iRSUlI4k7XTnZycHGzbtg3A6PZY7HcDmUOQM/jWZtasWUhOTkZycrK9VbEpc+fORVZWlr3VeG54bpthFIq1oc5CofCEOguFwhPqLBQKT6izUCg8Ecwu+hSKrZjsLvq8nUWr1ZLJIVsvRaVQrIleryf38kRCgGgzjELhyf8AVqRd3yNdW+sAAAAASUVORK5CYII=;" vertex="1" parent="1">
          <mxGeometry x="-390" y="801" width="49.89" height="29" as="geometry" />
        </mxCell>
        <mxCell id="CyaymzP_PxcqaUdQ-rHQ-36" value="" style="shape=image;verticalLabelPosition=bottom;labelBackgroundColor=#ffffff;verticalAlign=top;aspect=fixed;imageAspect=0;image=data:image/png,iVBORw0KGgoAAAANSUhEUgAAAMgAAAB2CAYAAACNmNybAAAABHNCSVQICAgIfAhkiAAAAAlwSFlzAAAOxAAADsQBlSsOGwAAGrxJREFUeJztnXtQU2f6x78hwaBctWKEVqmWW+XSrRLEyyIdy1QdwFalSlu1butsBzuidnDW1VrG1qkuQlkv6FCLnV2VYkcZYytqduzoLKUYEF3xhkgHHMvFRVAEEyB5f3/QvL8cSM45wUCS5f3MZCZv8jzvefIk35z3eg6IAHPmzCEACACycOFCIXMGw2H57LPP6G/Z3d1dlI8LGAyGRZhAGAweZPYOwBylpaU4cuQILaelpSEoKMiOETGGKw4nkNraWiQmJqKlpYW+plar8csvv2D06NF2jIwxHHGoJlZbWxsSEhKoOCZPngwAqK6uxpIlS9Dd3W3P8BjDEIcRSHd3N95++23cvHkTALB69WpUVVUhNjYWAHD+/HmsWbMGhBB7hskYZjiEQAghSEtLg1qtBgAsXLgQubm5GDlyJFQqFV555RUAwNdff43s7Gx7hsoYZjiEQPbs2YP9+/cDAGbPno2CggLIZL3dI29vbxQXF9PmVnp6OlQqld1iZQwv7C6Q06dPY/369QCAsLAwqFQqjBw5kmPj5+eHs2fPYty4cSCE4J133sGVK1fsES5jmGFXgVRVVWHZsmUwGAyYMGECzpw5Y3GkKjAwEGfOnIGnpyc6OjqQmJiIhoaGIY6YMdywm0B6enqQk5OD6OhoxMfH4+zZs3jhhRd4fV599VWoVCrMnTsXISEh2L17N+u0MwYVu82DyGQyHDx40Gq/uLg4xMXF2T4gBsMMdu+DMBiODBMIg8GDQyw16ezsRHNzMy17eHhg7Nixgn6tra149OgRLY8dOxYeHh6DEiNjeOIQZ5BDhw5h0qRJ9JGXlyfKb82aNRy/y5cvD3KkjOGGQwjk0qVLnHJ0dLTVfi4uLpg2bZpN42IwHFIgUVFRgj4tLS24e/cuLYeHh8Pd3d3msTGGN3YXSFtbG27dukXLISEh8PHxEfQrLy/nlMWedRgMa7B7J32gP/SBNstsRX19PaqrqwEAoaGhgpOcDC7Okj+7C6SsrIxTHgyB6HQ6nD9/HhcuXEBzczO8vb0RGRmJxMREUaNl5sjMzMTevXsBQNQqAGeFEIKysjJcuXIFd+7cQXt7OxQKBaKiojB37twBjxo6Tf6Eruowb9484u7uTtzd3cnSpUuf5aISZklKSqJXmgBAysrKBH0MBgNRKBTUZ9SoUaS7u9us7cmTJ4m/vz/nGMaHTCYj27ZtI11dXVbHHR0dTet5+PCh1f7OgEajIa+99prZ3OH3K4Ns3bqVdHZ2Wl23PfK3fft2+lseN26cKB9BgQzmZX8MBgMZP348rd/V1ZVotVpBv7q6Os4X9cc//tGsXVZWVr8vdOrUqRxxASDx8fEWBWYOrVZLRowYQQCQkJAQ0X7OxMWLF4lcLufkydfXl0gkkn5CUSqVpLGxUXTd9sqf01325969e2hsbKTlP/zhD5DL5YJ+YppXarUa6enpAAAvLy/k5+fj8ePHqKioQGNjIzQaDSIiIqjt5s2bRcd99epVdHV1AQCmT58u2s9ZqKmpQVJSEnQ6HTw8PJCfn4/GxkY0NzfjyZMnKCkp4ayH02g0Vm2Jdqb82VUgA+1oazQaXj+9Xo8///nPMBgMAIAjR45g1apVcHH5/48bFRUFtVqN8ePHAwD+9re/iZ5oNO03OfoXPBC2bduGtrY2eHp6QqPRYNWqVVAoFACAUaNGYebMmTh//jznT+Xf//636AleZ8qfXQViqw563ySfOnUKv/76KwBg/vz5SEhIMFuPQqHA1q1badm4q1EIZ/qCraW+vh4FBQUAgM8//xyhoaFm7SQSCTIyMjhzVpmZmaK2HzhT/pzuDKLX6zlDw+PGjcPEiRM5Nt988w19vmLFCt763nvvPUilUgDA0aNH0dHRITpuNzc3REZGCtrbg8uXL2PJkiW4d++eVX5arRZubm7w9fVFamoqr61MJqO7QQGgrq6OXnSDD2fInxG7CUSv16OiooKWvby8EBwcLOh369YtPHnyhJajo6MhkUhomRCCkpISWp46dSpvfZ6enggMDATQu2iysrKS1/7hw4e4c+cOrdvV1VUwZnvQ3t6O48eP4/Dhw1b5BQcH49tvv0VycrKoz2a8oIaRmpoaXntnyZ8Ruwnk+vXrnH9rpVLJ6SNYQqj/UVNTg9bWVgCAXC7HSy+9JFhnWFgYfd534rIvpme9mJgYXtuamhpUVVWhqqoKdXV1gnHYkujoaHh4eNDmkjUsXrwYO3bsEGXr7+/PKQt11J0lf0bsJpCBdtBLS0s55b5tWNMmRXBwMG0+8fHyyy/T58bZXUuYxm2p/dzT04ONGzciKCgIERERSElJQU9Pj2ActmTkyJFYunQprl27Jih6c3h6eoqyM10PBwBTpkzhtXeW/BlxKoE8ffoU33//Pee1vgsbTfeHiFnT1deuvb2d11aog9nS0oIFCxYgMzMTAJCcnIzS0lJRZzJbk56eDqlUitTUVOj1+kE5hmlzVqFQ0OaqJZwpf4ADCUTMCt49e/bQ5hMABAUFYcyYMRwbU4GImVPpa/f48WOLdoQQGrdCoeg3OHD16lUolUqo1WpIJBJ8+eWXKCwstNsmrpCQEKxZswYajQZfffWVzevX6XTYtWsXLW/ZsoW3T+Fs+QMgvNRksGbSvby8aL1ubm7EYDDw2hcXFxMXFxfODO67777bzy4nJ4e+P3/+fFGxHDhwgPrExcVZtLt79y61S0pK4rz33XffkVGjRhEAxMfHhxQXF4s69mCj1WrJrFmziEQiIbm5uTate926dTQfsbGxRKfT8drbO39OM5P+9OlTzj+1VqvFgwcPzNpqtVp8/vnneOutt+jEnxFzp2jTtqrYdqtYH3PNA2N7edmyZejs7ER4eDjKy8sxb948UccebORyOYqKihAYGIjU1FRs2bLFJs2tvLw85OTkAOjtd5w4cQIjRozg9XHG/NllNa9cLodUKuV8UfHx8Vi7di2CgoLg5uaGBw8e4NKlSzh8+DBqa2vh4uIChUKBpqYm6mOu3+Lt7U2f63Q6UfGY2nl5eVm069vBbGlpQUpKCr2mcHJyMvLz8x1uX7yvry9KSkqQlJSE7du34/vvv8fmzZuRkpIyoGHWgwcP4qOPPgLQ2zQuLi7Gc889J+jnjPmzi0BcXFwQGxuLn376ib72n//8Bx9++KFZ+xkzZmDfvn1Yv349FYirq2u/MXhgYALRarX0OZ9AjP+AEokEcrkcSqWSztgDwKZNm0R/uatXr0ZRUdGQjs4Yj1VdXY2VK1ciIyMDhw4dwpw5c0TXkZ2djU8++QRA7yRrXl5ev0vFWsKW+Rsq7LYfJCcnB2+99RZqa2vNvj9mzBgsWrQIf/rTnxATEwODwcAZrnzllVfg5ubWz89UIHwdblNM52MsDW92dXXRtVqurq5444030NnZybHZvHkzTp8+LeqYYWFhqK+vH7TRJXM0NDTgxo0bAHp/pEqlEs8//7woX4PBgI0bNyIrKwtSqRS7du1CWloaZ5KWD1vnb8gQ6qQM5nL3J0+eEJVKRbKyssimTZtIZmYm+ec//0lu3bol2Gm3REVFBY1XKpWSp0+fCvqkpKRQn4yMDLM25eXl/ZZ5h4aGkrKyMuLj40Nfu3jx4oDiHmwqKyuJv78/kUgk5P333ye3b98W7avT6WiOvLy8iFqttvr4jpC/gXTS7SqQwcB0rwEAotFoBH0iIyOpvUqlMmuzb98+zpeblJREHj16RAghZOfOnfT1mTNnDljcg0VlZSXx8PAgbm5u5MSJE1b5tre3k9dff50AIP7+/uTq1asDisER8scE8jszZ86kMR84cIDXtrGxkXPGaWpqMmu3cuVKard161ai1+vpex0dHZxdi6dOnbLp53kWmpubSUBAABk9ejQpLS21yrelpYVMnz6dACBhYWGkvr5+wHE4Qv6YQH5n//79NObo6Gjef6QdO3ZQ2wULFli0Cw0NJQDIiy++aPb9vLw8Wk9kZCTnB2BPkpOTCQBSUFBgld/9+/dJWFgYnRtqbW19pjgcIX9MIL/T3t7OmYgsLCw0a9fQ0MCx+/HHH83atba2UhtL+/K7urpIUFAQtTty5IjNPs9AKSkpIQBIYmKiVc2WmpoaMmnSJAKApKSkiNoGzYej5I8JxIT8/Hwat1wuJ0ePHuX8SK5fv06Cg4OpTUJCgsW61Go1tcvOzrZod+zYMWo3efJkwZnlwWbRokUEAKmurhbt09nZSa8TIJFIyIwZM8isWbPoIyYmhkybNs3iw1wfzlHyxwRigsFgIKtWreJ0DIOCgsibb77J6aMAIOHh4Rb7HoQQ8sUXX1DbkpISi3Z6vZ5MmzaN2tp6aYc1tLa2EplMRpRKpdV+fUebrHkcOnSoX52Okj8mkD7o9XqSlZXFGdXq+1i8eDFpbm7mrcd4aSKZTCZ4iZtz587Ruv38/EhHR4ctP5JofvjhBwKAZGVlWeU3GAJxlPwNRCB2v3DcYOLi4oINGzZg+fLlKCwsxM8//4ympib4+fkhODgYCQkJgjsOAeDkyZOijxkfH+8Qt4WLiIjAtm3b8MEHH1jl5+PjY/P4nTF/Rv6nBWLE19cXH3/8MT7++GN7hzJkTJw4EZ9++qm9w3B67H7xagbDkWECYTB4YAJhMHhgAmEweGACYTB4YAJhMHhgAmEweGACYTB4YAJhMHhgAmEweGACYTB4YAJhMHhgAmEweGACYTB4YAJhMHhgAmEweGACYTB4cNgdhaWlpThy5Agtp6WlISgoyI4RMYYjDimQ2tpaJCYmoqWlhb6mVqvxyy+/YPTo0XaMjDHccLgmVltbGxISEqg4Jk+eDKD3kv1LliwRvIsqg2FLHEog3d3dePvtt+nN6FevXo2qqirExsYCAM6fP481a9Y41FUvGP/bOIxACCFIS0ujdxtauHAhcnNzMXLkSKhUKnqznK+//hrZ2dn2DJUxjHAYgezZswf79+8HAMyePRsFBQWQyXq7SN7e3iguLqbNrfT0dKhUKrvFyhg+OIRATp8+jfXr1wPovfOSSqXqd1svPz8/nD17FuPGjQMhBO+88w6uXLlij3AZwwi7C6SqqgrLli2DwWDAhAkTcObMGYsjVYGBgThz5gw8PT3R0dGBxMRENDQ0DHHEjOGEXQXS09ODnJwcREdHIz4+HmfPnsULL7zA6/Pqq69CpVJh7ty5CAkJwe7du1mnnTFo2HUeRCaT4eDBg1b7xcXFIS4uzvYBMRh9sHsTi8FwZJhAGAwe7NrE+u9//4snT57QskKhEH1TelN+++03dHV1AQCkUikmTJhgsxgZwxu7nkH27NmDSZMm0cexY8esruPmzZsICAigdfz9738fhEgZwxW7CiQiIoJTvn79ulX+hBCsXbsWPT09AHrnSj777DObxcdgOJRAqqqqrPIvKirCv/71L1rOysqCp6enTWJjMAA7CyQwMBByuZyWrTmDdHZ20tl3oHfod9myZTaNj8GwayddKpViypQpqKysBADU19fj8ePH8PLyEvTduXMn6uvraT179+6FRCIZ1HiN1NfXo7q6GgAQGhoqOLnJ4OJM+bP7hqmIiAgqEAC4ceMGYmJieH1qa2uxc+dOWl63bh3CwsL62el0Opw/fx4XLlxAc3MzvL29ERkZicTERIwdO3bAMWdmZmLv3r0AIGr23xkhhKCsrAxXrlzBnTt30N7eDoVCgaioKMydOxceHh4Drtup8id0G9zBvg10ZmYm5zbCBw8eFPRZuHAh51bBjx496mdz8uRJ4u/vb/ZWxTKZjGzbto10dXUNKObo6Gha18OHDwdUhyOj0WjIa6+9ZvFWz+7u7mTr1q2Ct3S2hL3y55T3ST9z5gwn+evXr+e1Ly4u5tgfPXq0n01WVla/L3Tq1KlEoVBwXo+Pjyfd3d1WxavVaul910NCQqzydQYuXrxI5HI5J0++vr5EIpH0E4pSqSSNjY1W1W/P/DmlQO7fv9/vR2sJrVZLgoODqe2cOXOIwWDg2Jw7d464uLgQAMTLy4vk5+cTvV5P39doNCQiIoLWsXHjRqviLSsro74rVqyw7sM6OHfu3CE+Pj4EAPHw8CD5+flUAB0dHaSkpITExcVxvq/Zs2dbdSa2Z/6cUiAGg4GMGTOGHsPf39+i7Y4dO6idVCol165d47zf09NDJk2aRG1OnTpltp7GxkYyfvx4aldRUSE63t27d1O/ffv2ifZzBpYvX04AEE9PT3Lz5k2zNgaDgWzevJkjkr1794o+hj3z55QCIYSQ2NhYTsLNtUsbGhqIh4cHtdmwYUM/m6KiIvr+/PnzeY+Zm5tLbT/88EPRsb777rvUr7y8XLSfo1NXV0dkMhkBQHJycnhtu7u7SVRUFM1DQEBAvzO5JeyZv4EIxCEWK/adMDQOAZry6aef0nVblmbMv/nmG/p8xYoVvMd87733IJVKAQBHjx5FR0eHqFgvXboEAHBzc0NkZKQon6Hm8uXLWLJkCe7duyfaR6vVws3NDb6+vkhNTeW1lclknDmouro6eqENIZwhf6Y4pEBu377NKV+5coXz49+1a1e/uRJCCEpKSmh56tSpvMf09PREYGAggN5JR9OhZks8fPgQd+7cofW7uroK+tiD9vZ2HD9+HIcPHxbtExwcjG+//RbJycmiPpfxIhpGampqBH2cJX+mOLxACCHYsGED3TU4Z84cpKSk9KujpqYGra2tAAC5XI6XXnpJ8Limcyfl5eWC9sZ/PwCCczU1NTWoqqpCVVUV6urqBOu2JdHR0fDw8EBBQYFVfosXL8aOHTtE2fr7+3PKYq5X5iz5M8UhBBIeHs4pmzYNTp48iZ9++gkA/4y5qU9wcDBtPvHx8ssv0+fmmnV9Mf2Cp0+fbtamp6cHGzduRFBQECIiIpCSkkIXUw4VI0eOxNKlS3Ht2jVRwjdF7Fq2u3fvcspTpkwR9HGW/JniEALx8vJCQEAALTc3NwMAurq6kJ6eTl9PS0vrJyYjjx49os99fHxEHdfUrr29XdC+rKyMPjf3Bbe0tGDBggXIzMwEACQnJ6O0tFTU2czWpKenQyqVIjU1FXq93ub1mzZnFQoFba7y4Uz5M+IQAgG4Z5GmpiYAvftFjG3b8ePH8y5lNxWI6QJIPkztHj9+zGtLCKH/gAqFAhMnTuS8f/XqVSiVSqjVakgkEnz55ZcoLCx8piUZz0JISAjWrFkDjUaDr776yqZ163Q67Nq1i5a3bNki2J9wtvxRhIa5hmKYlxBC/vKXv3CWj7S1tdFJKwDkyJEjvP45OTmih3iNHDhwgPrExcXx2t69e5faJiUlcd777rvvyKhRowgA4uPjQ4qLi0Udf7DRarVk1qxZRCKRkNzcXJvVu27dOpqL2NhYotPpBH0cIX9OO8wLcDvqDx48QG5uLtra2gAAsbGxZjvmppi2U8W2Wa3xMdc8MLaXly1bhs7OToSHh6O8vBzz5s0TdfzBRi6Xo6ioCIGBgUhNTcWWLVueubmVl5eHnJwcAL39jhMnTmDEiBGCfs6YP8CBmlimAunp6aGrdaVSKfbt2ye4lN3b25s+1+l0oo5paie0xL5vB9MR28vm8PX1RUlJCWJiYrB9+3ZMmTIF//jHPwZ0lfyDBw/io48+AgBERUXhwoULeO6550T5Omv+7L7c3UhISAhkMhn9Jzf2KdauXWuxY27KQASi1WrpcyGBGP8BJRIJ5HI5lEolfv31V/r+pk2bRLeXV69ejaKioiEdnTEeq7q6GitXrkRGRgYOHTqEOXPmiPLPzs7GJ598AqB3kjUvL8+qC2zYMn9DicMIZMSIEQgNDeVsux0/fjwyMjJE+ZsKRKjDbcR09pxveLOrqwuXL18GALi6uuKNN95AZ2cnx2bz5s04ffq0qOOGhYWhvr5+UEaXLNHQ0IAbN24A6P2RKpVKPP/884J+BoMBGzduRFZWFqRSKXbt2oW0tDSrNqfZOn9DilAnZag66c9KRUUFZyHj06dPBX1SUlKoT0ZGhkW78vLyfku9Q0NDSVlZGWcg4eLFi7b8SDajsrKS+Pv7E4lEQt5//31y+/ZtUX46nY7myMvLi6jV6gEd31Hy57SLFW2B6T4DAESj0Qj6REZGUnuVSmXRbt++fZwvNykpiW7S2rlzJ3195syZohftDRWVlZXEw8ODuLm5kRMnToj2a29vJ6+//jpdYX316tUBx+Ao+RvWAiGEkJkzZ9JYDxw4wGvb2NjIOeM0NTVZtF25ciW13bp1K2d/SUdHB2fnoqUl9vagubmZBAQEkNGjR5PS0lLRfi0tLWT69OkEAAkLCyP19fXPFIej5G/YC2T//v001ujoaN5/I9O9JQsWLOCtNzQ0lAAgL774otn38/LyaF2RkZGcH4A9SU5OJgBIQUGBaJ/79++TsLAwOjfU2tr6zHE4Sv6GvUDa29uJl5cXjbewsNCsXUNDA8fuxx9/tFhna2srtVu6dKlZm66uLhIUFCR6UnMoKCkpIQBIYmKi6GZLTU0N3XCWkpJCtFrtM8fhSPkb9gIhhJD8/Hwar1wuJ0ePHuX8QK5fv87ZtpuQkMBbn1qtprbZ2dkW7Y4dO0btJk+eLGp2eTBZtGgRAUCqq6tF2Xd2dtJdlhKJhMyYMYPMmjWLPmJiYsi0adMsPiz14Rwpf0wgpHdL6KpVqzidwqCgIPLmm29y+igASHh4OG/fgxBCvvjiC2pfUlJi0U6v15Np06ZRW1su7bCW1tZWIpPJiFKptMqn70iTNY9Dhw6ZrdeR8scE8jt6vZ5kZWVxRrX6PhYvXkyam5sF60pKSiJA76WChC5zc+7cOVq/n58f6ejosNVHsooffviBACBZWVmifQZLII6Uv4EIxGEmCm2Ji4sLNmzYgOXLl6OwsBA///wzmpqa4Ofnh+DgYCQkJAjuODRy8uRJ0ceNj493iNvBRUREYNu2bfjggw9E+/j4+AxK7M6YP1MkRCCiuLg4XLhwAUDvbLWYdf+mBAQE4Pjx4wOPkMEww1//+lecO3fOKp/ffvuN3vTV3d2dc28aS1h1Bnn06BEqKiqsCkpMEAyGtdTW1lr9WxwIDrOal8FwRATPIPHx8c90cWE/P78B+zIYlpg9ezZksoF3ocXuOhXsgzAYwxnWxGIweGACYTB4YAJhMHhgAmEwePg/MA1S+CcxKdkAAAAASUVORK5CYII=;" vertex="1" parent="1">
          <mxGeometry x="-390" y="932.38" width="46.81" height="27.62" as="geometry" />
        </mxCell>
        <mxCell id="CyaymzP_PxcqaUdQ-rHQ-37" value="" style="shape=image;verticalLabelPosition=bottom;labelBackgroundColor=#ffffff;verticalAlign=top;aspect=fixed;imageAspect=0;image=data:image/png,iVBORw0KGgoAAAANSUhEUgAAAM0AAACACAYAAACoeu3bAAAABHNCSVQICAgIfAhkiAAAAAlwSFlzAAAOxAAADsQBlSsOGwAAGUtJREFUeJztnX1QU1f6x78hCQF5raO8tdpqCcGCdH0BXbcVZjsOrcuLbrVAp8XVWcdZYEDXgZahIFYZRxFlq+LMSrVaKcN2LIoVcdmBZV2gCCoK1RYojDgWIgIiFQGT3P2DX84vF/J2QyA35XxmMtwTnnPukyf53vN+r4BhGAYUCsVobCztAIVibVDRUCgcoaKhUDhCRUOhcERkSqawsDD897//NfmkUqkU9fX1JuenULSxZcsWfPPNNybnd3BwwIMHDwzamSSaX375BQMDA6ZkBQAMDg6anJdC0cXQ0NCkfpcKhcIoO5NEYwlqa2tRUFBA0klJSZBKpRb0iDJTmbRoZDIZoqOjOeWZM2cOJ/v29naEh4ejt7eXvFdeXo7vvvsOL7zwAqeyKL9eNmzYAF9fX055/v3vf6OqqorbiRgTCA4OZgAwAJjIyEhTijCa/v5+ZtGiReR8CxcuJMe///3vmdHR0Sk9P+XXza5du8jvycHBwag8vB49e/78Od577z3cvXsXALB161Y0Nzdj9erVAICKigrEx8eDoYsaKNMIb0XDMAySkpJQXl4OAIiMjEReXh7s7e1RUlKC119/HQBw4sQJHDp0yJKuUmYYvBXNkSNHcPz4cQDAG2+8gcLCQohEY10wFxcXXL58GQsXLgQAJCcno6SkxGK+UmYWvBRNaWkpduzYAQDw8/NDSUkJ7O3tWTaenp64cuUK3NzcwDAM3n//fTQ2NlrCXcoMg3eiaW5uRnR0NFQqFebNm4eysjKdI2Te3t4oKyuDk5MTnj59ivDwcHR1dU2zx5SZBq9Eo1AokJubi6CgIKxZswZXrlzBSy+9pDfPkiVLUFJSgrfeegsymQyfffYZHRigTCm8mtwUiUTIz8/nnC8kJAQhISHmd4hC0QKvahoKxRqgoqFQOMKr5pkmQ0NDePjwIUk7Ojoatfymv7+ftWhvzpw5cHR0nBIfKTMT3tY0p06dwoIFC8jr73//u1H54uPjWflu3LgxxZ5SZhq8Fc21a9dY6aCgIM75bGxssGzZMrP6RaFYjWiWL19uME9vby9++uknkvb394eDg4PZfaPMbHgpmsePH+OHH34gaZlMBldXV4P5GhoaWGljaycKhQu8HAgw9cdvapPOXHR2dqKlpQUA4Ovra3BilsLGWuLHS9HU1dWx0lMtGoZhcObMGfT19ZE1b6aQnZ2No0ePAoBRqxmsmZGREVRUVKCqqgoPHz6Ei4sLAgICEB4eznmToRqriZ8pG3emehNaREQEKR8AU1dXZzCPSqVi3N3dSZ5Zs2Yxz58/N5ivqamJnG+ynyUoKIicv6+vb1Jl8ZkLFy4wXl5erO9I/RKJRMynn35q0uZAS8TPlE1ovKtpGIZh1RhisZjsndHH/fv3IZfLSXrZsmVkK4GapqYmtLe3o7u7G3fv3kVlZSVu375tFr9HRkbIKmuZTPar3YZ96NAh7Ny5k6QdHBwgk8nw4MEDyOVyKBQKZGRk4OrVqygtLZ3wHejCmuLHO9Hcv38f3d3dJP2b3/wGEonEYD5jmmZZWVkoKiqavJNauHXrFkZHRwEAK1asmJJzWJry8nIkJycDAJydnZGbm4tNmzbBxmZsPKmhoQFbtmxBU1MTysvLkZaWhv379xtVtjXFj3ejZ6b2S8bfR01XPltbW3h4eCAsLAwHDx7E2rVrTXN0HJr9ML5/6aagVCqxbds2qFQqAEBBQQE2b95MBAOMTQuUl5fDw8MDAHDgwAGjJ5etKX68q2nMNQigLfBffvklRCIRBAIBea+1tdUELydiTV+6KVy8eBEdHR0AgHfeeQdhYWFa7dzd3ZGRkYG4uDgAwPHjx3HixAmD5VtT/H4VNY1SqWQNU7u5uWH+/PkT7MRiMUsw5kTtt52dHQICAqbkHJPlxo0b2LBhA+7fv8857+eff06OY2Nj9dp+8MEHEAqFAICvvvoKT58+NVi+NcRPDa9Eo1Qqcf36dZJ2dnaGj4+PwXw//PADfvnlF5IOCgqaMnFoo6+vj9RYS5cuhVgsnrZzc2FwcBDnzp3D2bNnOeVjGAbV1dUkvXTpUr32Tk5O8Pb2BjC28PbmzZt67a0lfmp4JZrvv/+edVUKDAxktZl1YWx/ZqrQrB1Xrlyp17atrQ3Nzc1obm7GvXv3pto1FkFBQXB0dERhYSGnfG1tbejv7wcASCQSvPrqqwbz+Pn5kePxk9XjsZb4qeGVaEwdBKitrWWlp7tNrOm3rnMrFAqkpKRAKpVi8eLFiImJMfrewebC3t4eUVFRaGpqMvhD1kSzOefj40OaXvpYtGgROVbP8uvCWuKnxupF8+zZM3z99des94xZ3GlODHVie3t7sXbtWmRnZwMANm7ciNraWqOu2OYmOTkZQqEQcXFxUCqVRuXR3J9kzBrA8XaGbnhvTfEDeC4aY378R44cIU0HYOwxHrNnzza7b7rQnIx1d3efMABx69YtBAYGory8HAKBAPv27UNRUZHFNsbJZDLEx8ejvr4ehw8fNiqPpmiMmTMbb/fkyROddtYWP4BnQ87qIU1gbBTlxRdf1GtfVlaG1NRU1nvT3Z/p6OjAo0ePAIxdJTUHIIqKirBlyxYMDQ3B1dUVhYWFePvtt6fVP20cOHAA169fR0pKChwcHPCXv/xFr72maIztpNva2pJjfaKxxvjxpqZ59uwZK7jDw8Po6enRajs8PIw9e/Zg/fr1ZLJNzXT3Z7Q1LdTt7+joaAwNDcHf3x8NDQ28+MKBsVqguLgY3t7eiIuLwyeffKK3qabZdzC2H2FsHmuMH29qGolEAqFQyPry1qxZg8TEREilUtjZ2aGnpwfXrl3D2bNn0d7eDhsbG7i7u7PWnFly5GzFihXo7e1FTEwMuQf1xo0bcfLkSd7dp2Du3Lmorq5GREQEsrKy8PXXXyMtLQ0xMTETahMXFxdyPDIyYlT5mnbOzs467awxfrwRjY2NDVavXo3Kykry3u3bt/HnP/9Zq/1vf/tbHDt2DDt27CCiMXZxpzlRXykFAgEkEgkCAwNZzczU1FSjv/CtW7eiuLh4WkeF1OdqaWnBpk2bkJmZiVOnTiE4OJjYmCKa4eFhcqxPNOaM33TBG9EAQG5uLtavX4/29nat/589ezb++Mc/YsuWLVi5ciVUKhVr6PT111+HnZ3ddLmL0dFRsrZKLBYjNDQUQ0NDLJu0tDSUlpYaVZ6fnx86OzuNHtUyB11dXbhz5w6AsR9uYGDghL6kpmj09U800Zxvc3Jy0mpj7vhNF7wSTUBAAG7fvo2Kigq0trbi0aNHmD17Njw8PBAYGAgfHx9WR1EoFLJWAkw3TU1N5Mo7OjqK0dFR+Pr64vTp0wgNDcXjx49x+fJlXL16FW+++abB8rZv347t27dPtduExsZG/OEPf4BAIMCmTZuQmpqqdQWG5qaylpYWDA8PG7w4adYWugZ0zB2/acOUjTvT+SS0qWbbtm0mf5Zjx46xNmBFREQwAwMDDMMwzP79+8n7q1atYlQq1VS4bzI3b95kHB0dGTs7O+abb77Razs8PMzY2tqSz1NfX2+w/ICAAGJfUlKi1YYP8fvVPQmN72h2YjMyMlBcXEza7wkJCfDy8gIA1NTU4NKlSxbxURs9PT1Yt24dxGIxKisrsX79er32EomENWemuT5QG3K5nGzuEwqFOkc0rTV+VDSTQN2JfeWVV7B7927WOrlZs2YhMzOTpNPS0iYMj1uK+Ph43Lt3D3l5eQbXeqn58MMPyfHJkyf1Ppnhiy++IMehoaFwc3PTamet8aPNMxObZ/39/SRfVFSUVpvR0VFGKpUSu4KCAnO5bTLV1dUMACY8PJxTk2dwcJBxdnYmn6WoqEirXVdXF8vu0qVLWu34Ej/aPDNAe3s7vv32W9ZLc6Vsd3f3hP+rH5I7Hs1RO13ND7FYjKysLJJOT08nW3otRU5ODvnLZfuEo6MjcnNzSTo2NhaFhYWsGufOnTsIDg4mI2xhYWE6d8Zaa/wAzKya5vDhw1rvoKLv9dFHH2kta+/evcSmurpa5zmVSiWzbNkyYpuXlzdVH88g/f39jEgkYgIDA03Kr1KpmM2bN7PiI5VKmXXr1jGrVq1ive/v78/I5XKdZfElfrSmmUbUnViRSIQlS5botLOxscG+fftIes+ePRPmIqaL6upqKBQKREdHm5RfIBAgPz8fOTk5ZG1Za2srzp8/j5qaGmL37rvvoqKiQmdfBrDO+KkRMAz3Z+2FhISgqqoKwNijys+fP292xyjmp7OzE6dPn0ZiYiJrwtIUenp6UFRUhJqaGsjlcnh6esLHxwdhYWEGd3byiczMTOzevRvA2O2ojJn349XkJmVqmT9/PtLT081S1ty5c5GQkICEhASzlGdN0OYZhcIRKhoKhSNUNBQKR6hoKBSOUNFQKByhoqFQOEJFQ6FwhIqGQuEIFQ2FwhEqGgqFI1Q0FApHqGgoFI5Q0VAoHKGioVA4QkVDoXCEioZC4QgVDYXCEavauVlbW4uCggKSTkpKglQqtaBHlJmI1Yimvb0d4eHh6O3tJe+Vl5fju+++wwsvvGBBzygzDatonj1+/BhhYWFEMAsXLgQwdjPuDRs24Pnz55Z0jzLD4L1onj9/jvfee4/ctG/r1q1obm7G6tWrAQAVFRWIj4/Xe5tUCsWc8Fo0DMMgKSmJPBUrMjISeXl5sLe3R0lJCXmA04kTJ3Do0CFLukqZQfBaNEeOHMHx48cBAG+88QYKCwshEo11w1xcXHD58mXSVEtOTkZJSYnFfKXMHHgrmtLSUuzYsQPA2BPCSkpKYG9vz7Lx9PTElStX4ObmBoZh8P7776OxsdES7lJmELwUTXNzM6Kjo6FSqTBv3jyUlZXpHCHz9vZGWVkZnJyc8PTpU4SHh6Orq2uaPabMJHgnGoVCgdzcXAQFBWHNmjW4cuUKXnrpJb15lixZgpKSErz11luQyWT47LPP6MAAZcrg3TyNSCRCfn4+53whISEICQkxv0MUyjh4V9NQKHyHioZC4QjvmmePHj1iPe7A3d19wqiZMfz888/kqVlCoRDz5s0zm4+UmQ3vapojR45gwYIF5PWPf/yDcxl3797Fyy+/TMr429/+NgWeUmYqvBPN4sWLWenvv/+eU36GYZCYmAiFQgFgbC5n165dZvOPQuG9aJqbmznlLy4uxr/+9S+SzsnJgZOTk1l8o1AAHorG29sbEomEpLnUNENDQ2QVATA2DG3q8yUpFF3wbiBAKBTitddew82bNwGMPSfyyZMncHZ2Nph3//796OzsJOUcPXqU02O/J0NnZydaWloAAL6+vgYnZClsrCl+vBMNMNZEU4sGGHs+/cqVK/XmaW9vx/79+0l6+/bt8PPz05uHYRicOXMGfX19rBrKFLKzs3H06FEAMGoVg7UyMjKCiooKVFVV4eHDh3BxcUFAQADCw8MxZ84ck8u1qviZ8uz14OBg8uz1yMhIU4rQS3Z2NuuZ9Pn5+QbzREZGEntPT09mYGBAr31TUxMTERFhts8QFBREzt/X1zfp8vjIhQsXGC8vL9Z3o36JRCLm008/ZUZHR00q21Lx27VrFzmvg4ODUXl4W9NoYqhfU1ZWhgsXLpB0Tk4OqznX1NSE9vZ2dHd34+7du6isrMTt27fN5u/IyAhZXS2TyX6V268PHTqEnTt3krSDgwNkMhkePHgAuVwOhUKBjIwMXL16FaWlpWQLhzFYXfxMUedU1zQPHjxgXcXWrFmj03Z4eJjx8fEhtsHBwYxKpWLZREVFab06musz1NXVkbJiY2MnVRYf+ec//8nY2NgwABhnZ2fm5MmTjFKpJP+vr69nFi9eTGKQkpLCqXxLxs+UmoZ3o2fA2NzK7NmzSVpfTZObm0s6kPo6/7a2tvDw8EBYWBgOHjyItWvXms3furo6crxixQqzlcsHlEoltm3bBpVKBQAoKCjA5s2bYWPz/z+d5cuXo7y8HB4eHgCAAwcO4MaNG0afw9rix0vRCAQC+Pv7k/TPP/+M/v7+CXbd3d3Yu3cvSSclJbHyqfnyyy8xPDyMrq4uXLx4ETt37jTrshpr+9K5cPHiRXR0dAAA3nnnHYSFhWm1c3d3R0ZGBkmrd9wag7XFzyTRqK86wNiVaCoY369R1yaapKenk3Vq+mb+xWLxlA49X7t2DQBgZ2eHgICAKTvPZLhx4wY2bNiA+/fvc8r3+eefk+PY2Fi9th988AGEQiEA4KuvvsLTp0+NOocl46f5+2WM3INlkmju3btHjn/66SdTijDIeNH8+OOPrHRjYyPrCz148KBRcznmpq+vD62trQCApUuXQiwWT7sPxjA4OIhz587h7NmzRudhGAbV1dUkvXTpUr32Tk5O8Pb2BjA20aw5baALS8fvzp075Fi9wNcQJolmwYIF5NjHx8eUIgyiTzQMw+Cvf/0ruTIEBwcjJiZmSvwwhPoqCcDgXFJbWxuam5vR3NzMuvBMB0FBQXB0dERhYaHRedra2kizWCKR4NVXXzWYR3NurKGhwaC9peOn+TvTXImiD172aQBM6JtoNisuXLiAyspKANM/8z8ezS9dV3tcoVAgJSUFUqkUixcvRkxMDFlQOl3Y29sjKioKTU1NRv2YAXbMfXx8SNNLH4sWLSLH2prU47GW+GnCW9E4Ozvj5ZdfJumHDx8CGKtCk5OTyfu6Ov/ThaFObG9vL9auXYvs7GwAwMaNG1FbW2vUVdvcJCcnQygUIi4uzqi+6MDAADl2dXU16hyadoODgwbtrSl+angrGoBd28jlcgBj+23a2toAAB4eHhZd9s8wDLlSuru7Y/78+az/37p1C4GBgSgvL4dAIMC+fftQVFQER0dHS7gLmUyG+Ph41NfX4/DhwwbtNUVjbNNF0+7Jkyd6ba0tfmp4LRrN9qZcLsfAwABriHn8zP9009HRgUePHgEYu0pqNhGLioqwatUqdHR0wNXVFaWlpfj4448t1oxUc+DAAfzud79DSkqKwWFhTdEY20G3tbUlx4ZEY43xA6xIND09PcjLy8Pjx48BAKtXr7ZY51+NtqaFuv0dHR2NoaEh+Pv7o6GhAW+//bal3GQhkUhQXFwMb29vxMXF4ZNPPtHZVNPsNxjbh+CSxxrjB1iRaBQKBVnFLBQKcezYMYtfdcZ3YvnY/tbG3LlzUV1djZUrVyIrKwuvvfYazpw5M+HpCy4uLuR4ZGTEqLI17Qy1Aqw1frxcsKlGJpNBJBKRK5a6uZCYmGjRzr8a9ZVSIBBAIpEgMDCQzJ4DQGpqqtHt761bt6K4uHhaR4XU52ppacGmTZuQmZmJU6dOITg4GIBpohkeHibHhkRjzvhNJ7wWja2tLXx9fVlbnj08PJCZmWk5p/6P0dFRsr5KLBYjNDQUQ0NDLJu0tDSUlpYaVZ6fnx86OzunbIWFNrq6usjknkAgQGBgIF588UXyf03RGOqfqNFcBaBvm7m54zetmLIydKpXOU8H27Ztm9RnaGhomLBa2tfXl6mrq2NcXV3Je//5z3+mwPvJc/PmTcbLy4sRCATMn/70J+bHH3+cYHP9+nXyOYRCIfPs2TOD5cbExJA8mZmZOu34Er9fzSpna0CzEwsAERERqKurQ1BQEFJTU8n7H3/8Me/uK93Y2Ig333wTfX19OHfuHE6dOqV1ZYefnx8ZDVMqlUbd5ERzRbq+ZTfWHD8qGhPR7MRmZGSguLiYtOETEhLg5eUFAKipqcGlS5cs4qM2enp6sG7dOojFYlRWVmL9+vU6bSUSCZYvX07S169f11u2XC4nm/uEQqHeFcvWGj+AisZk1FfKV155Bbt372btL5k1axar35WWlsZaGW5J4uPjce/ePeTl5Rlc6wUAH374ITk+efKk3qv+F198QY5DQ0Ph5uam09Za4weA9mlM+Qz9/f0kb1RUlFab0dFRRiqVEruCggJzuD0pqqurGQBMeHj4hN2tuhgcHGScnZ3J5ygqKtJq19XVxbK7dOmSzjL5FD/ap9FBe3s7vv32W9ZLc5Vsd3f3hP+rH4yrDc0Fj7qaIGKxGFlZWSSdnp5u9NLzqSInJ4f8NXaOy9HREbm5uSQdGxuLwsJCVo1z584dBAcHkxG2sLAwvTtjrTV+BFPUaW01zeHDh/XeI0Db66OPPtJZ3t69e4lddXW1TjulUsksW7aM2Obl5U3FxzOK/v5+RiQSMYGBgZzzqlQqZvPmzaz4SKVSZt26dcyqVatY7/v7+zNyuVxveXyKH61ppgl1J1YkEmHJkiU67WxsbLBv3z6S3rNnz4S5iOmiuroaCoXCpDuOCgQC5OfnIycnh4ymtba24vz586ipqSF27777LioqKvT2ZQDrjJ8mAobhPp4XEhKCqqoqAGOPKT9//rzZHaOYl87OTpw+fRqJiYmsSUuu9PT0oKioCDU1NZDL5fD09ISPjw/CwsIM7uzkI5mZmdi9ezeAsdtSaT7mRRe8XhFAMR/z589Henr6pMuZO3cuEhISkJCQYAavrBPaPKNQOEJFQ6FwhIqGQuEIFQ2FwhEqGgqFI1Q0FApHqGgoFI5Q0VAoHKGioVA4YtKKAFtbW8yaNQuA8ffDolD4iFAoJL9l9V9DmCSa0dFRsnBu/G1/KBRrQqlUkt+ysdslaPOMQuEIFQ2FwhEqGgqFI/8D9wKvs9wkueoAAAAASUVORK5CYII=;" vertex="1" parent="1">
          <mxGeometry x="-542.9300000000001" y="820" width="45.83" height="28.62" as="geometry" />
        </mxCell>
        <mxCell id="CyaymzP_PxcqaUdQ-rHQ-38" value="" style="shape=image;verticalLabelPosition=bottom;labelBackgroundColor=#ffffff;verticalAlign=top;aspect=fixed;imageAspect=0;image=data:image/png,iVBORw0KGgoAAAANSUhEUgAAANIAAABzCAYAAADt2VwJAAAABHNCSVQICAgIfAhkiAAAAAlwSFlzAAAOxAAADsQBlSsOGwAAGAxJREFUeJztnXtMVFcex78DM7xf7aqjVEtRXhUftQKllkUapDVUsG5BoG127WZNE2zEdoOtS0WDNcYAlhWXJugufRncNUpKrcBCoK1FmEKRAory2gKxsPIaisDwmPntHyw3THnMDHOHmQvnk9ww597z+53f/Li/e879nTP3ggzA9u3bCQABoN27dxuiCQZjQTh27Bh3Ltva2s5azwwMBkNvxMY2gC/Kyspw8eJFrhwXFwd3d3cjWsRYSiyKQGppaUFYWBh6enq4fYWFhSgvL8cjjzxiRMsYSwXBD+3kcjl27drFBdHatWsBAA0NDYiIiMDY2JgxzWMsEQQdSGNjY9i7dy/q6+sBAPv370ddXR0CAwMBAMXFxThw4ACIyJhmMpYAgg0kIkJcXBwKCwsBALt370ZGRgasra2Rm5uLzZs3AwDOnz+PM2fOGNNUxhJAsIGUnp6Ojz76CAAQEBCA7OxsiMUTt3yOjo7Iy8vjhnnx8fHIzc01mq2MxY8gA+n69et4++23AQDe3t7Izc2FtbW1Wp1Vq1ahoKAAK1asABHh1VdfRXV1tTHMZSwBBBdIdXV1iI6Ohkqlwpo1a5Cfnz9rZs7NzQ35+fmwt7fH4OAgwsLC0NHRscAWM5YCggqk8fFxpKWlwc/PDyEhISgoKMDq1avnlNmyZQtyc3MRHBwMT09PnD17liUfGLwjqHkksViMCxcu6CwXFBSEoKAg/g1iMP6PoHokBsNUYYHEYPCAoIZ2UxkaGsKDBw+4sp2dHZYtW6ZRrq+vD/39/Vx52bJlsLOzM4iNjKWDYHukrKwsuLq6cltmZqZWcgcOHFCTq6qqMrCljKWAYAPp+++/Vyv7+fnpLGdmZoatW7fyahdjabJoAsnHx0ejTE9PD5qbm7nyhg0bYGtry7ttjKWHIANJLpfj7t27XNnT0xNOTk4a5SorK9XK2vZiDIYmBJlsmG9AzHc4yBdtbW1oaGgAAHh5eWmcTGaoY8r+E2QgyWQytbKhA4mI8Omnn6K3t5db4zcfkpOTce7cOQDQalWGUCEiyGQyVFdXo7GxEQMDA5BKpfDx8UFwcPC8s6Qm7T9DPDBi586dZGtrS7a2thQVFcW7/vDwcO6BFABIJpNplFGpVCSVSjkZGxsbGhsb0yhXW1vLtafvg1z8/Py49nt7e/XSZapUVFTQ888/r/b/mbrZ2tpSYmIiDQ0N6azbGP47efIkdy6vWLFi1noG6ZGGh4cxODgIAFAoFLzqJiK1nkUikXC/PZqL9vZ2/Pe//+XKW7du5X52MUltbS1aWlrQ2dmJ+vp6lJSUoKamhhe7R0ZGuNXnnp6ei/In8Ddu3EBISAhGRka4fcuXL0d3dze3vnFwcBBJSUnIy8vDl19+CalUqpVuY/lvdHSUO5fnQnBDu/b2dnR2dnLlp556CpaWlhrltBnWnTx5Ev/85z/1N3IGfvzxR4yOjgIAnnnmGYO0YUyampoQHh6OkZER2NnZ4ezZswgNDYVUKsXQ0BCqq6uRkJCAr7/+GgBQUVGBiIgIFBcXQyKRaNRv6v4TXNZuvvc5FRUVWslZWFhg5cqV2LVrF1JSUhAaGjo/Q3/F1Ps6UzwR9CUpKQlyuRz29vaoqKjAG2+8wfU2NjY22LZtG4qLi5GQkMDJfPfdd1pPpJu6/wTXI/GVaJjpn/HZZ59BLBZDJBJx+xobG+dh5XRM/UTQh7a2NmRnZwMATpw4AS8vrxnriUQiHD9+HAUFBVzmNTk5GbGxsWo+nwlT99+S6JGUSqVaynzFihV4/PHHp9WTSCQa/6HzZdJuKysrbNq0ySBt6EtVVRUiIiLQ3t6uk5xCoYCVlRWWL1+O2NjYOeuKxWK1zGdrayv38Jq5MHX/CSqQlEolfvjhB67s4OAADw8PjXJ3797Fw4cPubKfn5/BAmYment7uZ7t6aef1uqewBgMDAzgypUr+Pzzz3WS8/DwwMcff4zIyEitvtuvk0NNTU1z1heC/wQ1tLt9+7ZaBsXX1xdmZpqvBdreHxmKqb2ov7//nHWbmpq4TKe9vT1cXFwMattU/Pz8YGdnh+zsbBw5ckQn2VdeeQUvvPCCVnWdnZ3VypqePSgE/wmqR5pvoqGsrEytvNBj7Kl2z9b2+Pg4Dh8+DHd3d2zcuBExMTEYHx9fKBMBANbW1oiKikJtbe201SPaYG9vr1W9qesdAWD9+vVz1heC/xZ9IA0PD+Py5ctq+7RZ4Monmm6Ue3p6EBoaiuTkZABAZGQkysrKsG7dugWzcZL4+HiYm5sjNjYWSqXSIG2UlpZyn6VSKdzc3OasLwj/GWI22FCvddm8ebPaLHl7e7tGmdOnT6vJuLu769Tmm2++qdd3UalUtGzZMgJAUqmUVCqV2vHq6mpydXUlACQSiejUqVPT6iw0Bw8eJACUnJzMu26FQkGrV6/mfJqenj5nfWP7T9vXuggqkBwcHDi9VlZWGh2Wl5dHZmZmaoH02muv6dSmvoHU3NzMyYeHh6sdu3TpEtnY2BAAcnJyory8PJ31GwKFQkHPPfcciUQiysjI4FX3oUOHOH8EBgbSyMjInPWN7b9F936k4eFh/PLLL1xZoVCgq6trxroKhQInTpzAnj17oFKp1I4t9P3RTMOSyfF8dHQ0hoaGsGHDBlRWVmLnzp0LattsWFpaIicnB25uboiNjcX777/PyzAvMzMTaWlpACbui65evQoLC4s5ZQTjP95DmAzTIymVSjI3N1frXTZt2kQXLlygb775hmQyGV27do0SExNp7dq1BIDMzMzUFqoCoPLycp3a1bdHmnoFLioqou7ubgoJCeH2RUZG0sDAgM56F4IHDx6Qv78/ASAPDw/65JNPaHR0dF66zp8/TyKRiACQj48PdXV1aSVnbP8tyqHdXKuKf709++yzVFVVpWaLRCKh4eFhndrUN5CeffZZbvx+48YNbjw/uVVVVWmt609/+hP95je/IUdHxwXbbG1t1ex1dXWlr7/+WicfpKamcvKvv/66Tiu/+fTffNA2kAQ1j5SWloY9e/agpaVlxuOPPvoofve73+GPf/wj/P39oVKp1NK4mzdvhpWV1UKZi9HRUe7hKhKJBC+++CKGhobU6iQkJOD69eta6fP29kZbW5vBsmkz0dHRgTt37gCYWOLj6+uLxx57TCtZlUqFw4cPIzU1Febm5khJSUFcXJzWk+F8+8+gGCKKDfky5ocPH1Jubi6lpqbSkSNHKDk5mT777DO6e/euQbJd+vRIlZWV03pKLy8vkslk5OTkxO379ttvebebD27dukXOzs4kEolo3759dO/ePa1lR0ZGKCYmhgCQg4MDFRYW6ty+KfhvUQ7tjIE+gfS3v/1N7SQIDw+n/v5+IlJPy2/bts3oKe9fc+vWLbKzsyMrKyu6evWqTrIDAwO0Y8cOAkDOzs70448/zssGU/DfosvaCZGpE8iJiYnIycmBg4MDAOCtt97ilsrcvHkTX331lVFsnImuri68/PLLkEgkKCkpwZ49e7SW7e3txY4dO1BUVARvb2+Ul5fPe5GpoPxniChmPdIEXl5eBICeeOKJGY9nZmaqZSCVSiUfJutNZGQkAaDs7Gyd5O7fv0/e3t4EgIKCgqivr08vO0zBf6xHMjJTHxk229zVvn374O7uDgCoqanBpUuXFsy+2bh58yYuX76MsLAwREVFaS3X3NyMgIAA3L59GzExMcjPz9fqEWmzITT/CSprZ2haWlq4DNUkra2t3OfOzk5cu3ZN7fi6devw5JNPTtM1NVs424kgkUhw8uRJ7N27FwBw9OhRREREaJykNCSpqancX22za8PDwwgICEBnZydEIhF++uknBAcHc8eVSuWcK7yPHTuGsLAwtX2C8x/vfSEJd2j34Ycfaj1PNbm9++67M+r64IMPuDqlpaWztqlUKmnr1q1cXb6X5OhCX18ficVi8vX11VlOV79N3bKysqbpNBX/saGdkZm8URaLxdiyZcus9czMzHDq1CmufOLEiWlzJQtFaWkpxsfHER0dbZT2pyI4//Eavv9HqD3SUqe1tZWSkpJILpcb2xSTYVGubGAYlscffxxHjx41thmChA3tGAweYIHEYPAACyQGgwdYIDEYPMACicHgARZIDAYPsEBiMHiABRKDwQMskBgMHmCBxGDwAAskBoMHWCAxGDzAAonB4AEWSAwGD7BAYjB4gAUSg8EDLJAYDB5YVL+QLSsrw8WLF7lyXFwc97gmBsOQLJpAamlpQVhYGHp6erh9hYWFKC8vxyOPPGJEyxhLgUUxtJPL5di1axcXRGvXrgUANDQ0ICIiQuNbsxkMfRF8II2NjWHv3r2or68HAOzfvx91dXUIDAwEABQXF+PAgQMgImOayVjkCDqQiAhxcXEoLCwEAOzevRsZGRmwtrZGbm4uNm/eDAA4f/48zpw5Y0xTGYscQQdSeno6PvroIwBAQEAAsrOzIRZP3PY5OjoiLy+PG+bFx8cjNzfXaLYyFjeCDaTr16/j7bffBjDxJrvc3FxYW1ur1Vm1ahUKCgqwYsUKEBFeffVVVFdXG8NcxiJHkIFUV1eH6OhoqFQqrFmzBvn5+bNm5tzc3JCfnw97e3sMDg4iLCwMHR0dC2wxY7EjuEAaHx9HWloa/Pz8EBISgoKCAqxevXpOmS1btiA3NxfBwcHw9PTE2bNnWfKBwSuCm0cSi8W4cOGCznJBQUEICgri3yAGAwLskRgMU4QFEoPBA4Ib2nV3d+Phw4dcWSqVTsvWacPPP/+M0dFRAIC5uTnWrFnDm42MpYfgeqT09HS4urpy27/+9S+dddTX18PFxYXT8de//tUAljKWEoILpI0bN6qVb9++rZM8EeHgwYMYHx8HMDHXdOzYMd7sYyxNBB9IdXV1Osnn5OSgqKiIK6empsLe3p4X2xhLF8EFkpubGywtLbmyLj3S0NAQtxoCmEiJm8L7UhnCR3DJBnNzc6xfvx63bt0CALS1teGXX36Bg4ODRtnTp0+jra2N03Pu3DmIRCKD2jtJW1sbGhoaAABeXl4aJ5EZ6pi6/wQXSMDE8G4ykADgzp078Pf3n1OmpaUFp0+f5sqHDh2Ct7f3nDJEhE8//RS9vb1qPdl8SE5Oxrlz5wBAq9UYQoSIIJPJUF1djcbGRgwMDEAqlcLHxwfBwcGws7Obt26T958h3gRt6LeaJycnc/oB0IULFzTK7N69m6u/atUq6u/vn7N+bW0thYeH8/Yd/Pz8uPZ7e3v11mdqVFRU0PPPP6/2f5m62draUmJiIg0NDc1Lv7H8t6jfaq5r5i4/Px9ffPEFV05NTVUbCtbW1qKlpQWdnZ2or69HSUkJampqeLN3ZGSEW3Xu6em56H76fuPGDYSEhGBkZITbt3z5cnR3d3NrGgcHB5GUlIS8vDx8+eWXkEqlWusXhP8MEcWG7pHu37+vdrULCQmZta5CoSAPDw+u7vbt20mlUqnViYqKmvVKysd3kMlknK7f//73eukyNRobG8nJyYkAkJ2dHf3jH/+gzs5OIiIaHByk0tJSCgoKUvNnQEAAjY6Oat2GMf2nbY8kuKwdMDH38+ijj3LluXqktLQ07iZ1rgSDhYUFVq5ciV27diElJQWhoaG82SuTybjPzzzzDG96TYGkpCTI5XLY29ujoqICb7zxBtfb2NjYYNu2bSguLkZCQgIn89133yEzM1PrNgThP0NEsaF7JCKiwMBAtavcTOPmjo4OsrOz4+q88847M+oaHR2d1ku9+eabvH2H1157jdNVWVmply5TorW1lcRiMQGgtLS0OeuOjY2Rj48P5wcXF5dpPp8NY/pvUfdIwPT7pMleZypHjx7l1uXNtYJBIpEYNA3+/fffAwCsrKywadMmg7WjD1VVVYiIiEB7e7vWMgqFAlZWVli+fDliY2PnrCsWi9Uyn62trdwDazQhBP8tmkC6d++eWrm6uhp///vfuXJKSopWc01809vbi8bGRgDA008/DYlEsuA2aMPAwACuXLmCzz//XGsZDw8PfPzxx4iMjNTqe00+jGaSpqYmjTJC8Z8gs3bA3IFERHjnnXe4jNH27dsRExOzoPZNMnk1BaBxrqupqQkKhQIAYG9vDxcXF4PaNhU/Pz/Y2dkhOzsbR44c0VrulVdewQsvvKBVXWdnZ7WyNs8bFIr/BNsjbdiwQa08dUjyxRdfoKSkBMDCr2D4NVNPhNlulMfHx3H48GG4u7tj48aNiImJ4RbVLhTW1taIiopCbW0tKisrdZLVdq1ic3OzWnn9+vUaZYTiP8EGkoODg9oV58GDBwCA0dFRxMfHc/vj4uKmBd1Coinj1NPTg9DQUCQnJwMAIiMjUVZWhnXr1i2YjZPEx8fD3NwcsbGxUCqVvOsvLS3lPkulUri5uWmUEYz/DJHpWIisHRHRSy+9xLXz1FNPERFRSkoKt2/lypUaVzDMBh9ZO5VKRcuWLSMAJJVKp2WpqqurydXVlQCQSCSiU6dOaZ3JMhQHDx4kAJScnMyrXoVCQatXr+Z8mp6erlHGFPynbdZO0IH03nvvqS37kcvl3OQgALp48eK8dfMRSM3NzZyO8PBwtWOXLl0iGxsbAkBOTk6Ul5c3b1v5RKFQ0HPPPUcikYgyMjJ403vo0CHOF4GBgTQyMqJRxhT8t+jT34B6wqGrqwsZGRmQy+UAgMDAQKMlGCaZaVgyOZ6Pjo7G0NAQNmzYgMrKSuzcudNYZqphaWmJnJwcuLm5ITY2Fu+//77ew7zMzEykpaUBmLgvunr1KiwsLDTKCcp/hojiheqRampq1CZlHR0dCQCZm5tTbW2tXrr56JGmXoWLioqou7ubQkJCuH2RkZE0MDCgl52G4sGDB+Tv708AyMPDgz755BOdlvVMcv78eRKJRASAfHx8qKurS2tZU/Dfol60OomnpyfEYjGXoenv7wcAHDx40KgJhkkmr6gikQiWlpbw9fXFf/7zH+74kSNHtP5pwf79+5GTk7Og2ajJthoaGvCHP/wBx48fR1ZWFrZv366V/JkzZ/DnP/8ZAPD6668jMzNTpwfV8Ok/QyPoQLKwsICXl5faz81XrlyJ48ePG8+o/zM6OoqqqioAEysnXnzxRQwNDanVSUhIwPXr17XS5+3tjba2NoNk02ajo6MDd+7cATBxMvv6+uKxxx7TKKdSqXD48GGkpqbC3NwcKSkpiIuL02kKgm//GRxDdIcLNbQzJPoO7SorK6etIvfy8iKZTKaWEPn2228NYL3+3Lp1i5ydnUkkEtG+ffvo3r17WsmNjIxQTEwMASAHBwcqLCycV/um4r8lkWwwZabeKANAeHg4ZDIZ/Pz81FYOvPfeeyb3HPLq6mr89re/RW9vL65cuYKsrCx4eHholHv48CFeeuklZGdnw9nZGTdu3MCOHTvmZYPQ/McCyUBMnZFPTExETk4Ot9bvrbfe4pbL3Lx5E1999ZVRbJyJrq4uvPzyy5BIJCgpKcGePXu0kuvt7cWOHTtQVFQEb29vlJeX67XAVHD+M0R3yIZ2RF5eXgSAnnjiiRmPZ2Zmcvo3bdpESqVSX5N5ITIykgBQdna21jL3798nb29vAkBBQUHU19entx2m4j82tDMicrkcd+/eBTD7+rB9+/bB3d0dAFBTU4NLly4tmH2zcfPmTVy+fBlhYWGIiorSSqa5uRkBAQG4ffs2YmJikJ+fDycnJ73sEKL/BJ2144uWlhYuOzVJa2sr97mzsxPXrl1TO75u3To8+eSTM+qbuuhzthNBIpHg5MmT2Lt3L4CJ305FRERoNVFpKFJTU7m/2mTYhoeHERAQgM7OTohEIvz0008IDg7mjiuVyjlXeB87dgxhYWHT9gvSf4boDoU2tPvwww+nZYg0be++++6s+j744AOuXmlp6az1lEolbd26lavL55IcXenr6yOxWEy+vr46yejqt6lbVlbWjHpNyX9saGdEJm+UxWIxtmzZMms9MzMznDp1iiufOHFi2lzJQlFaWorx8XGTePKsEP3HeiQGEU08fyEpKYnkcrmxTTEptO2RRET8J+GDgoLwzTffAAAcHR21+t3JVFxcXHDlyhW+zWIscf7yl7/g3//+t04yP//8M/fybltbW7V3c03F4MmG/v5+/PDDDzrJzGYsg6EPLS0tOp+L2sLukRgMHjBIjxQSEqLXQ85XrVrFozUMxgQBAQEQi+d/yk99ndCvMcg9EoOx1GBDOwaDB1ggMRg88D/3SaJ/201HrAAAAABJRU5ErkJggg==;" vertex="1" parent="1">
          <mxGeometry x="-481.13" y="941.38" width="52.26" height="28.62" as="geometry" />
        </mxCell>
        <mxCell id="CyaymzP_PxcqaUdQ-rHQ-39" value="" style="shape=image;verticalLabelPosition=bottom;labelBackgroundColor=#ffffff;verticalAlign=top;aspect=fixed;imageAspect=0;image=data:image/png,iVBORw0KGgoAAAANSUhEUgAAAMcAAAB6CAYAAAALUUdtAAAABHNCSVQICAgIfAhkiAAAAAlwSFlzAAAOxAAADsQBlSsOGwAAGvxJREFUeJztnXtQU2f6x78hwSCGi1aM0KrVclMu3SJBvBTpWqbVAWxVKrS11lZnO+KI2sFZR2sZ2061CGW9oEMtdnZFip3KGFtRs2NXpxQxILriDdGOOC4XF1G5mADJ+/uD5f3lCCc5CcGclPczc2bOm/M8z/ue5+Q5572eIyGEEDAYjD64OLoADIZYYcHBYPDAgoPB4IEFB4PBAwsOBoMHmRCh+Ph4/PrrrzZnEhAQAK1Wa7M+g9EfH3zwAQ4fPmyz/ogRI3D37l3e44KCo62tDQ8fPrS5EK2trTbrMhh8dHR0DOh/2d3dbfa4oOBwBGVlZSgoKKDptLQ0BAQEOLBEjKGG1cERFBSE5ORkq3RGjx5tlfytW7eQkJCA5uZm+ptGo8HZs2cxcuRIq2wx/rgsWrQIwcHBVun861//wunTp4UJEwHMnj2bACAAyPz584Wo2ExLSwuZPHkyzW/SpEl0/89//jPp7Owc1PwZf2w+/fRT+n8aMWKEWVlR9VZ1dXXhrbfewtWrVwEAK1asQHV1NWJiYgAAp06dQmpqKgib8cJ4CogmOAghSEtLg0ajAQDMnz8fubm5GD58ONRqNV588UUAwDfffIPs7GxHFpUxRBBNcOzcuRN79uwBAMyaNQuFhYWQyXqaRF5eXigpKcGkSZMAAOnp6VCr1Q4rK2NoIIrgOHbsGNauXQsACAkJgVqtxvDhwzkyvr6+OHHiBMaMGQNCCN5++21cuHDBEcVlDBEcHhzV1dVITk6G0WjEuHHjcPz4cd4eKX9/fxw/fhweHh5ob29HQkIC6uvrn3KJGUMFhwZHd3c3cnJyEBUVhbi4OJw4cQLPPfecWZ2XXnoJarUac+bMQVBQEHbs2MEa6IxBwaGDgDKZDPv27bNaLzY2FrGxsfYvEINhgsOrVQyGWGHBwWDwIJq5VR0dHWhqaqJphUIhaNpJS0sLZ/LZ6NGjoVAoBqWMjKGFaJ4c+/fvx8SJE+mWl5cnSC81NZWjd/78+UEuKWOoIJrgOHfuHCcdFRVltZ6LiwumTp1q13Ixhi6iDY7IyEiLOs3Nzbh58yZNh4aGYsSIEXYvG2NoIorgePDgAa5du0bTQUFB8Pb2tqhXUVHBSQt92jAYQhBFg9zWP7mtVTF7UVdXh5qaGgBAcHCwxQFMBhex+08UwVFeXs5J2zs4CCEoLy/HhQsXcOPGDbS2tkKpVCIyMhJz5syxuXcrMzMTu3btAgBBo/vOjF6vx6lTp3D69Gk0NTXBy8sL4eHhSEhIsHoxWy+i95+QBSKDvdgpMTGR2gdAysvLLeoYjUaiVCqpjru7O+nq6uojp9VqySuvvMKxb7qNGDGCbN68mXR0dFhd7qioKGrn/v37Vus7C0eOHCF+fn79+k8mk5EtW7bYtAjNEf6zZrGTw4PDaDSSsWPHUvuurq5Ep9NZ1Lt9+zbnIr388st9ZM6cOUPkcjlHzsfHh0gkkj4XWaVSkYaGBsHl1ul0ZNiwYQQACQoKsuqcnYmsrKw+N5OIiAjOjQkAiYuL6/fmxIej/OdUKwHv3LmDhoYGmv7Tn/4EuVxuUc9Slaq2thaJiYnQ6/VQKBTIz89HQ0MDmpqa0NbWhtLSUs78LK1Wi0WLFqGrq0tQuS9evIjOzk4AwLRp0wTpOBsajQbp6ekAAE9PT+Tn5+PRo0eorKxEQ0MDtFotwsLCqOzGjRsF23YG/zk8OGxtVD/5Hqwn9bZs2YIHDx7Aw8MDWq0Wy5Ytg1KpBAC4u7tjxowZOHXqFOeC/vrrr4IHH03bSWK9uAPBYDDgL3/5C4xGIwCgoKAAy5Ytg4vL//9lIiMjodFoMHbsWADAV199JXgQ1hn85/DgsFdj3NTBdXV1KCwsBAB89tlnvG+okEgkyMjI4IypZGZmCpoC7wwXdyAcPXoUv//+OwBg7ty5iI+P71dOqVRi8+bNNN27mtMSzuA/hweHLU8Og8HA6f4dM2YMxo8fT9M6nQ5ubm7w8fHBypUrzdqSyWR0FSIA3L59m77gQUi53dzcEB4eblHeEZw/fx6LFi3CnTt3rNb99ttv6f57771nVvbdd9+FVCoFABw8eBDt7e0W7TuD/xwaHAaDAZWVlTTt6emJwMBAi3rXrl1DW1sbTUdFRUEikdB0YGAgvvvuOyQlJcHV1dWivd6XN/RSW1trVv7+/fu4ceMGACAiIkJQHo6gtbUVP/74Iw4cOGCVHiEEpaWlNB0REWFW3sPDA/7+/gB6JpBWVVWZlXcW/zk0OC5fvsy5y6hUKk6dlg9L7Q0AWLhwIbZu3SqoHH5+fpy0pUa56dMuOjrarGxtbS2qq6tRXV2N27dvCyqPvYiKioJCoaBVTKHU1taipaUFACCXy/HCCy9Y1AkJCaH7Tw7qPomz+M+hwWFrY7ysrIyT5quzenh4CLJnOj8LAKZMmWJW3rTcfHl3d3dj/fr1CAgIQFhYGFJSUiy+m9XeDB8+HIsXL8alS5cs/mFNMa2GBQYG0iqTOSZPnkz3e0e9+XAW/zldcDx+/Bg//PAD5zchkxTNYVqFUCqVtIrAh6XGZHNzM+bNm4fMzEwAQFJSEsrKygTdge1Neno6pFIpVq5cCYPBIEjHdH2MkDluT8pZenG4s/hPVMEh5E++c+dO+sgHej5vMGrUKJvLoNfrsX37dpretGmT2TowIYSWW6lUcjoCgJ7+e5VKBY1GA4lEgi+//BJFRUUOW4AVFBSE1NRUaLVafP3114J0TINDyJjTk3KPHj3ilXMq/wkZVRysEXJPT09q183NjRiNRrPyJSUlxMXFhTMy+8477wyoDGvWrKG2YmJiiF6vNyt/8+ZNKp+YmMg59v333xN3d3cCgHh7e5OSkpIBlc1e6HQ6MnPmTCKRSEhubq5F+ZycHHqOc+fOFZTH3r17qU5sbCyvnKP95xQj5I8fP+bcYXQ6He7du9evrE6nw2effYY333yTDkr1MpA+8ry8POTk5ADoaWccPnwYw4YNM6vTX5Wgt36cnJyMjo4OhIaGoqKiAq+//rrNZbMncrkcxcXF8Pf3x8qVK7Fp0yazVSzTur3Qer5QHWfyn8Nm5crlckilUs5FiouLw+rVqxEQEAA3Nzfcu3cP586dw4EDB3Dr1i24uLhAqVSisbGR6tg6TX3fvn346KOPAPRU50pKSvDMM89Y1HuyMdnc3IyUlBT6jt+kpCTk5+eLbh27j48PSktLkZiYiC+++AI//PADNm7ciJSUlD7VSC8vL7qv1+sF2TeV8/T05JVzJv85LDhcXFwQExODX375hf7273//G8uXL+9Xfvr06di9ezfWrl1Lg8PV1bXPGIUQsrOz8fHHHwPoGcDKy8vr8/pRPnrvfBKJBHK5HCqVio4kA8CGDRsEX9gVK1aguLj4qfbC9OZVU1ODpUuXIiMjA/v378fs2bOpjC3BodPp6L654LCn/wYbh67nyMnJwZtvvolbt271e3zUqFFYsGABPvjgA0RHR8NoNHK6JF988UW4ubkJzs9oNGL9+vXIysqCVCrF9u3bkZaWxhlANEdnZyedO+Tq6orXXnsNHR0dHJmNGzfi2LFjguyFhISgrq5OcC+SPaivr8eVK1cA9PxBVSoVnn32WY6MaXCYa1ybYjpexdeFbm//DTpCGjGDOWW9ra2NqNVqkpWVRTZs2EAyMzPJP/7xD3Lt2jWLDXRr0Ov1JCUlhQAgnp6eRKPRWG2joqKiz1T34OBgUl5eTry9velvZ86csVu57UlVVRXx8/MjEomEvP/+++T69ev9ylVWVtJzkUql5PHjxxZt9/oWAMnIyOhXRgz+c6r1HE+D1tZW8uqrrxIAxM/Pj1y8eNEmO7t37+Zc2MTERPLw4UNCCCHbtm2jv8+YMcOugW0PqqqqiEKhIG5ubuTw4cNmZU3XWgAgWq3Wov3w8HAqr1ar+5URg/9YcJjQ3NxMpk2bRgCQkJAQUldXZ7OtpUuXUj9s3ryZGAwGeqy9vZ2zWu7o0aP2KL5daGpqIhMmTCAjR44kZWVlgnRmzJhBz2Xv3r1mZRsaGjhPmsbGxn7lxOA/Fhz/4+7duyQkJIT2vbe0tAzIXnBwMAFAnn/++X6P5+XlUT+Fh4dzLr4jSUpKIgBIYWGhYJ09e/bQc4mKijJ7J9+6dSuVnTdvHq+cGPzHgoMQUltbSyZOnEgAkJSUFEFLb83R0tJCfbB48eJ+ZTo7O0lAQACVKygoGFCe9qC0tJQAIAkJCVZVVVpbWzmDtEVFRf3K1dfXc+R+/vnnfuXE4r8hHxwdHR10XbpEIiHTp08nM2fOpFt0dDSZOnUq79ZfnVmj0VAfZGdn8+Z96NAhKjdp0iSLI+6DzYIFCwgAUlNTY7Vufn4+PRe5XE4OHjzICbDLly+TwMBAKhMfH89rSyz+G/LBYXqXsmXbv39/H5uff/45PV5aWsqbt8FgIFOnTqWyQqZrDBYtLS1EJpMRlUplk77RaCTLli3j+CYgIIC88cYbnDYJABIaGsrb1iBEPP5jwTEIwdH7+iCZTGbxNT4nT56ktnx9fUl7e/sgnal5fvrpJwKAZGVl2WzDYDCQrKwsTu/Vk9vChQtJU1OTWTti8Z81wSGKl7rZG29vb7t/Cu3IkSOCZePi4kTxKbawsDBs2bIFH374oc02XFxcsG7dOixZsgRFRUX47bff0NjYCF9fXwQGBiI+Pt7iSkHAOf33hwwORg/jx4/HJ598YhdbPj4+WLVqFVatWmUXe86Aw1+wwGCIFRYcDAYPLDgYDB5YcDAYPLDgYDB4YMHBYPDAgoPB4IEFB4PBAwsOBoMHFhwMBg8sOBgMHlhwMBg8sOBgMHhgwcFg8MCCg8HggQUHg8EDCw4GgwdRrwQsKytDQUEBTaelpSEgIMCBJWIMJUQbHLdu3UJCQgKam5vpbxqNBmfPnsXIkSMdWDLGUEGU1aoHDx4gPj6eBsakSZMA9Lw2f9GiRRa/9spg2APRBUdXVxfeeustXL16FUDPNyyqq6sRExMDADh16hRSU1NF8XYKxh8bUQUHIQRpaWn0Kz/z589Hbm4uhg8fDrVaTT9U88033yA7O9uRRWUMAUQVHDt37sSePXsAALNmzUJhYSFksp5mkZeXF0pKSmgVKz09HWq12mFlZfzxEU1wHDt2DGvXrgXQ88UjtVrd51Nkvr6+OHHiBMaMGQNCCN5++21cuHDBEcVlDAFEERzV1dVITk6G0WjEuHHjcPz4cd4eKX9/fxw/fhweHh5ob29HQkIC6uvrn3KJGUMBhwdHd3c3cnJyEBUVhbi4OJw4cQLPPfecWZ2XXnoJarUac+bMQVBQEHbs2MEa6Ay74/BxDplMhn379lmtFxsbi9jYWPsXiMH4Hw5/cjAYYoUFB4PBg8OrVf/973/R1tZG00qlsk8vlRD+85//oLOzEwAglUoxbtw4u5WRMTRx+JNj586dmDhxIt0OHTpktY2rV69iwoQJ1Mbf/va3QSgpY6jh8OAICwvjpC9fvmyVPiEEq1evRnd3N4CesZBPP/3UbuVjDF1EFxzV1dVW6RcXF+Of//wnTWdlZcHDw8MuZWMMbRweHP7+/pDL5TRtzZOjo6ODjqoDPd27ycnJdi0fY+ji8Aa5VCrFlClTUFVVBQCoq6vDo0eP4OnpaVF327ZtqKuro3Z27doFiUQyqOXtpa6uDjU1NQCA4OBgiwOXDC7O4D+HBwfQU7XqDQ4AuHLlCqKjo83q3Lp1C9u2baPpNWvWICQkhCNDCEF5eTkuXLiAGzduoLW1FUqlEpGRkZgzZw4UCoXNZc7MzMSuXbsAQNCovrOi1+tx6tQpnD59Gk1NTfDy8kJ4eDgSEhIwevRom+06hf+EfJ52sD+1nJmZyfl07759+yzqzJ8/n/M53ocPH3KOa7Va8sorr/B+HnjEiBFk8+bNFj/7y0dUVBS1df/+fZtsiJ0jR44QPz+/fv0nk8nIli1bSGdnp022HeU/p/sO+fHjxzmOX7t2rVn5kpISjvzBgwc5x8+cOUPkcjlHxsfHh0gkkj4XWaVSkYaGBqvKq9Pp6He5g4KCrD5fZyArK6vPzSQiIoIolUrO73FxcaSrq8sq2470n9MFx927d/s4nA+dTkcCAwOp7OzZs4nRaKTHb9y4Qby9vQkAolAoSH5+Pv3zt7e3k9LSUhIbG8vJb9asWVbdAcvLy6nue++9Z/uJi5STJ08SFxcXAoB4enqS/Px8YjAY6HGtVkvCwsKoD9avX2+VfUf6z+mCw2g0klGjRtE8/Pz8eGW3bt1K5aRSKbl06RLn+JIlSwgA4uHhQa5evcqb38aNGzkBsmvXLsHl3bFjB9XbvXu3YD1noLu7m0ycOJGe39GjR/uVa2hoIGPHjqVylZWVgvNwpP+cLjgIISQmJobzZ+2vHlpfX08UCgWVWbduHef47du3iUwmIwBITk6O2fy6urpIZGQktTVhwgTOE8gc77zzDtWrqKgQfpJOQHFxMT23uXPnmpXNzc2lssuXLxechyP9Z/fgePnll6nB+Ph4uxTySVJTUznBcfbs2T4yy5cvN9sIv379OlEoFMTHx0dQNamgoICT5+XLlwWVNSAggAAgbm5uNjdIB5vKykqycOFCUldXZ5VefHw89UdhYaFZ2UePHhGpVEoAEHd3d9LW1iYoD0f6b9OmTfT83N3dzcoKGgS8ffs23b9586YQFat5cqT8+vXrnPSFCxfw7bff0vT27dv7jIUEBgbiu+++Q1JSElxdXS3m2fvChl5qa2st6ty/fx83btwAAERERAjKxxG0trbixx9/xIEDBwTrEEJQWlpK0xEREWblPTw84O/vD6BnQNa0O54PR/vvypUrdL93oiofgoJj4sSJdD8wMNDGYpnHXHAQQrBu3Tq62m/27NlISUnp187ChQuxdetWQXn6+flx0kLeh3Xu3Dm6b2kspra2FtXV1aiurubcYJ4GUVFRUCgUKCwsFKxTW1uLlpYWAIBcLscLL7xgUcd0bKmiosKivKP9Z/o/M52Z0R8Onz7SS2hoKCd9584dun/kyBH88ssvAISNhAudW/XkU3DKlCkWdUwv7rRp0/qV6e7uxvr16xEQEICwsDCkpKTQiZFPi+HDh2Px4sW4dOmSoD8twPV5YGAgpFKpRZ3JkyfT/d4Rb3M4i/8AEQWHp6cnJkyYQNNNTU0Aeh596enp9Pe0tLQ+gWQrplUIpVJJqwjmKC8vp/v9Xdzm5mbMmzcPmZmZAICkpCSUlZUJugvbm/T0dEilUqxcuRIGg8Gi/MOHD+m+t7e3oDxM5VpbWy3KO5P/RBMcAPfp0djYCKBnvUdvW2Ds2LF2m46u1+uxfft2mt60aZPF+i8hhN75lEolxo8fzzl+8eJFqFQqaDQaSCQSfPnllygqKhrQNJWBEBQUhNTUVGi1Wnz99dcW5U2Dw1KVoz+5R48emZV1Nv+JpiuXEEL++te/cnqjHjx4QAf0AJCCggK75bVmzRpqNyYmhuj1eos6N2/epDqJiYmcY99//z1xd3cnAIi3tzcpKSmxW1kHgk6nIzNnziQSiYTk5uaalc3JyRHcjdvL3r17qU5sbKxZWTH4z5quXFE9OUwbS/fu3UNubi4ePHgAAIiJieFthFtLXl4ecnJyAPS0Mw4fPoxhw4ZZ1OuvStBbP05OTkZHRwdCQ0NRUVGB119/3S5lHShyuRzFxcXw9/fHypUrsWnTJt4qlmm9Xmgd3xodZ/OfaIOju7ubzrqVSqXYvXu3Xaaj79u3Dx999BEAIDIyEqdPn8YzzzwjSPfJxqSY6sfm8PHxQWlpKaKjo/HFF19gypQp+Pvf/96nd87Ly4vu6/V6QbZN5SwtM3A2/4liynovQUFBkMlk9A7UWwdevXq1XRrh2dnZ+PjjjwEA7777LvLy8qx6mUPvnU8ikUAul0OlUuH333+nxzds2CC4frxixQoUFxc/1V6Y3rxqamqwdOlSZGRkYP/+/Zg9ezYA24JDp9PRfUvBYU//PQ1EFRzDhg1DcHAwZ6ns2LFjkZGRMSC7RqMR69evR1ZWFqRSKbZv3460tDSrnkSdnZ04f/48AMDV1RWvvfYaOjo6ODIbN27EsWPHBNkLCQlBXV2doF4ke1FfX08HwSQSCVQqFZ599ll63DQ4LDWue2lvb6f75rrQ7e2/p4KQRszTapAPBnq9nqSkpNAZphqNxiY7FRUVfaa7BwcHk/Lyck6nwZkzZ+x8BvahqqqK+Pn5EYlEQt5//31y/fr1PjKVlZWcSZ2PHz+2aLfXtwBIRkYGr5xY/OeUEw8Hg9bWVvLqq6/Smb4XL1602dbu3bs5FzYxMZHO7dq2bRv9fcaMGYInMD4tqqqqiEKhIG5ubuTw4cO8cqbrLAAQrVZr0XZ4eDiVV6vVvHJi8R8LDkJIc3MzmTZtGgFAQkJCrJ6A9yRLly6lPti8eTNnfUN7eztnxRzfNG9H0NTURCZMmEBGjhxJysrKLMrPmDGDnsfevXvNyjY0NHCeNI2NjbyyYvHfkA+Ou3fvkpCQENr33tLSMmCbwcHBBAB5/vnn+z2el5dHfRQeHs65+I4kKSlJ0AzbXvbs2UPPIyoqyuxd3HRtzbx588zaFYv/hnRw1NbW0sU6KSkpRKfTDdhmS0sLPf/Fixf3K9PZ2UmnYsPOA5a2UlpaSgCQhIQEwVWV1tZW4unpSc+jqKioX7n6+nqO3M8//8xrU0z+G7LB0dHRQVenSSQSMn36dDJz5ky6RUdHk6lTp/JufHVmjUZDzz87O5s3/0OHDlG5SZMmCRp1H0wWLFhAAJCamhqr9PLz8+l5yOVycvDgQU5wXb58mbNU2dIaHzH5b8gGh+kdypZt//79/dr9/PPPqUxpaSlv/gaDgUydOpXKWpquMZi0tLQQmUxGVCqV1bpGo5EsW7aM45uAgADyxhtvcNokAEhoaKjZtgYh4vIfCw47B0diYiIBel5HY+lVPidPnqT2fH19SXt7+yCcqWV++uknAoBkZWXZpG8wGEhWVhan9+rJbeHChaSpqcmiLTH5z5rgENUg4EDx9vYelM+fHTlyRLBsXFycKD7BFhYWhi1btuDDDz+0Sd/FxQXr1q3DkiVLUFRUhN9++w2NjY3w9fVFYGAg4uPjLa4U7MUZ/QeIbIScYT/Gjx+PTz75ZMB2fHx8sGrVKqxatcoOpXIuRDXxkMEQEyw4GAweWHAwGDyw4GAweGDBwWDwwIKDweCBBQeDwcP/AfR3aEc+LIiMAAAAAElFTkSuQmCC;" vertex="1" parent="1">
          <mxGeometry x="-630" y="801" width="46.69" height="28.62" as="geometry" />
        </mxCell>
        <mxCell id="CyaymzP_PxcqaUdQ-rHQ-40" value="" style="shape=image;verticalLabelPosition=bottom;labelBackgroundColor=#ffffff;verticalAlign=top;aspect=fixed;imageAspect=0;image=data:image/png,iVBORw0KGgoAAAANSUhEUgAAAMgAAAB3CAYAAABGxA8+AAAABHNCSVQICAgIfAhkiAAAAAlwSFlzAAAOxAAADsQBlSsOGwAAF7ZJREFUeJztnXtQlOf1x78Lu8hdkqqrxEtQbhEvNQIhhioZJMlQwdiASJJpTSdOZjAjmg4mDhUd1FoHMFSsmaINuRlsHcOUGIGBgTQGYQNFwsULtwaYRMLdILCL7J7+wY/nxxtkL+yy7648n5kdePZ9znkOZ9/Dczv7vCA92LRpEwEgALR161Z9RDgci+TQoUPsXnZyctJZ3wYcDmdKeIBwOFrgAcLhaIEHCIejBR4gHI4WpGIbMBVlZWU4f/48K8fHx8PLy0tEizizEYsMkJaWFkRERKCnp4e9V1hYiPLycjzyyCMiWsaZbVjcEKu/vx9btmxhwbF8+XIAQENDA6KionD//n0xzePMMiwqQO7fv4/t27fj5s2bAIBdu3ahrq4OGzduBAAUFxdj9+7dICIxzeTMIiwmQIgI8fHxKCwsBABs3boVZ86cgYODA3Jzc7F27VoAwNmzZ3Hy5EkxTeXMIiwmQDIyMvDee+8BAIKDg5GdnQ2pdGyKNHfuXOTl5bHhVkJCAnJzc0WzlTN7sIgAuXLlCvbt2wcA8PPzQ25uLhwcHAR1Fi1ahIKCAixYsABEhJdffhnV1dVimMuZRYgeIHV1ddixYwc0Gg2WLFmC/Pz8KVeqPD09kZ+fDxcXFwwODiIiIgJ37twxs8Wc2YSoATI6Oor09HQEBgYiLCwMBQUFWLx4sVaZdevWITc3F6GhofDx8cGpU6f4pJ0zY4i6DyKVSnHu3DmD5UJCQhASEmJ6gzicnyH6EIvDsWR4gHA4WrCYVJOhoSF0dnaysrOzM+bNm6dTrq+vD3fv3mXlefPmwdnZeUZs5Mw+LKYHycrKgoeHB3tlZmbqJbd7926BXFVV1QxbyplNWEyAfPPNN4JyYGCgwXI2NjZYv369Se3izG4sNkD8/f11yvT09KC5uZmVV61aBScnJ5Pbxpm9WESA9Pf349atW6zs4+MDNzc3nXKVlZWCsr69DoejLxYxSZ/ujT7dYZmpaGtrQ0NDAwDA19dX5yYnR4g1+M8iAkShUAjKpg4QIoJCoUB1dTUaGxsxMDAAuVwOf39/hIaGTnvVKyUlBadPnwYAvbIAHhaICB999BF6e3tZDt10sAr/6XPY1kwfHBcZGcn0AyCFQqFTRqPRkFwuZzKOjo50//79SfUqKiro2WefFeif+HJycqKkpCQaGhoy2O7AwECmp7e312B5a6S2tpZ9XsbeC2L4z9CD40TvQYhI0BPIZDL23Q9ttLe348cff2Tl9evXs/T4ca5evYqwsDCoVCr23vz589Hd3c3ytwYHB5GcnIy8vDx8/vnnkMvletmtUqlYNrGPj89D+VXg2tpatLS0oKOjAzdv3kRJSQlqampMotta/Cd6gLS3t6Ojo4OVf/nLX2LOnDk65XQNr5qamhAZGQmVSgVnZ2ecOnUK4eHhkMvlGBoaQnV1NRITE/Hll18CACoqKhAVFYXi4mLIZDKd7X/77bcYGRkBADz11FM661sjx44dwz/+8Y8Z0W0t/tNrFcvOzg6Ojo5wdHTU6+YxhOlOtCsqKrTKJScno7+/Hy4uLqioqMBrr73GegdHR0ds2LABxcXFSExMZDJff/213huUE+dNlvwBG4udnR0WLlyILVu2IDU1FeHh4SbRK5b/bG1t2b3s6Oios75ePcjIyAiGhoYAwOSHJphqgj7RyW1tbcjOzgYAHDlyBL6+vg/UIZFIcPjwYRQUFLCVtJSUFMTFxUEikeht98MaIB9//DGkUqnAF42NjSbRLZb/1Go1u5d1fcaABeyDTKcHUavVgqXhBQsWYOnSpaysVCphb2+P+fPnIy4uTqsuqVQqWIlpbW1lh0boY7e9vT3WrFmjs74YVFVVISoqCu3t7dOSl8lket1E08Ea/AeIHCBqtRr/+c9/WNnV1RXe3t465W7duoV79+6xcmBgoOCD9Pb2xgcffIDo6Gi9hoQ/XxRoamrSWr+3t5f9J33yySdNPuw0FQMDA7h06RI++eQTsU0RYC3+A0SepNfX12NwcJCVAwICYGOjO2Z1zT8A4KWXXsJzzz2nlx3u7u6Csq5h5MReLygoSGvdpqYmKJVKAICLiwuWLVuml02mIDAwEM7OzsjOzsaBAwfM1q4urMV/gMg9yHQn6GVlZYLyVGNYFxcXvfRNzOcCgJUrV2qtP9HuqdoeHR3F/v374eXlhdWrVyM2Nhajo6N62WMqHBwcEBMTg9ra2knZCmJiLf4DrDBAhoeHcfHiRcF7+iQ2aqO0tJT9LpfL4enpqbW+rglmT08PwsPDkZKSAgCIjo5GWVkZVqxYYZSd0yEhIQG2traIi4uDWq02e/sPwpr8J+pO+tq1awW72u3t7TplTpw4IZDx8vIyygalUkmLFy9m+jIyMrTW12g0NG/ePAJAcrmcNBqN4Hp1dTV5eHgQAJJIJHT8+PFJdczNnj17CAClpKQYreuNN94w6l4Q23+G7qSLGiCurq5Mr729vU5H5OXlkY2NjSBAXnnlFaNs2Lt3L9O1ceNGUqlUWus3Nzez+pGRkYJrFy5cIEdHRwJAbm5ulJeXZ5RtpkKpVNIzzzxDEomEzpw5Y5QuYwNEbP9ZzTMKh4eH8dNPP7GyUqlEV1fXA+sqlUocOXIE27Ztg0ajEVwzZg09MzMT6enpAMbmHZ999hns7Oy0yjxoeDA+Xt6xYweGhoawatUqVFZW4oUXXpi2baZkzpw5yMnJgaenJ+Li4vDHP/5RtOGW1flPn6ibiR5ErVaTra2toDdYs2YNnTt3jv7973+TQqGgy5cvU1JSEi1fvpwAkI2NjSBBEQCVl5dPq/2zZ8+SRCIhAOTv709dXV16yU3scYqKiqi7u5vCwsLYe9HR0TQwMDAtm2aazs5OCgoKIgDk7e1NH374IY2MjBikw9geRGz/WdUQS1uW7c9fTz/9NFVVVQlskclkNDw8bHC7aWlpTMerr75qUCbv008/zcbHV69eZePl8VdVVZXeul5//XX6xS9+QXPnzjXby8nJSWCvh4cHffnll3rbbGyAmNJ/08GqsnnT09Oxbds2tLS0PPD6o48+it/85jf4/e9/j6CgIGg0GsFy5dq1a2Fvb693exqNBvv370daWhpsbW2RmpqK+Ph4vXeLR0ZG2KEQMpkMzz//PEtbGCcxMRFXrlzRS5+fnx/a2trMOty5c+cObty4AWAs1SIgIACPPfaYWdo2tf/Mgj5RN5PfB7l37x7l5uZSWloaHThwgFJSUujjjz+mW7dumXT1QqVSUWxsLAEgV1dXKiwsNFhHZWXlpJ7N19eXFAoFubm5sfe++uork9ltSq5fv07u7u4kkUho586ddPv2bYN1GNODWIL/rGqIZS4GBgZo8+bNBIDc3d3p22+/nZaev/71r4IPNzIyku7evUtEwuXnDRs2iL60+3OuX79Ozs7OZG9vT5999tm09RgTIJbgP6tZxTIXvb292Lx5M4qKiuDn54fy8vJpJ8dN3NhMSkpCTk4OXF1dAQBvvvkmS1m5du0avvjiC+ONNxFdXV148cUXIZPJUFJSgm3btolih1X6T5+os9Ye5Pvvvyc/Pz8CQCEhIdTX12eUPl9fXwJAjz/++AOvZ2ZmClbk1Gq1Ue2ZiujoaAJA2dnZRusypgexBP/xHuT/aG5uRnBwMOrr6xEbG4v8/Hy9jhKaiolHE02197Jz5072qOqamhpcuHBh2u2ZimvXruHixYuIiIhATEyMaHZYq/9E/8rtTDA8PIzg4GB0dHRAIpHgu+++Q2hoKLuuVqu1ZuweOnQIERERgvcmrp5N9QHLZDIcO3YM27dvBwAcPHgQUVFROjcfZ5K0tDT209DvdrS0tLAVr3FaW1vZ7x0dHbh8+bLg+ooVK/DEE09M0mWt/nsoh1h9fX1676886JWVlTVJ59GjR9n10tLSKdtWq9W0fv16VtfY1A5j6OvrI6lUSgEBAdOSf/fddw323dtvv/1AXZbiPz7EmiHGJ5hSqRTr1q2bsp6NjQ2OHz/OykeOHJm01m8uSktLMTo6ih07dojS/kSs0X8AHs4ehDNGa2srJScnU39/v9imWAxWtZPOmVmWLl2KgwcPim2GVcOHWByOFniAcDha4AHC4WiBBwiHowUeIByOFniAcDha4AHC4WhBr32Q8dPdAVj0MZEcji7GT3cHYB2nu3M45sTqTnfncCwZHiAcjhZ4gHA4WuABwuFogQcIh6MFHiAcjhZ4gHA4WrDoL0yVlZXh/PnzrBwfH89OveBwzIHFBkhLSwsiIiLQ09PD3issLER5eTkeeeQRES3jzCYscojV39+PLVu2sOBYvnw5AKChoQFRUVF8N59jNiwuQO7fv4/t27ezZ5Xv2rULdXV12LhxIwCguLgYu3fvBhGJaSZnlmBRAUJEiI+PR2FhIQBg69atOHPmDBwcHJCbm8ueZ3727FmcPHlSTFM5swSLCpCMjAy89957AIDg4GBkZ2dDKh2bJs2dOxd5eXlsuJWQkIDc3FzRbOXMDiwmQK5cuYJ9+/YBGHuwTG5uLhwcHAR1Fi1ahIKCAixYsABEhJdffhnV1dVimMuZJVhEgNTV1WHHjh3QaDRYsmQJ8vPzp1yp8vT0RH5+PlxcXDA4OIiIiAjcuXPHzBZzZguiB8jo6CjS09MRGBiIsLAwFBQUYPHixVpl1q1bh9zcXISGhsLHxwenTp3ik3bOjCD6PohUKsW5c+cMlgsJCUFISIjpDeJwJiB6D8LhWDI8QDgcLYg+xOru7sa9e/dYWS6XT1q90ocffvgBIyMjAMa+mL9kyRKT2ciZvYjeg2RkZMDDw4O9/vnPfxqs4+bNm1i2bBnT8Ze//GUGLOXMRkQPkNWrVwvK9fX1BskTEfbs2YPR0VEAY3slhw4dMpl9nNmNxQVIXV2dQfI5OTkoKipi5bS0NLi4uJjENg5H9ADx9PTEnDlzWNmQHmRoaIjtvgNjS7+W8LgxzsOD6AFia2uLlStXsnJbWxt++uknvWRPnDiBtrY2puf06dMGP8mVw9GG6KtYwNgw6/r166x848YNBAUFaZVpaWnBiRMnWHnv3r3w8/ObMRt/TltbGxoaGgAAvr6+Onf/OUKsxX8WEyATqa+v1xkgb731FlQqFYCxiXlSUtKkOkQEhUKB6upqNDY2YmBgAHK5HP7+/ggNDYWzs/O0bU5JScHp06cBQK/0mIcBIsJHH32E3t5ewdB2OliN//R5MuhMP+U2Pz9f8Kztffv2aa2fl5cnqP/pp59OqlNRUUHPPvvslM/zdnJyoqSkJBoaGpqWzYGBgUxXb2/vtHRYE7W1tRQZGWmye0As/83IU25n+nR3Q1ayVCoV4uPjWXnTpk2TJuZXr15FWFgY62EAYP78+eju7mZJjYODg0hOTkZeXh4+//xzyOVyve1VqVQszd7Hx+eh+458bW0tWlpa0NHRgZs3b6KkpAQ1NTUm0y+m/ww93d0iehCNRkOPPvooa8Pd3X3Kun/+859ZPVtbW6qtrRVcb2xsJDc3NwJAzs7O9P7771NHRwcREQ0ODlJpaSmFhIQIepPg4GAaGRnR216FQsFkf/vb307vj7ZgYmJipux5TXEPiOk/Q3sQ0VexgLFj6FetWsXKP/zwA/r6+ibV6+jowNGjR1k5Pj5eIAcAycnJ6O/vh4uLCyoqKvDaa6+x3sHR0REbNmxAcXExEhMTmczXX3+NzMxMve1VKBTs96eeekpvOWvCzs4OCxcuxJYtW5Camorw8HCT6bYq/+kTdTPdgxAR7d69W/Bfqry8fFKd119/nV1ftGgR3b17V3C9tbWVpFIpAaD09HSt7d2/f5/8/f2ZvmXLlpFGo9HL1ldeeYXJVVZW6v9HWgkjIyOTfPHGG2+Y7B4Q039W2YMAk+cht2/fFpSrq6vx97//nZVTU1Ph6uoqqKNUKmFvb4/58+cjLi5Oa3tSqVSwEtPa2spOUtHFN998AwCwt7fHmjVr9JIxN1VVVYiKikJ7e7vBsjKZbEb3k6zBf+NYRYAQEd566y02wd60aRNiY2Mn6fD29sYHH3yA6OhovRYTxk9JGaepqUmnTG9vLxobGwEATz75pMU+km5gYACXLl3CJ598IrYpAqzFf+NYxD4IgElziYn/+f71r3+hpKQEgO4d85deegnPPfecXm26u7sLyvocSDf+3w+Azr2apqYmKJVKAICLiwuWLVuml12mIDAwEM7OzsjOzsaBAwfM1q4urMV/41hMD+Lq6ipwQGdnJ4Cx5yMmJCSw9x80Mf85+iYrNjc3C8oTU16mYuIHPNUEc3R0FPv374eXlxdWr16N2NhYlm1sLhwcHBATE4Pa2lpUVlaatW1tWIv/xrGYAAGEvciPP/4IYOz7IuNDn4ULF5o0lb20tJT9LpfL4enpqVNG1wpMT08PwsPDkZKSAgCIjo5GWVkZVqxYYQKLDSMhIQG2traIi4uDWq02e/sPwpr8B8ByVrGIiN555x3BKlV/fz/b0wBA58+fN1lbSqWSFi9ezHRnZGTolNFoNDRv3jwCQHK5fNJKT3V1NXl4eBAAkkgkdPz4cb1XxmaKPXv2EABKSUkxSo8pVrEswX+GrmJZVICcP3+etSOVSulPf/oTK2/cuNGkztq7d69At0ql0inT3NzMZCIjIwXXLly4QI6OjgSA3NzcKC8vz2S2GoNSqaRnnnmGJBIJnTlzZtp6TBEgluA/qw6QmpoawV7I3Llzp9wxN4a//e1vrI2VK1dSd3e3XnKffvopkzt27BgRje2nJCQksPdXrVpFTU1NJrPVFHR2dpKXlxcBoMTERBodHTVYhykCxBL8Z9UBolKp2EbfxJeu5EVDOHv2LEkkEgJA/v7+1NXVpbfsxF6nqKiIuru7KSwsjL0XHR1NAwMDJrPVlHR2dlJQUBABIG9vb/rwww8NSq8xRYBYgv9mJFnRXNjZ2cHX11eQrLhw4UIcPnzYJPpPnjyJP/zhDwCAV199FZmZmQadoDI+wZRIJJgzZw4CAgLw3//+l10/cOCA3in0u3btQk5OjllXZ8bbamhowO9+9zscPnwYWVlZ2LRpk1naN6X/zIVFBQgwlklqajQaDfbv34+0tDTY2toiNTUV8fHxBu0Wj4yMoKqqCsDYTvPzzz+PoaEhQZ3ExERcuXJFL31+fn5oa2sz6+rSnTt3cOPGDQBjN2lAQAAee+wxs7Rtav+ZDX26JXMNsWYClUpFsbGxBIBcXV2psLBwWnoqKysnDf18fX1JoVAIVtq++uorE/8FpuH69evk7u5OEomEdu7cSbdv3zZI3tghlqX4z2pzsWaCe/fu4de//jWys7Ph7u6Oq1evYvPmzdPSNXH9HgAiIyOhUCgQGBgo2Kl+5513LO4g7erqavzqV79Cb28vLl26hKysLHh7e5vVBmv130MbIL29vdi8eTOKiorg5+eH8vJyoxLjJu4AJyUlIScnhyVLvvnmmyxt5dq1a/jiiy+MM96EdHV14cUXX4RMJkNJSQm2bdsmih3W6r+Hcoj1/fffk5+fHwGgkJAQ6uvrM1qnr68vAaDHH3/8gdczMzOZj9asWUNqtdroNk1BdHQ0AaDs7Gyj9Bg7xLIU/836IVZzczOCg4NRX1+P2NhY5Ofnw83NzSid/f39uHXrFoCp84d27tzJnuFeU1ODCxcuGNWmKbh27RouXryIiIgIxMTEiGaHtfoPsMBVLGMYHh5GcHAwOjo6IJFI8N133yE0NJRdV6vVWjN2Dx06hIiIiEnvT0z2m+oDlslkOHbsGLZv3w4AOHjwIKKiomBnZzfdP8do0tLS2E9DVuxaWlrYatc4ra2t7PeOjg5cvnxZcH3FihV44oknHqjPWv0H4OEaYvX19U1aKTHklZWV9UC9R48eZXVKS0unbF+tVtP69etZXWNSO4ylr6+PpFIpBQQEGCz77rvvGuy7t99+e0p9luS/WT/EmgnGJ5hSqRTr1q2bsp6NjQ2OHz/OykeOHJm01m8uSktLMTo6ahFHsVqj/xj6RJ219CCc/6e1tZWSk5Opv79fbFMsCqtONeGYjqVLl+LgwYNim2H18CEWh6MFHiAcjhZ4gHA4WuABwuFogQcIh6MFizjdncMxF4ae7v4/9FnNDS1YgR8AAAAASUVORK5CYII=;" vertex="1" parent="1">
          <mxGeometry x="-631.4100000000001" y="933" width="48.1" height="28.62" as="geometry" />
        </mxCell>
      </root>
    </mxGraphModel>
  </diagram>
</mxfile>
